<svg width="24" height="25" viewBox="0 0 24 25" fill="none" xmlns="http://www.w3.org/2000/svg">
<mask id="mask0_1002_9069" style="mask-type:alpha" maskUnits="userSpaceOnUse" x="0" y="0" width="24" height="25">
<rect y="0.5" width="24" height="24" fill="#D9D9D9"/>
</mask>
<g mask="url(#mask0_1002_9069)">
<path d="M5 19.5H6.4L15.025 10.875L13.625 9.475L5 18.1V19.5ZM19.3 9.425L15.05 5.225L16.45 3.825C16.8333 3.44167 17.3042 3.25 17.8625 3.25C18.4208 3.25 18.8917 3.44167 19.275 3.825L20.675 5.225C21.0583 5.60833 21.2583 6.07083 21.275 6.6125C21.2917 7.15417 21.1083 7.61667 20.725 8L19.3 9.425ZM17.85 10.9L7.25 21.5H3V17.25L13.6 6.65L17.85 10.9Z" fill="#272727"/>
</g>
</svg>
