<svg width="69" height="69" viewBox="0 0 69 69" fill="none" xmlns="http://www.w3.org/2000/svg">
    <path
        d="M67.166 15.187V53.813C67.166 61.3759 61.0296 67.5 53.4667 67.5H14.853C7.29011 67.5 1.16602 61.3759 1.16602 53.813V15.187C1.16602 7.63639 7.29011 1.5 14.853 1.5H53.4667C61.0296 1.5 67.166 7.63639 67.166 15.187Z"
        stroke="#FF7F73" stroke-width="2" stroke-linecap="round" stroke-linejoin="round" />
    <path
        d="M3.53125 61.5357C3.53125 61.5357 11.8001 66.2087 27.7671 58.9409C49.4918 49.0538 64.8881 59.5804 64.8881 59.5804"
        stroke="#FF7F73" stroke-width="2" stroke-linecap="round" stroke-linejoin="round" />
    <path
        d="M52.8209 66.6974H15.9247C12.5904 66.456 5.92188 65.2936 5.92188 62.5752C5.92188 62.5752 13.6571 65.6035 28.4508 59.447C48.5792 51.0717 64.0522 61.062 64.0522 61.062C61.7153 65.4305 55.5909 66.6391 52.8209 66.6974Z"
        fill="#FF7F73" stroke="#FF7F73" stroke-width="2" stroke-linecap="round"
        stroke-linejoin="round" />
</svg>
