<svg width="69" height="69" viewBox="0 0 69 69" fill="none" xmlns="http://www.w3.org/2000/svg">
    <path
        d="M54.1373 1.5H15.5184C7.96071 1.5 1.83398 7.62677 1.83398 15.1845V53.8036C1.83398 61.3614 7.96071 67.4882 15.5184 67.4882H54.1373C61.695 67.4882 67.8217 61.3614 67.8217 53.8036V15.1845C67.8217 7.62677 61.695 1.5 54.1373 1.5Z"
        stroke="#FF7F73" stroke-width="2" stroke-linecap="round" stroke-linejoin="round" />
    <path
        d="M1.83398 37.1686C1.83398 37.1686 10.7233 41.8408 27.8996 34.5743C51.2602 24.689 67.834 35.2137 67.834 35.2137"
        stroke="#FF7F73" stroke-width="2" stroke-linecap="round" stroke-linejoin="round" />
    <path
        d="M67.8217 53.8036C67.8217 61.3614 61.695 67.4882 54.1373 67.4882H15.5184C7.96071 67.4882 1.83398 61.3614 1.83398 53.8036L1.83418 37.1686C1.83418 37.1686 10.7235 41.8408 27.8998 34.5743C51.2604 24.689 67.8342 35.2137 67.8342 35.2137L67.8217 53.8036Z"
        fill="#FF7F73" stroke="#FF7F73" stroke-width="2" stroke-linecap="round"
        stroke-linejoin="round" />
</svg>
    