<svg width="69" height="69" viewBox="0 0 69 69" fill="none" xmlns="http://www.w3.org/2000/svg">
    <path
        d="M67.8262 15.187V53.813C67.8262 61.3759 61.6898 67.5 54.1269 67.5H15.5131C7.95026 67.5 1.82617 61.3759 1.82617 53.813V15.187C1.82617 7.63639 7.95026 1.5 15.5131 1.5H54.1269C61.6898 1.5 67.8262 7.63639 67.8262 15.187Z"
        fill="#FF7F73" stroke="#FF7F73" stroke-width="2" stroke-linecap="round"
        stroke-linejoin="round" />
    <mask id="mask0_1_3" style="mask-type:alpha" maskUnits="userSpaceOnUse" x="23" y="22" width="25"
        height="25">
        <rect x="23.1328" y="22.5024" width="24" height="24" fill="#D9D9D9" />
    </mask>
    <g mask="url(#mask0_1_3)">
        <path
            d="M35.1328 44.5024C33.7495 44.5024 32.4495 44.2399 31.2328 43.7149C30.0161 43.1899 28.9578 42.4774 28.0578 41.5774C27.1578 40.6774 26.4453 39.6191 25.9203 38.4024C25.3953 37.1858 25.1328 35.8858 25.1328 34.5024C25.1328 33.1191 25.3953 31.8191 25.9203 30.6024C26.4453 29.3858 27.1578 28.3274 28.0578 27.4274C28.9578 26.5274 30.0161 25.8149 31.2328 25.2899C32.4495 24.7649 33.7495 24.5024 35.1328 24.5024C36.5161 24.5024 37.8161 24.7649 39.0328 25.2899C40.2495 25.8149 41.3078 26.5274 42.2078 27.4274C43.1078 28.3274 43.8203 29.3858 44.3453 30.6024C44.8703 31.8191 45.1328 33.1191 45.1328 34.5024C45.1328 35.8858 44.8703 37.1858 44.3453 38.4024C43.8203 39.6191 43.1078 40.6774 42.2078 41.5774C41.3078 42.4774 40.2495 43.1899 39.0328 43.7149C37.8161 44.2399 36.5161 44.5024 35.1328 44.5024ZM35.1328 42.5024C37.3661 42.5024 39.2578 41.7274 40.8078 40.1774C42.3578 38.6274 43.1328 36.7358 43.1328 34.5024C43.1328 33.6024 42.987 32.7358 42.6953 31.9024C42.4036 31.0691 41.9828 30.3024 41.4328 29.6024L30.2328 40.8024C30.9328 41.3524 31.6995 41.7733 32.5328 42.0649C33.3661 42.3566 34.2328 42.5024 35.1328 42.5024ZM28.8328 39.4024L40.0328 28.2024C39.3328 27.6524 38.5661 27.2316 37.7328 26.9399C36.8995 26.6483 36.0328 26.5024 35.1328 26.5024C32.8995 26.5024 31.0078 27.2774 29.4578 28.8274C27.9078 30.3774 27.1328 32.2691 27.1328 34.5024C27.1328 35.4024 27.2786 36.2691 27.5703 37.1024C27.862 37.9358 28.2828 38.7024 28.8328 39.4024Z"
            fill="#FEFFF4" />
    </g>
</svg>
    