<svg width="69" height="69" viewBox="0 0 69 69" fill="none" xmlns="http://www.w3.org/2000/svg">
    <path
        d="M67.5 15.187V53.813C67.5 61.3759 61.3636 67.5 53.8007 67.5H15.187C7.62409 67.5 1.5 61.3759 1.5 53.813V15.187C1.5 7.63639 7.62409 1.5 15.187 1.5H53.8007C61.3636 1.5 67.5 7.63639 67.5 15.187Z"
        stroke="#FF7F73" stroke-width="2" stroke-linecap="round" stroke-linejoin="round" />
    <mask id="mask0_1112_10177" style="mask-type:alpha" maskUnits="userSpaceOnUse" x="22" y="22"
        width="25" height="25">
        <rect x="22.8086" y="22.5024" width="24" height="24" fill="#D9D9D9" />
    </mask>
    <g mask="url(#mask0_1112_10177)">
        <path
            d="M34.8086 44.5024C33.4253 44.5024 32.1253 44.2399 30.9086 43.7149C29.6919 43.1899 28.6336 42.4774 27.7336 41.5774C26.8336 40.6774 26.1211 39.6191 25.5961 38.4024C25.0711 37.1858 24.8086 35.8858 24.8086 34.5024C24.8086 33.1191 25.0711 31.8191 25.5961 30.6024C26.1211 29.3858 26.8336 28.3274 27.7336 27.4274C28.6336 26.5274 29.6919 25.8149 30.9086 25.2899C32.1253 24.7649 33.4253 24.5024 34.8086 24.5024C36.1919 24.5024 37.4919 24.7649 38.7086 25.2899C39.9253 25.8149 40.9836 26.5274 41.8836 27.4274C42.7836 28.3274 43.4961 29.3858 44.0211 30.6024C44.5461 31.8191 44.8086 33.1191 44.8086 34.5024C44.8086 35.8858 44.5461 37.1858 44.0211 38.4024C43.4961 39.6191 42.7836 40.6774 41.8836 41.5774C40.9836 42.4774 39.9253 43.1899 38.7086 43.7149C37.4919 44.2399 36.1919 44.5024 34.8086 44.5024ZM34.8086 42.5024C37.0419 42.5024 38.9336 41.7274 40.4836 40.1774C42.0336 38.6274 42.8086 36.7358 42.8086 34.5024C42.8086 33.6024 42.6628 32.7358 42.3711 31.9024C42.0794 31.0691 41.6586 30.3024 41.1086 29.6024L29.9086 40.8024C30.6086 41.3524 31.3753 41.7733 32.2086 42.0649C33.0419 42.3566 33.9086 42.5024 34.8086 42.5024ZM28.5086 39.4024L39.7086 28.2024C39.0086 27.6524 38.2419 27.2316 37.4086 26.9399C36.5753 26.6483 35.7086 26.5024 34.8086 26.5024C32.5753 26.5024 30.6836 27.2774 29.1336 28.8274C27.5836 30.3774 26.8086 32.2691 26.8086 34.5024C26.8086 35.4024 26.9544 36.2691 27.2461 37.1024C27.5378 37.9358 27.9586 38.7024 28.5086 39.4024Z"
            fill="#FF7F73" />
    </g>
</svg>
    