<svg width="69" height="69" viewBox="0 0 69 69" fill="none" xmlns="http://www.w3.org/2000/svg">
    <path
        d="M67.168 15.1751V53.8012C67.168 61.3641 61.0316 67.4882 53.4687 67.4882H14.8549C7.29206 67.4882 1.16797 61.3641 1.16797 53.8012V15.1751C1.16797 7.62455 7.29206 1.48816 14.8549 1.48816H53.4687C61.0316 1.48816 67.168 7.62455 67.168 15.1751Z"
        fill="#FF7F73" stroke="#FF7F73" stroke-width="2" stroke-linecap="round"
        stroke-linejoin="round" />
    <mask id="mask0_1820_16943" style="mask-type:alpha" maskUnits="userSpaceOnUse" x="22" y="22"
        width="25" height="25">
        <rect x="22.168" y="22.4882" width="24" height="24" fill="#D9D9D9" />
    </mask>
    <g mask="url(#mask0_1820_16943)">
        <path
            d="M32.7688 38.4882C32.7688 37.1382 32.8898 36.1672 33.1318 35.5752C33.3731 34.9838 33.8854 34.3382 34.6687 33.6382C35.3521 33.0382 35.8728 32.5172 36.2308 32.0752C36.5894 31.6338 36.7688 31.1298 36.7688 30.5632C36.7688 29.8798 36.5398 29.3132 36.0817 28.8632C35.6231 28.4132 34.9854 28.1882 34.1687 28.1882C33.3187 28.1882 32.6727 28.4465 32.2308 28.9632C31.7894 29.4798 31.4771 30.0048 31.2937 30.5382L28.7188 29.4382C29.0687 28.3715 29.7104 27.4465 30.6438 26.6632C31.5771 25.8798 32.7521 25.4882 34.1687 25.4882C35.9187 25.4882 37.2647 25.9758 38.2067 26.9512C39.1481 27.9258 39.6188 29.0965 39.6188 30.4632C39.6188 31.2965 39.4397 32.0092 39.0817 32.6012C38.7231 33.1925 38.1604 33.8632 37.3938 34.6132C36.5771 35.3965 36.0814 35.9922 35.9067 36.4002C35.7314 36.8088 35.6438 37.5048 35.6438 38.4882H32.7688ZM34.1687 44.4882C33.6187 44.4882 33.1481 44.2925 32.7568 43.9012C32.3648 43.5092 32.1687 43.0382 32.1687 42.4882C32.1687 41.9382 32.3648 41.4672 32.7568 41.0752C33.1481 40.6838 33.6187 40.4882 34.1687 40.4882C34.7188 40.4882 35.1897 40.6838 35.5817 41.0752C35.9731 41.4672 36.1687 41.9382 36.1687 42.4882C36.1687 43.0382 35.9731 43.5092 35.5817 43.9012C35.1897 44.2925 34.7188 44.4882 34.1687 44.4882Z"
            fill="#FEFFF4" />
    </g>
</svg>
    