<svg width="69" height="67" viewBox="0 0 69 67" fill="none" xmlns="http://www.w3.org/2000/svg">
<rect x="1.4375" y="0.74707" width="67" height="65" rx="11.5" fill="#5B9F8F"/>
<path d="M31.5226 27.8106C31.5226 27.8106 33.2205 30.8204 30.7501 33.9467C29.7226 35.2439 28.2068 36.0673 26.5744 36.3661C23.4189 36.9491 16.9549 38.5232 15.6723 41.737C13.9598 46.022 14.827 54.6795 14.827 54.6795" stroke="#FEFFF4" stroke-width="2.41944" stroke-linecap="round" stroke-linejoin="round"/>
<path d="M41.5855 27.8106C41.5855 27.8106 41.5855 27.8179 41.5855 27.8325C40.9588 31.3305 42.7806 34.8212 46.009 36.3005C47.0001 36.7524 48.1588 37.2333 49.4778 37.6997C51.6932 38.4795 53.4786 40.1629 54.2948 42.3637C55.439 45.4682 55.7815 47.3921 54.1636 54.6722" stroke="#FEFFF4" stroke-width="2.41944" stroke-linecap="round" stroke-linejoin="round"/>
<path d="M29.6576 45.7232L27.6973 49.4107L31.5013 49.0682L29.0236 53.7321" stroke="#FEFFF4" stroke-width="2.55061" stroke-linecap="round" stroke-linejoin="round"/>
<path d="M42.1542 45.7232L40.2012 49.4107L44.0052 49.0682L41.5275 53.7321" stroke="#FEFFF4" stroke-width="2.55061" stroke-linecap="round" stroke-linejoin="round"/>
<path d="M36.6098 29.5961C41.0531 29.5961 44.6552 25.6155 44.6552 20.7053C44.6552 15.7951 41.0531 11.8146 36.6098 11.8146C32.1665 11.8146 28.5645 15.7951 28.5645 20.7053C28.5645 25.6155 32.1665 29.5961 36.6098 29.5961Z" stroke="#FEFFF4" stroke-width="2.55061" stroke-miterlimit="10"/>
<rect x="1.4375" y="0.74707" width="67" height="65" rx="11.5" stroke="#5B9F8F"/>
</svg>