<svg width="69" height="67" viewBox="0 0 69 67" fill="none" xmlns="http://www.w3.org/2000/svg">
<rect x="1.4375" y="0.74707" width="67" height="65" rx="11.5" fill="#5B9F8F"/>
<path d="M37.0836 25.1551C40.8965 25.1551 43.9874 21.7394 43.9874 17.5258C43.9874 13.3123 40.8965 9.89658 37.0836 9.89658C33.2707 9.89658 30.1797 13.3123 30.1797 17.5258C30.1797 21.7394 33.2707 25.1551 37.0836 25.1551Z" stroke="#FEFFF4" stroke-width="2.18873" stroke-miterlimit="10"/>
<path d="M33.1111 23.7668C32.8171 25.7867 31.3851 27.4563 29.4277 28.0379C26.1572 29.0072 23.0804 29.2136 21.8297 31.0896C19.8786 34.0163 18.7843 40.0571 20.6416 44.1594C22.4989 48.2617 24.7939 49.625 27.1327 50.2128C29.4715 50.8006 35.0246 52.4015 36.0064 51.3072C38.1764 48.8933 32.6358 47.6051 28.0832 44.8473C25.9133 43.5278 24.5187 37.3556 25.9821 35.4045" stroke="#FEFFF4" stroke-width="2.18873" stroke-linecap="round" stroke-linejoin="round"/>
<path d="M24.4629 56.2036L26.5766 50.6505" stroke="#FEFFF4" stroke-width="2.18873" stroke-linecap="round" stroke-linejoin="round"/>
<path d="M39.7414 24.5736C39.3786 26.6247 42.9682 28.2256 45.432 28.7134C49.0841 29.4388 51.7856 32.5906 51.992 36.3114C52.1045 38.375 51.7606 40.9265 50.5474 43.9969C46.4013 54.4715 39.141 52.0139 39.141 52.0139C39.141 52.0139 35.4827 50.9258 37.9654 49.1873C38.4656 48.8371 42.743 47.3363 44.9318 44.6786C48.7276 40.0635 46.6827 36.3239 45.6259 35.7111" stroke="#FEFFF4" stroke-width="2.18873" stroke-linecap="round" stroke-linejoin="round"/>
<path d="M36.3575 55.1343C36.4266 55.1343 36.4826 55.0783 36.4826 55.0093C36.4826 54.9402 36.4266 54.8842 36.3575 54.8842C36.2884 54.8842 36.2324 54.9402 36.2324 55.0093C36.2324 55.0783 36.2884 55.1343 36.3575 55.1343Z" stroke="#FEFFF4" stroke-width="1.2507" stroke-linecap="round" stroke-linejoin="round"/>
<path d="M44.918 51.5699L45.7497 56.5977" stroke="#FEFFF4" stroke-width="2.18873" stroke-linecap="round" stroke-linejoin="round"/>
<path d="M16.2834 47.874L14.6074 51.032L17.8718 50.7381L15.7456 54.7466" stroke="#FEFFF4" stroke-width="2.18873" stroke-linecap="round" stroke-linejoin="round"/>
<path d="M53.6857 47.874L52.0098 51.032L55.2678 50.7381L53.1479 54.7466" stroke="#FEFFF4" stroke-width="2.18873" stroke-linecap="round" stroke-linejoin="round"/>
<rect x="1.4375" y="0.74707" width="67" height="65" rx="11.5" stroke="#5B9F8F"/>
</svg>
