<svg width="88" height="87" viewBox="0 0 88 87" fill="none" xmlns="http://www.w3.org/2000/svg">
    <g filter="url(#filter0_d_1726_16785)">
        <rect x="10" y="10.4882" width="68" height="66" rx="12" fill="#5B9F8F" />
        <path
            d="M55.9437 37.0284C55.9437 40.3191 54.7674 43.3418 52.8118 45.6846C50.3301 48.6676 46.5877 50.5636 42.4035 50.5636C34.9286 50.5636 28.8633 44.5033 28.8633 37.0234C28.8633 29.5435 34.9286 23.4882 42.4085 23.4882C49.8883 23.4882 55.9487 29.5485 55.9487 37.0284H55.9437Z"
            stroke="#FEFFF4" stroke-width="1.7372" stroke-linecap="round" stroke-linejoin="round" />
        <path
            d="M42.4089 47.4763C48.1792 47.4763 52.8569 42.7985 52.8569 37.0283C52.8569 31.258 48.1792 26.5803 42.4089 26.5803C36.6387 26.5803 31.9609 31.258 31.9609 37.0283C31.9609 42.7985 36.6387 47.4763 42.4089 47.4763Z"
            stroke="#FEFFF4" stroke-width="1.7372" stroke-linecap="round" stroke-linejoin="round" />
        <path d="M48.0078 50.077L55.3785 63.4882L59.1358 61.3588L51.4425 47.4861" stroke="#FEFFF4"
            stroke-width="1.7372" stroke-linecap="round" stroke-linejoin="round" />
        <rect x="10.5" y="10.9882" width="67" height="65" rx="11.5" stroke="#5B9F8F" />
    </g>
    <defs>
        <filter id="filter0_d_1726_16785" x="0" y="0.488159" width="88" height="86"
            filterUnits="userSpaceOnUse" color-interpolation-filters="sRGB">
            <feFlood flood-opacity="0" result="BackgroundImageFix" />
            <feColorMatrix in="SourceAlpha" type="matrix"
                values="0 0 0 0 0 0 0 0 0 0 0 0 0 0 0 0 0 0 127 0" result="hardAlpha" />
            <feMorphology radius="4" operator="dilate" in="SourceAlpha"
                result="effect1_dropShadow_1726_16785" />
            <feOffset />
            <feGaussianBlur stdDeviation="3" />
            <feComposite in2="hardAlpha" operator="out" />
            <feColorMatrix type="matrix"
                values="0 0 0 0 0.356863 0 0 0 0 0.623529 0 0 0 0 0.560784 0 0 0 0.5 0" />
            <feBlend mode="normal" in2="BackgroundImageFix" result="effect1_dropShadow_1726_16785" />
            <feBlend mode="normal" in="SourceGraphic" in2="effect1_dropShadow_1726_16785"
                result="shape" />
        </filter>
    </defs>
</svg>
    