<svg width="69" height="67" viewBox="0 0 69 67" fill="none" xmlns="http://www.w3.org/2000/svg">
    <rect x="1.9375" y="1.24707" width="66" height="64" rx="11" fill="#FEFFF4" />
    <path
        d="M45.8258 23.3476C45.8258 23.3476 56.6178 22.6916 46.0898 38.0036C45.6898 38.5796 39.4978 46.3156 37.4498 36.1076C36.2578 30.1636 43.4338 29.4436 45.6898 33.5796C49.4418 40.4516 44.4818 54.5317 34.2578 49.3876"
        stroke="#5B9F8F" stroke-width="2" stroke-linecap="round" stroke-linejoin="round" />
    <path
        d="M23.3851 16.4755C23.3851 16.4755 33.2571 12.0675 28.7931 30.0995C28.6251 30.7795 25.5531 40.2035 20.0411 31.3635C16.8331 26.2195 23.2971 23.0195 26.8651 26.0995C32.7931 31.2115 33.1131 46.1315 21.7291 44.9235"
        stroke="#5B9F8F" stroke-width="2" stroke-linecap="round" stroke-linejoin="round" />
    <rect x="1.9375" y="1.24707" width="66" height="64" rx="11" stroke="#5B9F8F" stroke-width="2" />
</svg>
