<svg width="89" height="87" viewBox="0 0 89 87" fill="none" xmlns="http://www.w3.org/2000/svg">
    <g filter="url(#filter0_d_1726_17458)">
        <rect x="10.9375" y="10.2471" width="68" height="66" rx="12" fill="#5B9F8F" />
        <path
            d="M54.4131 27.5129C56.8107 29.1185 58.1859 31.8689 58.1787 34.7561C58.1643 40.0337 57.3651 51.6833 51.1011 57.8465C47.5947 61.2881 43.6924 61.5689 40.3516 60.7481C34.2532 59.2433 30.5308 53.0153 32.0284 46.9169C32.5972 44.5985 33.6916 41.9849 35.6284 39.2273C41.59 30.7457 38.3356 29.5577 42.5116 26.8217C46.2412 24.3737 51.0795 25.2737 54.4131 27.5129Z"
            stroke="#FEFFF4" stroke-width="2" stroke-linecap="round" stroke-linejoin="round" />
        <path d="M40.3379 41.4374L51.145 35.4758" stroke="#FEFFF4" stroke-width="2"
            stroke-linecap="round" stroke-linejoin="round" />
        <path d="M42.3887 47.7814L49.5598 44.1454" stroke="#FEFFF4" stroke-width="2"
            stroke-linecap="round" stroke-linejoin="round" />
        <rect x="11.4375" y="10.7471" width="67" height="65" rx="11.5" stroke="#5B9F8F" />
    </g>
    <defs>
        <filter id="filter0_d_1726_17458" x="0.9375" y="0.24707" width="88" height="86"
            filterUnits="userSpaceOnUse" color-interpolation-filters="sRGB">
            <feFlood flood-opacity="0" result="BackgroundImageFix" />
            <feColorMatrix in="SourceAlpha" type="matrix"
                values="0 0 0 0 0 0 0 0 0 0 0 0 0 0 0 0 0 0 127 0" result="hardAlpha" />
            <feMorphology radius="4" operator="dilate" in="SourceAlpha"
                result="effect1_dropShadow_1726_17458" />
            <feOffset />
            <feGaussianBlur stdDeviation="3" />
            <feComposite in2="hardAlpha" operator="out" />
            <feColorMatrix type="matrix"
                values="0 0 0 0 0.356863 0 0 0 0 0.623529 0 0 0 0 0.560784 0 0 0 0.5 0" />
            <feBlend mode="normal" in2="BackgroundImageFix" result="effect1_dropShadow_1726_17458" />
            <feBlend mode="normal" in="SourceGraphic" in2="effect1_dropShadow_1726_17458"
                result="shape" />
        </filter>
    </defs>
</svg>
    