<?xml version="1.0" encoding="utf-8"?>
<svg viewBox="0 0 69 67" width="69" height="67" fill="none" xmlns="http://www.w3.org/2000/svg">
  <mask id="path-3-inside-1_1726_17518" fill="white">
    <path
      d="M39.5019 16.9931C40.5887 16.9931 39.6891 21.5089 38.7302 28.2524C38.7302 28.2524 38.4745 31.1303 39.2325 31.1303C39.6298 31.1303 40.3102 30.334 41.4517 27.9047C41.7349 27.3049 41.9586 26.6648 42.1093 26.0096C42.6618 23.6358 44.2555 17.3005 45.5477 17.3005C45.6573 17.3005 45.7623 17.3459 45.8674 17.4416C47.4884 18.9436 44.5066 30.2584 44.5066 30.2584C44.5066 30.2584 39.8307 49.5313 37.5932 49.5313C37.5247 49.5313 37.4562 49.5112 37.3877 49.4708C35.2461 48.1806 38.6024 38.5945 38.6024 37.9494C38.6024 37.5563 38.2051 36.8003 37.6297 36.8003C37.2644 36.8003 36.8261 37.1027 36.374 37.9897C35.205 40.2829 33.2141 45.4288 33.2141 45.4288C32.9219 46.719 31.383 49.1332 30.5109 49.1332C29.8305 49.1332 29.5565 47.6564 30.6205 42.9944C30.6205 42.9944 31.8808 38.146 32.2689 37.3597C32.4698 36.9565 32.0634 36.1804 31.3602 36.1804C30.6935 36.1804 29.762 36.8759 28.8122 39.2447C26.867 44.1133 26.1409 45.8622 26.1409 45.8622C25.698 46.9004 24.7254 48.1302 24.1043 48.1302C23.4057 48.1302 23.15 46.5728 24.5838 41.422C26.6523 33.998 28.3373 28.1063 28.5748 27.2747C28.593 27.2041 28.6113 27.1436 28.625 27.0731C28.867 26.0348 30.9949 17.0586 32.794 17.0586C32.9767 17.0586 33.1548 17.1493 33.3283 17.3509C35.3146 19.6693 34.3237 23.0814 33.3283 27.5922C32.9584 29.2806 33.1411 29.8048 33.5155 29.8048C33.6936 29.8048 33.9128 29.6888 34.1365 29.5175C34.8626 28.9732 35.3557 28.1264 35.5795 27.189C36.2325 24.4674 37.9494 17.734 39.1823 17.0737C39.301 17.0082 39.406 16.978 39.4928 16.978M39.4928 15.214C39.1595 15.214 38.8215 15.3047 38.4836 15.4861C37.9996 15.7432 37.2279 16.1564 36.0087 19.6744C35.8534 18.3791 35.4014 17.1947 34.4881 16.1312C33.8899 15.4307 33.237 15.2845 32.794 15.2845C31.1912 15.2845 29.9857 16.9578 28.625 21.0604C27.8076 23.5249 27.1912 26.1306 27.077 26.6245C27.0679 26.6598 27.0587 26.6951 27.0496 26.7304C26.7391 27.8089 25.0952 33.5747 23.0541 40.8928C21.5929 46.1444 21.7573 47.9185 22.4605 48.9668C22.8532 49.5515 23.4514 49.8841 24.1043 49.8841C25.7482 49.8841 27.0998 47.7371 27.5884 46.6031C27.6158 46.5376 27.9811 45.6505 28.8761 43.443C27.9994 47.596 28.246 49.0928 28.8944 50.0101C29.2871 50.5696 29.8807 50.8871 30.5109 50.8871C32.4972 50.8871 34.2963 47.5909 34.7256 46.0084C34.8169 45.7765 35.0543 45.1717 35.3649 44.3905C34.8169 47.5052 34.9265 49.9849 36.6206 51.008C36.9174 51.1895 37.2507 51.2802 37.5886 51.2802C39.2416 51.2802 40.6572 49.5515 43.4016 40.4341C44.8034 35.7721 45.9587 31.0547 46.0409 30.717C46.1139 30.4448 46.8263 27.7081 47.356 24.7446C48.4747 18.5454 47.7898 16.9175 46.8902 16.0808C46.4975 15.718 46.0317 15.5264 45.5432 15.5264C43.9221 15.5264 42.9723 17.3711 42.0454 20.1431C41.6527 21.3124 41.2965 22.5875 41.0179 23.6812C41.7257 18.8226 41.849 17.0939 40.9951 15.98C40.6161 15.4861 40.0864 15.214 39.5019 15.214H39.4928Z" />
  </mask>
  <rect x="1.9375" y="1.24707" width="66" height="64" rx="11" fill="#FEFFF4" />
  <path
    d="M30.0932 42.8372C29.5542 45.2125 29.3663 46.7059 29.3652 47.6767C29.3641 48.6421 29.5477 49.0678 29.734 49.3296L29.7355 49.3318C29.9345 49.6177 30.2117 49.763 30.515 49.763C30.7988 49.763 31.1224 49.6167 31.4697 49.3326C31.8132 49.0515 32.1536 48.6568 32.4659 48.2126C33.0925 47.3211 33.5747 46.2752 33.7321 45.6586L33.7359 45.6439L33.7414 45.6297C33.9587 45.0699 35.7719 40.4248 36.8475 38.314M30.0932 42.8372L40.9623 27.6089C41.2306 27.0425 41.4326 26.4511 41.5734 25.8503L41.5735 25.8499C42.6639 21.1664 43.5588 18.8559 44.2421 17.7201C44.5825 17.1542 44.8586 16.9002 45.0611 16.7829C45.2546 16.671 45.4017 16.6704 45.5427 16.6704C45.7725 16.6704 46.0008 16.7615 46.2072 16.9511C46.3892 17.1204 46.5396 17.3906 46.6506 17.7675C46.7612 18.1428 46.8274 18.6054 46.8542 19.1381C46.9079 20.2036 46.8028 21.5153 46.61 22.8971C46.2245 25.6585 45.4946 28.6572 45.0251 30.4358L45.0252 30.4358C45.0202 30.4554 45.0077 30.5059 44.9883 30.584C44.9521 30.7302 44.8919 30.9728 44.8125 31.2885C44.6785 31.8215 44.4856 32.5792 44.2481 33.4855C43.7731 35.2982 43.1198 37.7042 42.4018 40.0943C40.9822 44.8176 39.9649 47.354 39.192 48.7062C38.8057 49.382 38.491 49.7427 38.2341 49.9351C37.9881 50.1193 37.786 50.1561 37.5928 50.1561H37.4946C37.3702 50.1426 37.2501 50.1016 37.1345 50.0314L37.1336 50.0309C36.6904 49.7643 36.4006 49.2939 36.248 48.62C36.0948 47.9436 36.0864 47.0878 36.1876 46.0981C36.39 44.1192 37.0221 41.6757 37.7122 39.2065C37.8435 38.7367 37.9922 38.1987 38.0398 37.9835L38.0556 37.912L38.0306 37.8432C38.0065 37.7767 37.9623 37.7007 37.92 37.641C37.8977 37.6095 37.8713 37.576 37.8422 37.5458C37.8181 37.5208 37.7723 37.4768 37.7095 37.4502L37.3591 37.3014V37.5649M30.0932 42.8372C30.3079 42.0129 31.2823 38.3097 31.726 37.2066L31.791 37.045L31.6628 36.9271C31.618 36.8859 31.5176 36.8052 31.3643 36.8052C31.2206 36.8052 31.0709 36.8668 30.928 36.9625C30.781 37.061 30.621 37.2089 30.4518 37.4141C30.1137 37.8244 29.723 38.4836 29.3175 39.4988M30.0932 42.8372L29.3175 39.4988M36.8475 38.314C36.8476 38.3139 36.8476 38.3137 36.8477 38.3136L37.0719 38.4279L36.8474 38.3142C36.8475 38.3141 36.8475 38.3141 36.8475 38.314ZM36.8475 38.314C37.0172 37.979 37.1636 37.7757 37.2755 37.6508C37.3063 37.6163 37.3343 37.5881 37.3591 37.5649M37.3591 37.5649V37.6821C37.3591 37.5884 37.4112 37.5285 37.4169 37.522L37.4173 37.5215C37.4304 37.5059 37.4423 37.4958 37.4448 37.4936C37.451 37.4883 37.4559 37.4848 37.4509 37.4886C37.445 37.4929 37.4312 37.5031 37.4139 37.5171C37.3979 37.53 37.3795 37.5458 37.3591 37.5649ZM29.3175 39.4988C28.3542 41.9075 27.6865 43.5602 27.2592 44.6124C27.0455 45.1386 26.8919 45.5146 26.7915 45.7601L26.6797 46.0328L26.6519 46.1008L26.6444 46.1193L26.642 46.1253C26.4201 46.6454 26.0302 47.3154 25.5615 47.8514C25.0802 48.4018 24.5697 48.75 24.1131 48.75C23.8037 48.75 23.5223 48.5976 23.3221 48.3018C23.1456 48.0393 22.9645 47.5852 23.0143 46.5304C23.0643 45.4709 23.3462 43.8314 24.0727 41.2223C26.0132 34.2678 27.6203 28.6337 28.0677 27.0718L28.0677 27.0718L28.0686 27.0685L28.0892 26.9929L28.1097 26.9173L28.1099 26.9173L28.1121 26.9077C28.926 23.375 29.7444 20.7276 30.5577 18.9685C30.9647 18.0881 31.3641 17.4443 31.7507 17.0242C32.1382 16.6032 32.4872 16.4335 32.7982 16.4335C33.0199 16.4335 33.3718 16.5077 33.721 16.915L33.7211 16.9151C34.7303 18.0913 35.067 19.4688 35.0303 21.0866C34.9933 22.7149 34.5792 24.5603 34.105 26.659L29.3175 39.4988ZM34.2166 45.7983C34.4599 45.1721 36.2435 40.6091 37.2968 38.5425L37.297 38.5419C37.3511 38.4351 37.4014 38.3455 37.4471 38.2705L34.2166 45.7983ZM35.0571 27.0305C36.2271 22.147 37.1254 19.5521 37.7767 18.1553C38.102 17.4575 38.3613 17.0684 38.5549 16.8444C38.7387 16.6317 38.8661 16.5637 38.9536 16.5171L38.9574 16.5151C38.9575 16.515 38.9576 16.515 38.9576 16.5149L35.0571 27.0305Z"
    fill="#5B9F8F" stroke="#5B9F8F" stroke-width="0.504" />
  <path
    d="M39.5019 16.9931C40.5887 16.9931 39.6891 21.5089 38.7302 28.2524C38.7302 28.2524 38.4745 31.1303 39.2325 31.1303C39.6298 31.1303 40.3102 30.334 41.4517 27.9047C41.7349 27.3049 41.9586 26.6648 42.1093 26.0096C42.6618 23.6358 44.2555 17.3005 45.5477 17.3005C45.6573 17.3005 45.7623 17.3459 45.8674 17.4416C47.4884 18.9436 44.5066 30.2584 44.5066 30.2584C44.5066 30.2584 39.8307 49.5313 37.5932 49.5313C37.5247 49.5313 37.4562 49.5112 37.3877 49.4708C35.2461 48.1806 38.6024 38.5945 38.6024 37.9494C38.6024 37.5563 38.2051 36.8003 37.6297 36.8003C37.2644 36.8003 36.8261 37.1027 36.374 37.9897C35.205 40.2829 33.2141 45.4288 33.2141 45.4288C32.9219 46.719 31.383 49.1332 30.5109 49.1332C29.8305 49.1332 29.5565 47.6564 30.6205 42.9944C30.6205 42.9944 31.8808 38.146 32.2689 37.3597C32.4698 36.9565 32.0634 36.1804 31.3602 36.1804C30.6935 36.1804 29.762 36.8759 28.8122 39.2447C26.867 44.1133 26.1409 45.8622 26.1409 45.8622C25.698 46.9004 24.7254 48.1302 24.1043 48.1302C23.4057 48.1302 23.15 46.5728 24.5838 41.422C26.6523 33.998 28.3373 28.1063 28.5748 27.2747C28.593 27.2041 28.6113 27.1436 28.625 27.0731C28.867 26.0348 30.9949 17.0586 32.794 17.0586C32.9767 17.0586 33.1548 17.1493 33.3283 17.3509C35.3146 19.6693 34.3237 23.0814 33.3283 27.5922C32.9584 29.2806 33.1411 29.8048 33.5155 29.8048C33.6936 29.8048 33.9128 29.6888 34.1365 29.5175C34.8626 28.9732 35.3557 28.1264 35.5795 27.189C36.2325 24.4674 37.9494 17.734 39.1823 17.0737C39.301 17.0082 39.406 16.978 39.4928 16.978M39.4928 15.214C39.1595 15.214 38.8215 15.3047 38.4836 15.4861C37.9996 15.7432 37.2279 16.1564 36.0087 19.6744C35.8534 18.3791 35.4014 17.1947 34.4881 16.1312C33.8899 15.4307 33.237 15.2845 32.794 15.2845C31.1912 15.2845 29.9857 16.9578 28.625 21.0604C27.8076 23.5249 27.1912 26.1306 27.077 26.6245C27.0679 26.6598 27.0587 26.6951 27.0496 26.7304C26.7391 27.8089 25.0952 33.5747 23.0541 40.8928C21.5929 46.1444 21.7573 47.9185 22.4605 48.9668C22.8532 49.5515 23.4514 49.8841 24.1043 49.8841C25.7482 49.8841 27.0998 47.7371 27.5884 46.6031C27.6158 46.5376 27.9811 45.6505 28.8761 43.443C27.9994 47.596 28.246 49.0928 28.8944 50.0101C29.2871 50.5696 29.8807 50.8871 30.5109 50.8871C32.4972 50.8871 34.2963 47.5909 34.7256 46.0084C34.8169 45.7765 35.0543 45.1717 35.3649 44.3905C34.8169 47.5052 34.9265 49.9849 36.6206 51.008C36.9174 51.1895 37.2507 51.2802 37.5886 51.2802C39.2416 51.2802 40.6572 49.5515 43.4016 40.4341C44.8034 35.7721 45.9587 31.0547 46.0409 30.717C46.1139 30.4448 46.8263 27.7081 47.356 24.7446C48.4747 18.5454 47.7898 16.9175 46.8902 16.0808C46.4975 15.718 46.0317 15.5264 45.5432 15.5264C43.9221 15.5264 42.9723 17.3711 42.0454 20.1431C41.6527 21.3124 41.2965 22.5875 41.0179 23.6812C41.7257 18.8226 41.849 17.0939 40.9951 15.98C40.6161 15.4861 40.0864 15.214 39.5019 15.214H39.4928Z"
    fill="#5B9F8F" />
  <path
    d="M38.7302 28.2524L38.2312 28.1815L38.2294 28.1946L38.2282 28.2078L38.7302 28.2524ZM41.4517 27.9047L40.996 27.6895L40.9956 27.6903L41.4517 27.9047ZM42.1093 26.0096L41.6184 25.8954L41.6181 25.8967L42.1093 26.0096ZM45.8674 17.4416L46.2099 17.0719L46.2069 17.0692L45.8674 17.4416ZM44.5066 30.2584L44.0191 30.1299L44.0168 30.1395L44.5066 30.2584ZM37.3877 49.4708L37.1276 49.9026L37.1321 49.9052L37.3877 49.4708ZM36.374 37.9897L36.823 38.2186L36.8231 38.2186L36.374 37.9897ZM33.2141 45.4288L32.7441 45.2469L32.7307 45.2814L32.7226 45.3174L33.2141 45.4288ZM30.6205 42.9944L30.1327 42.8676L30.1308 42.8749L30.1291 42.8823L30.6205 42.9944ZM32.2689 37.3597L31.8178 37.1349L31.817 37.1366L32.2689 37.3597ZM28.8122 39.2447L28.3444 39.0571L28.3442 39.0577L28.8122 39.2447ZM26.1409 45.8622L26.6045 46.06L26.6064 46.0554L26.1409 45.8622ZM24.5838 41.422L24.0983 41.2867L24.0983 41.2868L24.5838 41.422ZM28.5748 27.2747L29.0595 27.4131L29.0627 27.401L28.5748 27.2747ZM28.625 27.0731L28.1341 26.9587L28.132 26.9678L28.1302 26.977L28.625 27.0731ZM33.3283 17.3509L33.711 17.023L33.7103 17.0221L33.3283 17.3509ZM33.3283 27.5922L32.8361 27.4836L32.836 27.4843L33.3283 27.5922ZM34.1365 29.5175L33.8342 29.1142L33.8301 29.1173L34.1365 29.5175ZM35.5795 27.189L35.0894 27.0714L35.0892 27.072L35.5795 27.189ZM39.1823 17.0737L39.4202 17.5181L39.4258 17.515L39.1823 17.0737ZM38.4836 15.4861L38.72 15.9313L38.7221 15.9302L38.4836 15.4861ZM36.0087 19.6744L35.5083 19.7343L36.4849 19.8394L36.0087 19.6744ZM34.4881 16.1312L34.1048 16.4585L34.1058 16.4596L34.4881 16.1312ZM28.625 21.0604L28.1466 20.9017L28.1466 20.9017L28.625 21.0604ZM27.077 26.6245L27.5651 26.7509L27.5681 26.738L27.077 26.6245ZM27.0496 26.7304L27.5341 26.8698L27.5375 26.8567L27.0496 26.7304ZM23.0541 40.8928L22.5686 40.7574L22.5685 40.7577L23.0541 40.8928ZM22.4605 48.9668L22.0419 49.2476L22.0421 49.2479L22.4605 48.9668ZM27.5884 46.6031L28.0513 46.8025L28.0534 46.7975L27.5884 46.6031ZM28.8761 43.443L29.3693 43.5471L28.4091 43.2536L28.8761 43.443ZM28.8944 50.0101L29.3069 49.7206L29.306 49.7192L28.8944 50.0101ZM34.7256 46.0084L34.2566 45.8236L34.2464 45.8496L34.2391 45.8764L34.7256 46.0084ZM35.3649 44.3905L35.8612 44.4778L34.8965 44.2044L35.3649 44.3905ZM36.6206 51.008L36.8835 50.578L36.8811 50.5766L36.6206 51.008ZM43.4016 40.4341L43.8842 40.5794L43.8842 40.5793L43.4016 40.4341ZM46.0409 30.717L45.554 30.5863L45.5512 30.5978L46.0409 30.717ZM47.356 24.7446L46.86 24.6551L46.8598 24.6559L47.356 24.7446ZM46.8902 16.0808L47.2335 15.7118L47.2323 15.7107L46.8902 16.0808ZM42.0454 20.1431L42.5231 20.3035L42.5233 20.3029L42.0454 20.1431ZM41.0179 23.6812L40.5192 23.6085L41.5063 23.8056L41.0179 23.6812ZM40.9951 15.98L41.3951 15.6734L41.395 15.6732L40.9951 15.98ZM39.5019 17.4971C39.4165 17.4971 39.3722 17.4322 39.3818 17.449C39.4074 17.4942 39.4488 17.6135 39.4732 17.8548C39.521 18.327 39.4863 19.0567 39.382 20.0408C39.1743 22.0013 38.7134 24.7906 38.2312 28.1815L39.2292 28.3234C39.7059 24.9708 40.1743 22.1304 40.3844 20.147C40.4891 19.1593 40.5354 18.3385 40.4761 17.7533C40.447 17.4659 40.3879 17.1797 40.2585 16.9516C40.113 16.6951 39.859 16.4891 39.5019 16.4891V17.4971ZM38.7302 28.2524C38.2282 28.2078 38.2282 28.2079 38.2282 28.208C38.2282 28.208 38.2282 28.2081 38.2282 28.2082C38.2281 28.2084 38.2281 28.2086 38.2281 28.2089C38.2281 28.2094 38.228 28.2101 38.2279 28.211C38.2278 28.2127 38.2276 28.2151 38.2273 28.2182C38.2268 28.2244 38.226 28.2332 38.2251 28.2445C38.2233 28.2672 38.2208 28.2998 38.2179 28.3409C38.2122 28.4231 38.2049 28.5397 38.1986 28.6795C38.1861 28.9575 38.1773 29.3332 38.1936 29.7129C38.2095 30.084 38.2505 30.4956 38.3523 30.8282C38.4028 30.9929 38.4795 31.1773 38.6061 31.3292C38.7427 31.4933 38.9535 31.6343 39.2325 31.6343V30.6263C39.322 30.6263 39.375 30.6773 39.3805 30.684C39.3808 30.6843 39.3786 30.6817 39.3745 30.6752C39.3705 30.6686 39.3651 30.6591 39.3587 30.6459C39.3458 30.6191 39.3311 30.582 39.3162 30.533C39.2528 30.326 39.2156 30.0181 39.2007 29.6698C39.1861 29.3301 39.1938 28.9863 39.2056 28.7247C39.2114 28.5947 39.2182 28.4865 39.2235 28.4113C39.2261 28.3738 39.2284 28.3445 39.2299 28.325C39.2307 28.3152 39.2313 28.3079 39.2317 28.3032C39.2319 28.3008 39.2321 28.2991 39.2322 28.2981C39.2322 28.2976 39.2322 28.2972 39.2322 28.2971C39.2323 28.297 39.2323 28.2969 39.2323 28.2969C39.2323 28.2969 39.2323 28.297 39.2323 28.297C39.2322 28.297 39.2322 28.297 38.7302 28.2524ZM39.2325 31.6343C39.499 31.6343 39.7273 31.5039 39.9057 31.3578C40.0904 31.2066 40.2776 30.9926 40.4718 30.7232C40.8614 30.1829 41.3324 29.3436 41.9079 28.119L40.9956 27.6903C40.4295 28.895 39.9895 29.6686 39.6542 30.1337C39.486 30.3671 39.3573 30.504 39.267 30.578C39.1704 30.6571 39.1646 30.6263 39.2325 30.6263V31.6343ZM41.9075 28.1198C42.2058 27.488 42.4415 26.8137 42.6005 26.1226L41.6181 25.8967C41.4757 26.516 41.2639 27.1218 40.996 27.6895L41.9075 28.1198ZM42.6002 26.1239C42.8755 24.9408 43.4078 22.7822 44.0291 20.9248C44.3408 19.9928 44.6676 19.1591 44.9867 18.5664C45.1473 18.2682 45.2932 18.0554 45.4177 17.9238C45.5529 17.781 45.5945 17.8045 45.5477 17.8045V16.7965C45.1778 16.7965 44.887 17.0181 44.6856 17.2309C44.4734 17.4551 44.2784 17.7558 44.0992 18.0886C43.7388 18.7579 43.3904 19.6564 43.0731 20.605C42.4364 22.5087 41.8956 24.7047 41.6184 25.8954L42.6002 26.1239ZM45.5477 17.8045C45.54 17.8045 45.5318 17.8037 45.5238 17.802C45.5158 17.8003 45.51 17.7981 45.5066 17.7966C45.5001 17.7938 45.5074 17.7955 45.5278 17.8141L46.2069 17.0692C46.0339 16.9114 45.8129 16.7965 45.5477 16.7965V17.8045ZM45.5248 17.8113C45.5983 17.8794 45.7073 18.0762 45.7768 18.5044C45.8427 18.91 45.8602 19.4373 45.835 20.0575C45.7848 21.2949 45.5688 22.8235 45.2988 24.324C45.0295 25.8206 44.7095 27.2728 44.4565 28.3519C44.3301 28.8911 44.2205 29.3364 44.1427 29.6466C44.1038 29.8017 44.0728 29.9229 44.0516 30.0052C44.041 30.0463 44.0329 30.0777 44.0274 30.0987C44.0247 30.1092 44.0226 30.1171 44.0212 30.1224C44.0205 30.125 44.02 30.1269 44.0197 30.1282C44.0195 30.1288 44.0194 30.1293 44.0193 30.1296C44.0193 30.1297 44.0193 30.1298 44.0193 30.1299C44.0192 30.1299 44.0192 30.1299 44.5066 30.2584C44.994 30.3868 44.994 30.3867 44.994 30.3866C44.994 30.3865 44.9941 30.3863 44.9941 30.3861C44.9942 30.3857 44.9944 30.3852 44.9946 30.3844C44.995 30.3829 44.9955 30.3808 44.9963 30.3779C44.9978 30.3723 45 30.3639 45.0028 30.353C45.0085 30.3311 45.0169 30.2988 45.0278 30.2567C45.0494 30.1725 45.0809 30.0492 45.1204 29.8919C45.1993 29.5774 45.3101 29.127 45.4379 28.582C45.6933 27.4927 46.0174 26.0222 46.2909 24.5025C46.5637 22.9865 46.7892 21.4048 46.8422 20.0983C46.8686 19.4464 46.8531 18.8434 46.7718 18.3428C46.6941 17.8647 46.5417 17.3793 46.2099 17.0719L45.5248 17.8113ZM44.5066 30.2584C44.0168 30.1395 44.0168 30.1396 44.0168 30.1397C44.0167 30.1398 44.0167 30.14 44.0166 30.1403C44.0165 30.1409 44.0163 30.1417 44.016 30.1428C44.0155 30.1451 44.0146 30.1485 44.0135 30.1531C44.0113 30.1622 44.008 30.1759 44.0035 30.194C43.9947 30.2301 43.9815 30.2839 43.9642 30.3542C43.9295 30.4947 43.8784 30.7011 43.8125 30.9638C43.6806 31.4894 43.4896 32.2406 43.2535 33.142C42.781 34.9456 42.1283 37.3484 41.4063 39.7497C40.6833 42.1545 39.895 44.5437 39.1522 46.326C38.7795 47.2202 38.4271 47.94 38.1099 48.4288C37.9506 48.6743 37.8135 48.8405 37.7028 48.9399C37.5847 49.046 37.5519 49.0273 37.5932 49.0273V50.0353C37.9142 50.0353 38.1801 49.8661 38.3764 49.6898C38.58 49.5069 38.7728 49.259 38.9555 48.9775C39.3222 48.4123 39.7022 47.6265 40.0826 46.7138C40.8458 44.8825 41.646 42.4535 42.3716 40.04C43.0983 37.623 43.7544 35.2077 44.2286 33.3975C44.4657 32.4921 44.6576 31.7376 44.7902 31.2092C44.8565 30.9449 44.9079 30.7372 44.9429 30.5954C44.9604 30.5245 44.9737 30.4701 44.9827 30.4333C44.9872 30.415 44.9906 30.401 44.9929 30.3916C44.994 30.3869 44.9949 30.3833 44.9955 30.3809C44.9958 30.3797 44.996 30.3788 44.9962 30.3782C44.9962 30.3779 44.9963 30.3776 44.9963 30.3775C44.9964 30.3773 44.9964 30.3772 44.5066 30.2584ZM37.5932 49.0273C37.6091 49.0273 37.6228 49.0298 37.6328 49.0327C37.6424 49.0355 37.646 49.038 37.6434 49.0365L37.1321 49.9052C37.2655 49.9837 37.4212 50.0353 37.5932 50.0353V49.0273ZM37.6478 49.0391C37.5298 48.968 37.4028 48.8118 37.3088 48.4903C37.2153 48.1707 37.1716 47.7436 37.178 47.2233C37.1908 46.1845 37.4009 44.8847 37.6845 43.5749C37.9669 42.2708 38.3162 40.9835 38.5969 39.9756C38.7364 39.4748 38.8607 39.0368 38.9491 38.7074C38.9934 38.5425 39.0304 38.3983 39.0567 38.2825C39.0785 38.1863 39.1064 38.0557 39.1064 37.9494H38.0984C38.0984 37.9237 38.1 37.9437 38.0737 38.0593C38.0519 38.1555 38.0189 38.2846 37.9756 38.4461C37.8888 38.7695 37.7676 39.1963 37.6259 39.7051C37.3442 40.7164 36.9883 42.0272 36.6994 43.3615C36.4116 44.6902 36.1842 46.0691 36.1701 47.2108C36.163 47.7806 36.2084 48.3191 36.3413 48.7733C36.4736 49.2255 36.7103 49.6511 37.1276 49.9025L37.6478 49.0391ZM39.1064 37.9494C39.1064 37.621 38.9566 37.233 38.741 36.9332C38.5255 36.6334 38.15 36.2963 37.6297 36.2963V37.3043C37.6848 37.3043 37.7957 37.3451 37.9226 37.5217C38.0495 37.6981 38.0984 37.8846 38.0984 37.9494H39.1064ZM37.6297 36.2963C36.9589 36.2963 36.3931 36.8423 35.925 37.7609L36.8231 38.2186C37.2591 37.3631 37.57 37.3043 37.6297 37.3043V36.2963ZM35.925 37.7608C35.3297 38.9285 34.5325 40.8065 33.8893 42.3783C33.5664 43.1672 33.2802 43.884 33.0748 44.4036C32.972 44.6634 32.8895 44.874 32.8325 45.0198C32.804 45.0926 32.782 45.1493 32.767 45.1878C32.7595 45.2071 32.7538 45.2218 32.75 45.2317C32.748 45.2367 32.7466 45.2404 32.7456 45.243C32.7451 45.2443 32.7447 45.2452 32.7445 45.2459C32.7443 45.2462 32.7443 45.2465 32.7442 45.2466C32.7442 45.2467 32.7441 45.2468 32.7441 45.2468C32.7441 45.2469 32.7441 45.2469 33.2141 45.4288C33.6842 45.6106 33.6842 45.6106 33.6842 45.6106C33.6842 45.6105 33.6842 45.6105 33.6842 45.6104C33.6843 45.6103 33.6844 45.6101 33.6845 45.6098C33.6847 45.6092 33.6851 45.6083 33.6855 45.6071C33.6865 45.6046 33.6879 45.601 33.6898 45.5961C33.6935 45.5865 33.6991 45.572 33.7065 45.553C33.7213 45.515 33.7431 45.4589 33.7714 45.3866C33.8279 45.242 33.91 45.0326 34.0122 44.7742C34.2165 44.2573 34.5012 43.5443 34.8221 42.7601C35.4666 41.1856 36.2493 39.3441 36.823 38.2186L35.925 37.7608ZM32.7226 45.3174C32.5961 45.8758 32.1762 46.7414 31.6658 47.4776C31.4135 47.8415 31.1548 48.1506 30.9213 48.3626C30.8047 48.4686 30.7047 48.5406 30.6248 48.5841C30.542 48.6291 30.5068 48.6292 30.5109 48.6292V49.6372C30.9314 49.6372 31.3149 49.3668 31.5989 49.1089C31.9083 48.828 32.2162 48.4529 32.4942 48.052C33.0443 47.2585 33.5399 46.2719 33.7057 45.5401L32.7226 45.3174ZM30.5109 48.6292C30.5749 48.6292 30.5833 48.6873 30.5429 48.6057C30.4872 48.4934 30.4251 48.2512 30.4154 47.8012C30.3963 46.9135 30.582 45.4282 31.1118 43.1066L30.1291 42.8823C29.595 45.2227 29.3857 46.8068 29.4077 47.8229C29.4185 48.3248 29.486 48.7432 29.6398 49.0534C29.8088 49.3945 30.1066 49.6372 30.5109 49.6372V48.6292ZM30.6205 42.9944C31.1082 43.1212 31.1083 43.1212 31.1083 43.1212C31.1083 43.1212 31.1083 43.1211 31.1083 43.121C31.1083 43.1209 31.1084 43.1207 31.1085 43.1204C31.1086 43.1199 31.1088 43.119 31.1091 43.1179C31.1097 43.1156 31.1106 43.1121 31.1118 43.1076C31.1142 43.0985 31.1177 43.0849 31.1223 43.0672C31.1316 43.0317 31.1453 42.9794 31.1628 42.9126C31.1979 42.7789 31.2485 42.587 31.3105 42.3542C31.4344 41.8884 31.6036 41.2596 31.7848 40.6067C31.9661 39.9531 32.1587 39.2782 32.3296 38.7192C32.5059 38.1423 32.6456 37.7351 32.7208 37.5828L31.817 37.1366C31.6981 37.3774 31.5347 37.8712 31.3656 38.4245C31.191 38.9957 30.9957 39.6803 30.8135 40.3372C30.6311 40.9946 30.4609 41.6271 30.3364 42.095C30.2741 42.329 30.2232 42.522 30.1879 42.6566C30.1702 42.7238 30.1564 42.7765 30.1471 42.8124C30.1424 42.8304 30.1388 42.8441 30.1364 42.8534C30.1352 42.8581 30.1342 42.8616 30.1336 42.864C30.1333 42.8652 30.1331 42.8661 30.1329 42.8667C30.1328 42.867 30.1328 42.8672 30.1327 42.8674C30.1327 42.8675 30.1327 42.8675 30.1327 42.8676C30.1327 42.8676 30.1327 42.8676 30.6205 42.9944ZM32.72 37.5845C32.9315 37.1602 32.793 36.6665 32.5718 36.3376C32.3333 35.983 31.9118 35.6764 31.3602 35.6764V36.6844C31.5118 36.6844 31.6451 36.7658 31.7354 36.9001C31.7802 36.9668 31.8046 37.0337 31.813 37.0854C31.8217 37.1398 31.8095 37.1516 31.8178 37.1349L32.72 37.5845ZM31.3602 35.6764C30.84 35.6764 30.3158 35.9488 29.8225 36.4819C29.3299 37.0141 28.8316 37.8421 28.3444 39.0571L29.28 39.4322C29.7426 38.2785 30.1849 37.5743 30.5623 37.1665C30.9388 36.7597 31.2138 36.6844 31.3602 36.6844V35.6764ZM28.3442 39.0577C27.3718 41.4913 26.7044 43.1448 26.2801 44.1896C26.068 44.712 25.9167 45.0822 25.8185 45.3216C25.7693 45.4413 25.7335 45.5283 25.71 45.5853C25.6982 45.6138 25.6896 45.6348 25.6838 45.6487C25.681 45.6556 25.6789 45.6607 25.6775 45.6641C25.6768 45.6657 25.6762 45.667 25.6759 45.6678C25.6757 45.6682 25.6756 45.6685 25.6755 45.6687C25.6755 45.6688 25.6755 45.6689 25.6755 45.6689C25.6754 45.6689 25.6754 45.6689 25.6754 45.669C25.6754 45.669 25.6754 45.669 26.1409 45.8622C26.6064 46.0554 26.6064 46.0554 26.6064 46.0554C26.6064 46.0554 26.6064 46.0554 26.6064 46.0553C26.6065 46.0553 26.6065 46.0552 26.6066 46.0551C26.6067 46.0548 26.6068 46.0545 26.607 46.054C26.6074 46.0531 26.6079 46.0518 26.6086 46.05C26.6101 46.0465 26.6123 46.0412 26.6152 46.0341C26.6211 46.0199 26.6299 45.9986 26.6418 45.9698C26.6656 45.9121 26.7017 45.8245 26.751 45.7041C26.8498 45.4635 27.0015 45.0922 27.2141 44.5688C27.6391 43.522 28.3073 41.8667 29.2802 39.4317L28.3442 39.0577ZM25.6773 45.6644C25.4765 46.1351 25.1504 46.6581 24.8073 47.0568C24.6359 47.2561 24.4722 47.4104 24.3307 47.5107C24.2606 47.5604 24.2036 47.5914 24.1607 47.6091C24.1172 47.6269 24.0999 47.6262 24.1043 47.6262V48.6342C24.4138 48.6342 24.6956 48.4877 24.9138 48.3329C25.1432 48.1702 25.3667 47.9522 25.5715 47.7142C25.9807 47.2385 26.3624 46.6275 26.6045 46.06L25.6773 45.6644ZM24.1043 47.6262C24.1168 47.6262 24.1434 47.6318 24.1656 47.6483C24.1824 47.6607 24.1687 47.659 24.1441 47.6031C24.0894 47.4792 24.0349 47.2131 24.0482 46.7213C24.0745 45.7519 24.355 44.1233 25.0693 41.5571L24.0983 41.2868C23.3788 43.8715 23.0703 45.5971 23.0406 46.694C23.0259 47.2355 23.0767 47.6806 23.2217 48.0096C23.2969 48.1803 23.4066 48.3404 23.5655 48.4582C23.7298 48.5799 23.9172 48.6342 24.1043 48.6342V47.6262ZM25.0693 41.5572C27.1374 34.1349 28.822 28.2444 29.0594 27.4131L28.0901 27.1363C27.8526 27.9681 26.1673 33.8611 24.0983 41.2867L25.0693 41.5572ZM29.0627 27.401C29.075 27.3535 29.1021 27.2599 29.1197 27.1691L28.1302 26.977C28.1205 27.0273 28.1111 27.0547 28.0868 27.1484L29.0627 27.401ZM29.1158 27.1875C29.2361 26.6713 29.8244 24.1862 30.604 21.8351C30.9948 20.6564 31.4265 19.5339 31.8626 18.7141C32.0817 18.3022 32.2892 17.9912 32.4768 17.7901C32.676 17.5766 32.7807 17.5626 32.794 17.5626V16.5546C32.3576 16.5546 32.0022 16.8211 31.7397 17.1025C31.4657 17.3963 31.2099 17.7948 30.9727 18.2407C30.4962 19.1363 30.0435 20.3228 29.6472 21.5179C28.8525 23.9145 28.2558 26.4366 28.1341 26.9587L29.1158 27.1875ZM32.794 17.5626C32.7978 17.5626 32.8064 17.5626 32.8259 17.5731C32.8485 17.5852 32.8899 17.6142 32.9463 17.6797L33.7103 17.0221C33.4736 16.7472 33.167 16.5546 32.794 16.5546V17.5626ZM32.9455 17.6788C33.8167 18.6956 34.0629 19.9719 33.9438 21.6129C33.8234 23.2722 33.3399 25.2006 32.8361 27.4836L33.8204 27.7008C34.3121 25.473 34.8218 23.4399 34.9491 21.6859C35.0778 19.9136 34.8262 18.3246 33.711 17.023L32.9455 17.6788ZM32.836 27.4843C32.6487 28.3391 32.5846 28.9648 32.6433 29.3991C32.6729 29.6177 32.7404 29.8437 32.8918 30.0223C33.0608 30.2218 33.2887 30.3088 33.5155 30.3088V29.3008C33.5551 29.3008 33.6198 29.3222 33.6608 29.3706C33.6841 29.3982 33.6589 29.3876 33.6422 29.2641C33.6085 29.0143 33.638 28.5337 33.8206 27.7001L32.836 27.4843ZM33.5155 30.3088C33.7082 30.3088 33.885 30.2479 34.0269 30.1798C34.173 30.1097 34.3137 30.0166 34.443 29.9176L33.8301 29.1173C33.7356 29.1897 33.6549 29.2403 33.5908 29.271C33.5228 29.3037 33.5008 29.3008 33.5155 29.3008V30.3088ZM34.4388 29.9207C35.2772 29.2922 35.8244 28.3336 36.0697 27.306L35.0892 27.072C34.887 27.9192 34.4479 28.6541 33.8342 29.1142L34.4388 29.9207ZM36.0696 27.3066C36.3953 25.9489 36.9845 23.5989 37.644 21.5101C37.9743 20.4641 38.318 19.497 38.6507 18.7566C38.8174 18.3858 38.9756 18.0847 39.1213 17.8633C39.2766 17.6274 39.3812 17.5389 39.4202 17.518L38.9444 16.6294C38.6751 16.7736 38.4564 17.04 38.2792 17.3093C38.0925 17.5931 37.9092 17.9476 37.7313 18.3434C37.375 19.1364 37.0175 20.1465 36.6828 21.2066C36.0124 23.3299 35.4166 25.7075 35.0894 27.0714L36.0696 27.3066ZM39.4258 17.515C39.4594 17.4964 39.4828 17.4875 39.4958 17.4836C39.509 17.4796 39.5073 17.482 39.4928 17.482V16.474C39.2939 16.474 39.1043 16.5411 38.9388 16.6325L39.4258 17.515ZM39.4928 14.71C39.065 14.71 38.6459 14.827 38.2452 15.0421L38.7221 15.9302C38.9972 15.7824 39.2539 15.718 39.4928 15.718V14.71ZM38.2473 15.041C37.9611 15.193 37.5756 15.407 37.11 16.0668C36.6645 16.6983 36.1484 17.7322 35.5325 19.5093L36.4849 19.8394C37.0882 18.0986 37.5675 17.1669 37.9337 16.648C38.2798 16.1575 38.5222 16.0363 38.72 15.9312L38.2473 15.041ZM36.5091 19.6144C36.3436 18.2337 35.8573 16.952 34.8705 15.8029L34.1058 16.4596C34.9455 17.4374 35.3633 18.5245 35.5083 19.7343L36.5091 19.6144ZM34.8714 15.804C34.1627 14.974 33.3601 14.7805 32.794 14.7805V15.7885C33.1139 15.7885 33.6172 15.8874 34.1048 16.4585L34.8714 15.804ZM32.794 14.7805C31.7764 14.7805 30.9395 15.328 30.21 16.3391C29.4914 17.3351 28.8305 18.8398 28.1466 20.9017L29.1034 21.219C29.7802 19.1783 30.4025 17.7951 31.0275 16.9289C31.6416 16.0777 32.2089 15.7885 32.794 15.7885V14.7805ZM28.1466 20.9017C27.3217 23.389 26.7011 26.013 26.586 26.511L27.5681 26.738C27.6813 26.2482 28.2935 23.6608 29.1034 21.219L28.1466 20.9017ZM26.5891 26.4982C26.5845 26.5159 26.58 26.5335 26.5754 26.5511C26.5708 26.5688 26.5663 26.5864 26.5617 26.6041L27.5375 26.8567C27.5421 26.839 27.5467 26.8214 27.5512 26.8037C27.5558 26.7861 27.5604 26.7685 27.5649 26.7508L26.5891 26.4982ZM26.5653 26.5909C26.2543 27.6711 24.6101 33.4382 22.5686 40.7574L23.5396 41.0282C25.5804 33.7112 27.2239 27.9468 27.5339 26.8698L26.5653 26.5909ZM22.5685 40.7577C21.8349 43.3945 21.4983 45.195 21.4421 46.4841C21.3853 47.7873 21.6134 48.6088 22.0419 49.2476L22.879 48.6861C22.6043 48.2766 22.3986 47.6868 22.4491 46.528C22.5003 45.3551 22.8121 43.6427 23.5396 41.0279L22.5685 40.7577ZM22.0421 49.2479C22.5202 49.9597 23.2693 50.3881 24.1043 50.3881V49.3801C23.6334 49.3801 23.1861 49.1433 22.8788 48.6858L22.0421 49.2479ZM24.1043 50.3881C25.1455 50.3881 26.0213 49.7165 26.6559 49.0041C27.3038 48.2769 27.7906 47.4076 28.0513 46.8025L27.1256 46.4037C26.8977 46.9325 26.4643 47.7038 25.9033 48.3336C25.329 48.9782 24.7071 49.3801 24.1043 49.3801V50.3881ZM28.0534 46.7975C28.0821 46.729 28.4484 45.8393 29.3432 43.6324L28.4091 43.2536C27.5138 45.4617 27.1496 46.3461 27.1234 46.4086L28.0534 46.7975ZM28.383 43.3389C27.5081 47.4833 27.6956 49.1874 28.4828 50.301L29.306 49.7192C28.7964 48.9983 28.4907 47.7086 29.3693 43.5471L28.383 43.3389ZM28.4819 50.2997C28.9618 50.9834 29.7045 51.3911 30.5109 51.3911V50.3831C30.057 50.3831 29.6124 50.1557 29.3069 49.7206L28.4819 50.2997ZM30.5109 51.3911C31.1496 51.3911 31.7372 51.1265 32.2453 50.7536C32.7542 50.3801 33.2134 49.8764 33.6081 49.3398C34.3945 48.2709 34.9801 46.9952 35.212 46.1403L34.2391 45.8764C34.0418 46.6041 33.5132 47.7677 32.7962 48.7425C32.4392 49.2278 32.0493 49.6471 31.6488 49.941C31.2475 50.2356 30.8653 50.3831 30.5109 50.3831V51.3911ZM35.1945 46.1931C35.286 45.9608 35.5231 45.357 35.8332 44.5767L34.8965 44.2044C34.5856 44.9865 34.3478 45.5922 34.2566 45.8236L35.1945 46.1931ZM34.8685 44.3032C34.5913 45.8789 34.4708 47.3409 34.6535 48.5584C34.8376 49.7851 35.3411 50.8241 36.36 51.4395L36.8811 50.5766C36.2059 50.1688 35.8076 49.4564 35.6504 48.4088C35.4918 47.3521 35.5905 46.0169 35.8612 44.4778L34.8685 44.3032ZM36.3577 51.4381C36.7351 51.6688 37.1597 51.7842 37.5886 51.7842V50.7762C37.3418 50.7762 37.0997 50.7102 36.8835 50.578L36.3577 51.4381ZM37.5886 51.7842C38.1039 51.7842 38.6095 51.6449 39.1098 51.2715C39.5949 50.9095 40.0537 50.3434 40.5228 49.5273C41.4581 47.9003 42.5118 45.1388 43.8842 40.5794L42.9189 40.2889C41.547 44.8468 40.5207 47.5084 39.6489 49.025C39.2144 49.7808 38.8379 50.2167 38.5069 50.4637C38.1911 50.6994 37.8999 50.7762 37.5886 50.7762V51.7842ZM43.8842 40.5793C45.29 35.9041 46.4478 31.1763 46.5306 30.8362L45.5512 30.5978C45.4696 30.9331 44.3168 35.6401 42.9189 40.289L43.8842 40.5793ZM46.5276 30.8477C46.6027 30.5682 47.3189 27.8163 47.8521 24.8333L46.8598 24.6559C46.3336 27.5999 45.6252 30.3214 45.5541 30.5863L46.5276 30.8477ZM47.852 24.8341C48.4141 21.719 48.5328 19.7052 48.3808 18.3458C48.2257 16.9583 47.7845 16.2243 47.2335 15.7118L46.547 16.4499C46.8955 16.774 47.2465 17.2723 47.3791 18.4578C47.5148 19.6713 47.4166 21.571 46.86 24.6551L47.852 24.8341ZM47.2323 15.7107C46.7559 15.2704 46.1708 15.0224 45.5432 15.0224V16.0304C45.8927 16.0304 46.2392 16.1655 46.5482 16.451L47.2323 15.7107ZM45.5432 15.0224C44.5018 15.0224 43.7248 15.6292 43.1188 16.5095C42.5197 17.3799 42.0324 18.5927 41.5674 19.9832L42.5233 20.3029C42.9853 18.9215 43.4364 17.826 43.9491 17.081C44.4551 16.346 44.9634 16.0304 45.5432 16.0304V15.0224ZM41.5676 19.9826C41.1696 21.1677 40.8099 22.4558 40.5295 23.5568L41.5063 23.8056C41.783 22.7192 42.1357 21.457 42.5231 20.3035L41.5676 19.9826ZM41.5167 23.7538C41.8695 21.3318 42.0831 19.6504 42.0961 18.4317C42.1092 17.2033 41.921 16.3594 41.3951 15.6734L40.5951 16.2867C40.9231 16.7145 41.1002 17.2919 41.0882 18.421C41.0761 19.5597 40.8742 21.1719 40.5192 23.6085L41.5167 23.7538ZM41.395 15.6732C40.928 15.0647 40.2549 14.71 39.5019 14.71V15.718C39.9179 15.718 40.3042 15.9076 40.5953 16.2869L41.395 15.6732ZM39.5019 14.71H39.4928V15.718H39.5019V14.71Z"
    fill="#5B9F8F" mask="url(#path-3-inside-1_1726_17518)" />
  <rect x="1.9375" y="1.24707" width="66" height="64" rx="11" stroke="#5B9F8F" stroke-width="2" />
  <path fill="#5B9F8F" stroke="#5B9F8F" stroke-width="0" opacity="0.9882352941176471"
    d="M 36.028 35.681 C 36.103 35.96 36.137 36.206 36.063 36.56 C 36.061 36.57 36.059 36.58 36.056 36.59 C 36.291 36.431 36.519 36.286 36.69 36.19 C 36.996 36.019 37.176 35.919 37.463 35.874 C 37.779 35.825 38.191 35.829 38.518 35.944 C 38.855 36.063 39.227 36.341 39.45 36.595 C 39.649 36.823 39.766 37.094 39.836 37.368 C 39.907 37.644 39.92 37.969 39.872 38.247 C 39.824 38.519 39.691 38.806 39.555 39.021 C 39.433 39.214 39.348 39.302 39.116 39.495 C 38.736 39.811 37.684 40.525 37.288 40.726 C 37.073 40.834 37.01 40.841 36.831 40.866 C 36.613 40.897 36.335 40.942 36.057 40.866 C 35.801 40.797 35.453 40.627 35.183 40.439 C 35.172 40.458 35.161 40.478 35.149 40.497 C 34.976 40.782 34.712 41.059 34.463 41.253 C 34.365 41.329 34.264 41.397 34.16 41.456 C 34.155 41.512 34.149 41.567 34.141 41.622 C 34.105 41.866 34.011 42.115 33.895 42.325 C 33.781 42.53 33.673 42.658 33.456 42.87 C 33.138 43.18 32.394 43.794 32.049 43.995 C 31.839 44.118 31.747 44.135 31.557 44.171 C 31.335 44.213 31.039 44.24 30.784 44.206 C 30.523 44.172 30.241 44.091 30.01 43.96 C 29.778 43.828 29.556 43.629 29.395 43.415 C 29.234 43.201 29.107 42.932 29.043 42.677 C 28.981 42.428 28.977 42.148 29.008 41.903 C 29.039 41.669 29.105 41.444 29.219 41.235 C 29.34 41.015 29.493 40.846 29.729 40.62 C 30.044 40.318 30.655 39.818 31.03 39.601 C 31.035 39.598 31.04 39.595 31.045 39.592 C 31 39.2 30.997 38.746 31.047 38.319 C 30.726 38.279 30.383 38.195 30.069 38.054 C 29.685 37.88 29.228 37.577 28.961 37.298 C 28.734 37.06 28.604 36.79 28.504 36.524 C 28.41 36.273 28.361 35.885 28.364 35.751 C 28.365 35.69 28.392 35.693 28.399 35.646 C 28.409 35.577 28.38 35.501 28.399 35.364 C 28.433 35.123 28.506 34.595 28.68 34.239 C 28.865 33.86 29.194 33.491 29.506 33.167 C 29.741 32.923 29.987 32.707 30.268 32.497 C 30.223 32.331 30.202 32.168 30.18 31.989 C 30.142 31.678 30.124 31.346 30.18 31.005 C 30.242 30.633 30.364 30.223 30.567 29.845 C 30.789 29.431 31.167 28.96 31.498 28.632 C 31.798 28.336 32.083 28.113 32.448 27.929 C 32.838 27.731 33.311 27.579 33.784 27.507 C 34.194 27.444 34.681 27.438 35.106 27.477 C 35.112 27.431 35.118 27.381 35.125 27.321 C 35.169 26.962 35.223 26.292 35.372 25.915 C 35.456 25.698 35.551 25.52 35.68 25.363 C 35.584 25.287 35.504 25.201 35.442 25.103 C 35.278 24.842 35.228 24.389 35.288 24.101 C 35.343 23.839 35.516 23.584 35.731 23.428 C 35.795 23.382 35.866 23.344 35.943 23.312 C 35.947 23.297 35.951 23.282 35.956 23.267 C 36.041 23.002 36.379 22.516 36.552 22.362 C 36.658 22.269 36.769 22.328 36.841 22.247 C 36.929 22.149 36.999 21.915 36.995 21.766 C 36.991 21.628 36.87 21.538 36.841 21.381 C 36.805 21.183 36.75 20.948 36.841 20.649 C 36.978 20.202 37.455 19.336 37.862 18.936 C 37.994 18.805 38.151 18.693 38.311 18.598 C 38.207 18.408 38.135 18.148 38.125 17.954 C 38.113 17.736 38.189 17.517 38.279 17.338 C 38.365 17.166 38.51 16.995 38.644 16.895 C 38.763 16.807 38.895 16.767 39.03 16.741 C 39.165 16.715 39.305 16.699 39.453 16.741 C 39.629 16.791 39.874 16.906 40.011 17.068 C 40.156 17.24 40.289 17.5 40.281 17.761 C 40.275 17.952 40.179 18.229 40.063 18.462 C 40.139 18.514 40.21 18.576 40.268 18.647 C 40.442 18.859 40.58 19.311 40.615 19.532 C 40.638 19.681 40.604 19.739 40.576 19.879 C 40.539 20.066 40.48 20.366 40.384 20.572 C 40.291 20.768 40.101 21.008 40.018 21.092 C 39.976 21.133 39.947 21.107 39.922 21.15 C 39.877 21.222 39.805 21.428 39.845 21.573 C 39.892 21.748 40.19 21.904 40.268 22.112 C 40.348 22.326 40.384 22.598 40.307 22.844 C 40.217 23.13 39.91 23.537 39.671 23.71 C 39.609 23.755 39.54 23.781 39.469 23.799 C 39.569 23.875 39.654 23.946 39.716 24.005 C 39.87 24.151 39.901 24.252 39.947 24.41 C 39.999 24.586 40.046 24.823 39.986 25.026 C 39.918 25.254 39.738 25.559 39.504 25.699 C 39.413 25.754 39.273 25.787 39.125 25.809 C 39.172 25.913 39.21 26.02 39.239 26.126 C 39.322 26.432 39.291 26.824 39.274 27.11 C 39.259 27.351 39.164 27.529 39.169 27.743 C 39.173 27.962 39.284 28.155 39.309 28.411 C 39.339 28.716 39.367 29.141 39.309 29.466 C 39.264 29.718 39.172 29.974 39.064 30.183 C 39.259 30.319 39.509 30.402 39.672 30.583 C 39.884 30.817 40.07 31.14 40.165 31.462 C 40.262 31.794 40.291 32.193 40.235 32.552 C 40.178 32.92 40.004 33.323 39.813 33.642 C 39.63 33.946 39.441 34.174 39.127 34.433 C 38.734 34.757 37.975 35.193 37.545 35.382 C 37.238 35.517 37.096 35.549 36.772 35.593 C 36.578 35.619 36.29 35.605 36.002 35.592 C 36.011 35.622 36.02 35.652 36.028 35.681 Z"
    style="fill: rgb(91, 159, 143); fill-opacity: 1; fill-rule: nonzero; stroke: rgb(91, 159, 143); stroke-dasharray: none; stroke-dashoffset: 0px; stroke-linecap: butt; stroke-linejoin: miter; stroke-miterlimit: 4; stroke-opacity: 1; stroke-width: 0.504px; paint-order: normal; vector-effect: none; opacity: 1; mix-blend-mode: normal; isolation: auto;" />
</svg>