<svg width="69" height="67" viewBox="0 0 69 67" fill="none" xmlns="http://www.w3.org/2000/svg">
<rect x="1.4375" y="0.74707" width="67" height="65" rx="11.5" fill="#5B9F8F"/>
<path d="M40.141 18.1649C42.1004 19.4771 43.2243 21.7249 43.2184 24.0844C43.2066 28.3976 42.5535 37.9183 37.4342 42.9552C34.5686 45.7679 31.3793 45.9974 28.649 45.3266C23.6651 44.0968 20.6229 39.0069 21.8468 34.0229C22.3117 32.1282 23.2061 29.9922 24.7889 27.7386C29.6611 20.8069 27.0014 19.836 30.4143 17.6C33.4623 15.5994 37.4165 16.3349 40.141 18.1649Z" stroke="#FEFFF4" stroke-width="2" stroke-linecap="round" stroke-linejoin="round"/>
<path d="M47.1253 37.1476C47.8902 37.1711 49.7379 44.6677 46.225 48.5866C45.919 48.9279 44.6245 50.3695 43.5889 50.04C42.5297 49.7046 42.0472 47.6216 42.4767 46.021C42.8592 44.5971 43.7654 44.3205 44.901 42.8318C47.1076 39.9426 46.6487 37.13 47.1194 37.1476H47.1253Z" stroke="#FEFFF4" stroke-width="2" stroke-linecap="round" stroke-linejoin="round"/>
<rect x="1.4375" y="0.74707" width="67" height="65" rx="11.5" stroke="#5B9F8F"/>
</svg>
