<?xml version="1.0" encoding="utf-8"?>
<svg viewBox="0 0 89 87" width="89" height="87" fill="none" xmlns="http://www.w3.org/2000/svg">
  <defs>
    <filter id="filter0_d_1726_17522" x="0.9375" y="0.24707" width="88" height="86"
      filterUnits="userSpaceOnUse" color-interpolation-filters="sRGB">
      <feFlood flood-opacity="0" result="BackgroundImageFix" />
      <feColorMatrix in="SourceAlpha" type="matrix"
        values="0 0 0 0 0 0 0 0 0 0 0 0 0 0 0 0 0 0 127 0" result="hardAlpha" />
      <feMorphology radius="4" operator="dilate" in="SourceAlpha"
        result="effect1_dropShadow_1726_17522" />
      <feOffset />
      <feGaussianBlur stdDeviation="3" />
      <feComposite in2="hardAlpha" operator="out" />
      <feColorMatrix type="matrix"
        values="0 0 0 0 0.356863 0 0 0 0 0.623529 0 0 0 0 0.560784 0 0 0 0.5 0" />
      <feBlend mode="normal" in2="BackgroundImageFix" result="effect1_dropShadow_1726_17522" />
      <feBlend mode="normal" in="SourceGraphic" in2="effect1_dropShadow_1726_17522" result="shape" />
    </filter>
  </defs>
  <g filter="url(#filter0_d_1726_17522)">
    <rect x="10.9375" y="10.2471" width="68" height="66" rx="12" fill="#5B9F8F" />
    <path
      d="M40.0932 52.8372C39.5542 55.2125 39.3663 56.7059 39.3652 57.6767C39.3641 58.6421 39.5477 59.0678 39.734 59.3296L39.7355 59.3318C39.9345 59.6177 40.2117 59.763 40.515 59.763C40.7988 59.763 41.1224 59.6167 41.4697 59.3326C41.8132 59.0515 42.1536 58.6568 42.4659 58.2126C43.0925 57.3211 43.5747 56.2752 43.7321 55.6586L43.7359 55.6439L43.7414 55.6297C43.9587 55.0699 45.7719 50.4248 46.8475 48.314M40.0932 52.8372L50.9623 37.6089C51.2306 37.0425 51.4326 36.4511 51.5734 35.8503L51.5735 35.8499C52.6639 31.1664 53.5588 28.8559 54.2421 27.7201C54.5825 27.1542 54.8586 26.9002 55.0611 26.7829C55.2546 26.671 55.4017 26.6704 55.5427 26.6704C55.7725 26.6704 56.0008 26.7615 56.2072 26.9511C56.3892 27.1204 56.5396 27.3906 56.6506 27.7675C56.7612 28.1428 56.8274 28.6054 56.8542 29.1381C56.9079 30.2036 56.8028 31.5153 56.61 32.8971C56.2245 35.6585 55.4946 38.6572 55.0251 40.4358L55.0252 40.4358C55.0202 40.4554 55.0077 40.5059 54.9883 40.584C54.9521 40.7302 54.8919 40.9728 54.8125 41.2885C54.6785 41.8215 54.4856 42.5792 54.2481 43.4855C53.7731 45.2982 53.1198 47.7042 52.4018 50.0943C50.9822 54.8176 49.9649 57.354 49.192 58.7062C48.8057 59.382 48.491 59.7427 48.2341 59.9351C47.9881 60.1193 47.786 60.1561 47.5928 60.1561H47.4946C47.3702 60.1426 47.2501 60.1016 47.1345 60.0314L47.1336 60.0309C46.6904 59.7643 46.4006 59.2939 46.248 58.62C46.0948 57.9436 46.0864 57.0878 46.1876 56.0981C46.39 54.1192 47.0221 51.6757 47.7122 49.2065C47.8435 48.7367 47.9922 48.1987 48.0398 47.9835L48.0556 47.912L48.0306 47.8432C48.0065 47.7767 47.9623 47.7007 47.92 47.641C47.8977 47.6095 47.8713 47.576 47.8422 47.5458C47.8181 47.5208 47.7723 47.4768 47.7095 47.4502L47.3591 47.3014V47.5649M40.0932 52.8372C40.3079 52.0129 41.2823 48.3097 41.726 47.2066L41.791 47.045L41.6628 46.9271C41.618 46.8859 41.5176 46.8052 41.3643 46.8052C41.2206 46.8052 41.0709 46.8668 40.928 46.9625C40.781 47.061 40.621 47.2089 40.4518 47.4141C40.1137 47.8244 39.723 48.4836 39.3175 49.4988M40.0932 52.8372L39.3175 49.4988M46.8475 48.314C46.8476 48.3139 46.8476 48.3137 46.8477 48.3136L47.0719 48.4279L46.8474 48.3142C46.8475 48.3141 46.8475 48.3141 46.8475 48.314ZM46.8475 48.314C47.0172 47.979 47.1636 47.7757 47.2755 47.6508C47.3063 47.6163 47.3343 47.5881 47.3591 47.5649M47.3591 47.5649V47.6821C47.3591 47.5884 47.4112 47.5285 47.4169 47.522L47.4173 47.5215C47.4304 47.5059 47.4423 47.4958 47.4448 47.4936C47.451 47.4883 47.4559 47.4848 47.4509 47.4886C47.445 47.4929 47.4312 47.5031 47.4139 47.5171C47.3979 47.53 47.3795 47.5458 47.3591 47.5649ZM39.3175 49.4988C38.3542 51.9075 37.6865 53.5602 37.2592 54.6124C37.0455 55.1386 36.8919 55.5146 36.7915 55.7601L36.6797 56.0328L36.6519 56.1008L36.6444 56.1193L36.642 56.1253C36.4201 56.6454 36.0302 57.3154 35.5615 57.8514C35.0802 58.4018 34.5697 58.75 34.1131 58.75C33.8037 58.75 33.5223 58.5976 33.3221 58.3018C33.1456 58.0393 32.9645 57.5852 33.0143 56.5304C33.0643 55.4709 33.3462 53.8314 34.0727 51.2223C36.0132 44.2678 37.6203 38.6337 38.0677 37.0718L38.0677 37.0718L38.0686 37.0685L38.0892 36.9929L38.1097 36.9173L38.1099 36.9173L38.1121 36.9077C38.926 33.375 39.7444 30.7276 40.5577 28.9685C40.9647 28.0881 41.3641 27.4443 41.7507 27.0242C42.1382 26.6032 42.4872 26.4335 42.7982 26.4335C43.0199 26.4335 43.3718 26.5077 43.721 26.915L43.7211 26.9151C44.7303 28.0913 45.067 29.4688 45.0303 31.0866C44.9933 32.7149 44.5792 34.5603 44.105 36.659L39.3175 49.4988ZM44.2166 55.7983C44.4599 55.1721 46.2435 50.6091 47.2968 48.5425L47.297 48.5419C47.3511 48.4351 47.4014 48.3455 47.4471 48.2705L44.2166 55.7983ZM45.0571 37.0305C46.2271 32.147 47.1254 29.5521 47.7767 28.1553C48.102 27.4575 48.3613 27.0684 48.5549 26.8444C48.7387 26.6317 48.8661 26.5637 48.9536 26.5171L48.9574 26.5151C48.9575 26.515 48.9576 26.515 48.9576 26.5149L45.0571 37.0305Z"
      fill="#FEFFF4" stroke="#FEFFF4" stroke-width="0.504" />
    <mask id="path-4-inside-1_1726_17522" fill="white">
      <path
        d="M49.5019 26.9931C50.5887 26.9931 49.6891 31.5089 48.7302 38.2524C48.7302 38.2524 48.4745 41.1303 49.2325 41.1303C49.6298 41.1303 50.3102 40.334 51.4517 37.9047C51.7349 37.3049 51.9586 36.6648 52.1093 36.0096C52.6618 33.6358 54.2555 27.3005 55.5477 27.3005C55.6573 27.3005 55.7623 27.3459 55.8674 27.4416C57.4884 28.9436 54.5066 40.2584 54.5066 40.2584C54.5066 40.2584 49.8307 59.5313 47.5932 59.5313C47.5247 59.5313 47.4562 59.5112 47.3877 59.4708C45.2461 58.1806 48.6024 48.5945 48.6024 47.9494C48.6024 47.5563 48.2051 46.8003 47.6297 46.8003C47.2644 46.8003 46.8261 47.1027 46.374 47.9897C45.205 50.2829 43.2141 55.4288 43.2141 55.4288C42.9219 56.719 41.383 59.1332 40.5109 59.1332C39.8305 59.1332 39.5565 57.6564 40.6205 52.9944C40.6205 52.9944 41.8808 48.146 42.2689 47.3597C42.4698 46.9565 42.0634 46.1804 41.3602 46.1804C40.6935 46.1804 39.762 46.8759 38.8122 49.2447C36.867 54.1133 36.1409 55.8622 36.1409 55.8622C35.698 56.9004 34.7254 58.1302 34.1043 58.1302C33.4057 58.1302 33.15 56.5728 34.5838 51.422C36.6523 43.998 38.3373 38.1063 38.5748 37.2747C38.593 37.2041 38.6113 37.1436 38.625 37.0731C38.867 36.0348 40.9949 27.0586 42.794 27.0586C42.9767 27.0586 43.1548 27.1493 43.3283 27.3509C45.3146 29.6693 44.3237 33.0814 43.3283 37.5922C42.9584 39.2806 43.1411 39.8048 43.5155 39.8048C43.6936 39.8048 43.9128 39.6888 44.1365 39.5175C44.8626 38.9732 45.3557 38.1264 45.5795 37.189C46.2325 34.4674 47.9494 27.734 49.1823 27.0737C49.301 27.0082 49.406 26.978 49.4928 26.978M49.4928 25.214C49.1595 25.214 48.8215 25.3047 48.4836 25.4861C47.9996 25.7432 47.2279 26.1564 46.0087 29.6744C45.8534 28.3791 45.4014 27.1947 44.4881 26.1312C43.8899 25.4307 43.237 25.2845 42.794 25.2845C41.1912 25.2845 39.9857 26.9578 38.625 31.0604C37.8076 33.5249 37.1912 36.1306 37.077 36.6245C37.0679 36.6598 37.0587 36.6951 37.0496 36.7304C36.7391 37.8089 35.0952 43.5747 33.0541 50.8928C31.5929 56.1444 31.7573 57.9185 32.4605 58.9668C32.8532 59.5515 33.4514 59.8841 34.1043 59.8841C35.7482 59.8841 37.0998 57.7371 37.5884 56.6031C37.6158 56.5376 37.9811 55.6505 38.8761 53.443C37.9994 57.596 38.246 59.0928 38.8944 60.0101C39.2871 60.5696 39.8807 60.8871 40.5109 60.8871C42.4972 60.8871 44.2963 57.5909 44.7256 56.0084C44.8169 55.7765 45.0543 55.1717 45.3649 54.3905C44.8169 57.5052 44.9265 59.9849 46.6206 61.008C46.9174 61.1895 47.2507 61.2802 47.5886 61.2802C49.2416 61.2802 50.6572 59.5515 53.4016 50.4341C54.8034 45.7721 55.9587 41.0547 56.0409 40.717C56.1139 40.4448 56.8263 37.7081 57.356 34.7446C58.4747 28.5454 57.7898 26.9175 56.8902 26.0808C56.4975 25.718 56.0317 25.5264 55.5432 25.5264C53.9221 25.5264 52.9723 27.3711 52.0454 30.1431C51.6527 31.3124 51.2965 32.5875 51.0179 33.6812C51.7257 28.8226 51.849 27.0939 50.9951 25.98C50.6161 25.4861 50.0864 25.214 49.5019 25.214H49.4928Z" />
    </mask>
    <path
      d="M49.5019 26.9931C50.5887 26.9931 49.6891 31.5089 48.7302 38.2524C48.7302 38.2524 48.4745 41.1303 49.2325 41.1303C49.6298 41.1303 50.3102 40.334 51.4517 37.9047C51.7349 37.3049 51.9586 36.6648 52.1093 36.0096C52.6618 33.6358 54.2555 27.3005 55.5477 27.3005C55.6573 27.3005 55.7623 27.3459 55.8674 27.4416C57.4884 28.9436 54.5066 40.2584 54.5066 40.2584C54.5066 40.2584 49.8307 59.5313 47.5932 59.5313C47.5247 59.5313 47.4562 59.5112 47.3877 59.4708C45.2461 58.1806 48.6024 48.5945 48.6024 47.9494C48.6024 47.5563 48.2051 46.8003 47.6297 46.8003C47.2644 46.8003 46.8261 47.1027 46.374 47.9897C45.205 50.2829 43.2141 55.4288 43.2141 55.4288C42.9219 56.719 41.383 59.1332 40.5109 59.1332C39.8305 59.1332 39.5565 57.6564 40.6205 52.9944C40.6205 52.9944 41.8808 48.146 42.2689 47.3597C42.4698 46.9565 42.0634 46.1804 41.3602 46.1804C40.6935 46.1804 39.762 46.8759 38.8122 49.2447C36.867 54.1133 36.1409 55.8622 36.1409 55.8622C35.698 56.9004 34.7254 58.1302 34.1043 58.1302C33.4057 58.1302 33.15 56.5728 34.5838 51.422C36.6523 43.998 38.3373 38.1063 38.5748 37.2747C38.593 37.2041 38.6113 37.1436 38.625 37.0731C38.867 36.0348 40.9949 27.0586 42.794 27.0586C42.9767 27.0586 43.1548 27.1493 43.3283 27.3509C45.3146 29.6693 44.3237 33.0814 43.3283 37.5922C42.9584 39.2806 43.1411 39.8048 43.5155 39.8048C43.6936 39.8048 43.9128 39.6888 44.1365 39.5175C44.8626 38.9732 45.3557 38.1264 45.5795 37.189C46.2325 34.4674 47.9494 27.734 49.1823 27.0737C49.301 27.0082 49.406 26.978 49.4928 26.978M49.4928 25.214C49.1595 25.214 48.8215 25.3047 48.4836 25.4861C47.9996 25.7432 47.2279 26.1564 46.0087 29.6744C45.8534 28.3791 45.4014 27.1947 44.4881 26.1312C43.8899 25.4307 43.237 25.2845 42.794 25.2845C41.1912 25.2845 39.9857 26.9578 38.625 31.0604C37.8076 33.5249 37.1912 36.1306 37.077 36.6245C37.0679 36.6598 37.0587 36.6951 37.0496 36.7304C36.7391 37.8089 35.0952 43.5747 33.0541 50.8928C31.5929 56.1444 31.7573 57.9185 32.4605 58.9668C32.8532 59.5515 33.4514 59.8841 34.1043 59.8841C35.7482 59.8841 37.0998 57.7371 37.5884 56.6031C37.6158 56.5376 37.9811 55.6505 38.8761 53.443C37.9994 57.596 38.246 59.0928 38.8944 60.0101C39.2871 60.5696 39.8807 60.8871 40.5109 60.8871C42.4972 60.8871 44.2963 57.5909 44.7256 56.0084C44.8169 55.7765 45.0543 55.1717 45.3649 54.3905C44.8169 57.5052 44.9265 59.9849 46.6206 61.008C46.9174 61.1895 47.2507 61.2802 47.5886 61.2802C49.2416 61.2802 50.6572 59.5515 53.4016 50.4341C54.8034 45.7721 55.9587 41.0547 56.0409 40.717C56.1139 40.4448 56.8263 37.7081 57.356 34.7446C58.4747 28.5454 57.7898 26.9175 56.8902 26.0808C56.4975 25.718 56.0317 25.5264 55.5432 25.5264C53.9221 25.5264 52.9723 27.3711 52.0454 30.1431C51.6527 31.3124 51.2965 32.5875 51.0179 33.6812C51.7257 28.8226 51.849 27.0939 50.9951 25.98C50.6161 25.4861 50.0864 25.214 49.5019 25.214H49.4928Z"
      fill="#FEFFF4" />
    <path
      d="M48.7302 38.2524L48.2312 38.1815L48.2294 38.1946L48.2282 38.2078L48.7302 38.2524ZM51.4517 37.9047L50.996 37.6895L50.9956 37.6903L51.4517 37.9047ZM52.1093 36.0096L51.6184 35.8954L51.6181 35.8967L52.1093 36.0096ZM55.8674 27.4416L56.2099 27.0719L56.2069 27.0692L55.8674 27.4416ZM54.5066 40.2584L54.0191 40.1299L54.0168 40.1395L54.5066 40.2584ZM47.3877 59.4708L47.1276 59.9026L47.1321 59.9052L47.3877 59.4708ZM46.374 47.9897L46.823 48.2186L46.8231 48.2186L46.374 47.9897ZM43.2141 55.4288L42.7441 55.2469L42.7307 55.2814L42.7226 55.3174L43.2141 55.4288ZM40.6205 52.9944L40.1327 52.8676L40.1308 52.8749L40.1291 52.8823L40.6205 52.9944ZM42.2689 47.3597L41.8178 47.1349L41.817 47.1366L42.2689 47.3597ZM38.8122 49.2447L38.3444 49.0571L38.3442 49.0577L38.8122 49.2447ZM36.1409 55.8622L36.6045 56.06L36.6064 56.0554L36.1409 55.8622ZM34.5838 51.422L34.0983 51.2867L34.0983 51.2868L34.5838 51.422ZM38.5748 37.2747L39.0595 37.4131L39.0627 37.401L38.5748 37.2747ZM38.625 37.0731L38.1341 36.9587L38.132 36.9678L38.1302 36.977L38.625 37.0731ZM43.3283 27.3509L43.711 27.023L43.7103 27.0221L43.3283 27.3509ZM43.3283 37.5922L42.8361 37.4836L42.836 37.4843L43.3283 37.5922ZM44.1365 39.5175L43.8342 39.1142L43.8301 39.1173L44.1365 39.5175ZM45.5795 37.189L45.0894 37.0714L45.0892 37.072L45.5795 37.189ZM49.1823 27.0737L49.4202 27.5181L49.4258 27.515L49.1823 27.0737ZM48.4836 25.4861L48.72 25.9313L48.7221 25.9302L48.4836 25.4861ZM46.0087 29.6744L45.5083 29.7343L46.4849 29.8394L46.0087 29.6744ZM44.4881 26.1312L44.1048 26.4585L44.1058 26.4596L44.4881 26.1312ZM38.625 31.0604L38.1466 30.9017L38.1466 30.9017L38.625 31.0604ZM37.077 36.6245L37.5651 36.7509L37.5681 36.738L37.077 36.6245ZM37.0496 36.7304L37.5341 36.8698L37.5375 36.8567L37.0496 36.7304ZM33.0541 50.8928L32.5686 50.7574L32.5685 50.7577L33.0541 50.8928ZM32.4605 58.9668L32.0419 59.2476L32.0421 59.2479L32.4605 58.9668ZM37.5884 56.6031L38.0513 56.8025L38.0534 56.7975L37.5884 56.6031ZM38.8761 53.443L39.3693 53.5471L38.4091 53.2536L38.8761 53.443ZM38.8944 60.0101L39.3069 59.7206L39.306 59.7192L38.8944 60.0101ZM44.7256 56.0084L44.2566 55.8236L44.2464 55.8496L44.2391 55.8764L44.7256 56.0084ZM45.3649 54.3905L45.8612 54.4778L44.8965 54.2044L45.3649 54.3905ZM46.6206 61.008L46.8835 60.578L46.8811 60.5766L46.6206 61.008ZM53.4016 50.4341L53.8842 50.5794L53.8842 50.5793L53.4016 50.4341ZM56.0409 40.717L55.554 40.5863L55.5512 40.5978L56.0409 40.717ZM57.356 34.7446L56.86 34.6551L56.8598 34.6559L57.356 34.7446ZM56.8902 26.0808L57.2335 25.7118L57.2323 25.7107L56.8902 26.0808ZM52.0454 30.1431L52.5231 30.3035L52.5233 30.3029L52.0454 30.1431ZM51.0179 33.6812L50.5192 33.6085L51.5063 33.8056L51.0179 33.6812ZM50.9951 25.98L51.3951 25.6734L51.395 25.6732L50.9951 25.98ZM49.5019 27.4971C49.4165 27.4971 49.3722 27.4322 49.3818 27.449C49.4074 27.4942 49.4488 27.6135 49.4732 27.8548C49.521 28.327 49.4863 29.0567 49.382 30.0408C49.1743 32.0013 48.7134 34.7906 48.2312 38.1815L49.2292 38.3234C49.7059 34.9708 50.1743 32.1304 50.3844 30.147C50.4891 29.1593 50.5354 28.3385 50.4761 27.7533C50.447 27.4659 50.3879 27.1797 50.2585 26.9516C50.113 26.6951 49.859 26.4891 49.5019 26.4891V27.4971ZM48.7302 38.2524C48.2282 38.2078 48.2282 38.2079 48.2282 38.208C48.2282 38.208 48.2282 38.2081 48.2282 38.2082C48.2281 38.2084 48.2281 38.2086 48.2281 38.2089C48.2281 38.2094 48.228 38.2101 48.2279 38.211C48.2278 38.2127 48.2276 38.2151 48.2273 38.2182C48.2268 38.2244 48.226 38.2332 48.2251 38.2445C48.2233 38.2672 48.2208 38.2998 48.2179 38.3409C48.2122 38.4231 48.2049 38.5397 48.1986 38.6795C48.1861 38.9575 48.1773 39.3332 48.1936 39.7129C48.2095 40.084 48.2505 40.4956 48.3523 40.8282C48.4028 40.9929 48.4795 41.1773 48.6061 41.3292C48.7427 41.4933 48.9535 41.6343 49.2325 41.6343V40.6263C49.322 40.6263 49.375 40.6773 49.3805 40.684C49.3808 40.6843 49.3786 40.6817 49.3745 40.6752C49.3705 40.6686 49.3651 40.6591 49.3587 40.6459C49.3458 40.6191 49.3311 40.582 49.3162 40.533C49.2528 40.326 49.2156 40.0181 49.2007 39.6698C49.1861 39.3301 49.1938 38.9863 49.2056 38.7247C49.2114 38.5947 49.2182 38.4865 49.2235 38.4113C49.2261 38.3738 49.2284 38.3445 49.2299 38.325C49.2307 38.3152 49.2313 38.3079 49.2317 38.3032C49.2319 38.3008 49.2321 38.2991 49.2322 38.2981C49.2322 38.2976 49.2322 38.2972 49.2322 38.2971C49.2323 38.297 49.2323 38.2969 49.2323 38.2969C49.2323 38.2969 49.2323 38.297 49.2323 38.297C49.2322 38.297 49.2322 38.297 48.7302 38.2524ZM49.2325 41.6343C49.499 41.6343 49.7273 41.5039 49.9057 41.3578C50.0904 41.2066 50.2776 40.9926 50.4718 40.7232C50.8614 40.1829 51.3324 39.3436 51.9079 38.119L50.9956 37.6903C50.4295 38.895 49.9895 39.6686 49.6542 40.1337C49.486 40.3671 49.3573 40.504 49.267 40.578C49.1704 40.6571 49.1646 40.6263 49.2325 40.6263V41.6343ZM51.9075 38.1198C52.2058 37.488 52.4415 36.8137 52.6005 36.1226L51.6181 35.8967C51.4757 36.516 51.2639 37.1218 50.996 37.6895L51.9075 38.1198ZM52.6002 36.1239C52.8755 34.9408 53.4078 32.7822 54.0291 30.9248C54.3408 29.9928 54.6676 29.1591 54.9867 28.5664C55.1473 28.2682 55.2932 28.0554 55.4177 27.9238C55.5529 27.781 55.5945 27.8045 55.5477 27.8045V26.7965C55.1778 26.7965 54.887 27.0181 54.6856 27.2309C54.4734 27.4551 54.2784 27.7558 54.0992 28.0886C53.7388 28.7579 53.3904 29.6564 53.0731 30.605C52.4364 32.5087 51.8956 34.7047 51.6184 35.8954L52.6002 36.1239ZM55.5477 27.8045C55.54 27.8045 55.5318 27.8037 55.5238 27.802C55.5158 27.8003 55.51 27.7981 55.5066 27.7966C55.5001 27.7938 55.5074 27.7955 55.5278 27.8141L56.2069 27.0692C56.0339 26.9114 55.8129 26.7965 55.5477 26.7965V27.8045ZM55.5248 27.8113C55.5983 27.8794 55.7073 28.0762 55.7768 28.5044C55.8427 28.91 55.8602 29.4373 55.835 30.0575C55.7848 31.2949 55.5688 32.8235 55.2988 34.324C55.0295 35.8206 54.7095 37.2728 54.4565 38.3519C54.3301 38.8911 54.2205 39.3364 54.1427 39.6466C54.1038 39.8017 54.0728 39.9229 54.0516 40.0052C54.041 40.0463 54.0329 40.0777 54.0274 40.0987C54.0247 40.1092 54.0226 40.1171 54.0212 40.1224C54.0205 40.125 54.02 40.1269 54.0197 40.1282C54.0195 40.1288 54.0194 40.1293 54.0193 40.1296C54.0193 40.1297 54.0193 40.1298 54.0193 40.1299C54.0192 40.1299 54.0192 40.1299 54.5066 40.2584C54.994 40.3868 54.994 40.3867 54.994 40.3866C54.994 40.3865 54.9941 40.3863 54.9941 40.3861C54.9942 40.3857 54.9944 40.3852 54.9946 40.3844C54.995 40.3829 54.9955 40.3808 54.9963 40.3779C54.9978 40.3723 55 40.3639 55.0028 40.353C55.0085 40.3311 55.0169 40.2988 55.0278 40.2567C55.0494 40.1725 55.0809 40.0492 55.1204 39.8919C55.1993 39.5774 55.3101 39.127 55.4379 38.582C55.6933 37.4927 56.0174 36.0222 56.2909 34.5025C56.5637 32.9865 56.7892 31.4048 56.8422 30.0983C56.8686 29.4464 56.8531 28.8434 56.7718 28.3428C56.6941 27.8647 56.5417 27.3793 56.2099 27.0719L55.5248 27.8113ZM54.5066 40.2584C54.0168 40.1395 54.0168 40.1396 54.0168 40.1397C54.0167 40.1398 54.0167 40.14 54.0166 40.1403C54.0165 40.1409 54.0163 40.1417 54.016 40.1428C54.0155 40.1451 54.0146 40.1485 54.0135 40.1531C54.0113 40.1622 54.008 40.1759 54.0035 40.194C53.9947 40.2301 53.9815 40.2839 53.9642 40.3542C53.9295 40.4947 53.8784 40.7011 53.8125 40.9638C53.6806 41.4894 53.4896 42.2406 53.2535 43.142C52.781 44.9456 52.1283 47.3484 51.4063 49.7497C50.6833 52.1545 49.895 54.5437 49.1522 56.326C48.7795 57.2202 48.4271 57.94 48.1099 58.4288C47.9506 58.6743 47.8135 58.8405 47.7028 58.9399C47.5847 59.046 47.5519 59.0273 47.5932 59.0273V60.0353C47.9142 60.0353 48.1801 59.8661 48.3764 59.6898C48.58 59.5069 48.7728 59.259 48.9555 58.9775C49.3222 58.4123 49.7022 57.6265 50.0826 56.7138C50.8458 54.8825 51.646 52.4535 52.3716 50.04C53.0983 47.623 53.7544 45.2077 54.2286 43.3975C54.4657 42.4921 54.6576 41.7376 54.7902 41.2092C54.8565 40.9449 54.9079 40.7372 54.9429 40.5954C54.9604 40.5245 54.9737 40.4701 54.9827 40.4333C54.9872 40.415 54.9906 40.401 54.9929 40.3916C54.994 40.3869 54.9949 40.3833 54.9955 40.3809C54.9958 40.3797 54.996 40.3788 54.9962 40.3782C54.9962 40.3779 54.9963 40.3776 54.9963 40.3775C54.9964 40.3773 54.9964 40.3772 54.5066 40.2584ZM47.5932 59.0273C47.6091 59.0273 47.6228 59.0298 47.6328 59.0327C47.6424 59.0355 47.646 59.038 47.6434 59.0365L47.1321 59.9052C47.2655 59.9837 47.4212 60.0353 47.5932 60.0353V59.0273ZM47.6478 59.0391C47.5298 58.968 47.4028 58.8118 47.3088 58.4903C47.2153 58.1707 47.1716 57.7436 47.178 57.2233C47.1908 56.1845 47.4009 54.8847 47.6845 53.5749C47.9669 52.2708 48.3162 50.9835 48.5969 49.9756C48.7364 49.4748 48.8607 49.0368 48.9491 48.7074C48.9934 48.5425 49.0304 48.3983 49.0567 48.2825C49.0785 48.1863 49.1064 48.0557 49.1064 47.9494H48.0984C48.0984 47.9237 48.1 47.9437 48.0737 48.0593C48.0519 48.1555 48.0189 48.2846 47.9756 48.4461C47.8888 48.7695 47.7676 49.1963 47.6259 49.7051C47.3442 50.7164 46.9883 52.0272 46.6994 53.3615C46.4116 54.6902 46.1842 56.0691 46.1701 57.2108C46.163 57.7806 46.2084 58.3191 46.3413 58.7733C46.4736 59.2255 46.7103 59.6511 47.1276 59.9025L47.6478 59.0391ZM49.1064 47.9494C49.1064 47.621 48.9566 47.233 48.741 46.9332C48.5255 46.6334 48.15 46.2963 47.6297 46.2963V47.3043C47.6848 47.3043 47.7957 47.3451 47.9226 47.5217C48.0495 47.6981 48.0984 47.8846 48.0984 47.9494H49.1064ZM47.6297 46.2963C46.9589 46.2963 46.3931 46.8423 45.925 47.7609L46.8231 48.2186C47.2591 47.3631 47.57 47.3043 47.6297 47.3043V46.2963ZM45.925 47.7608C45.3297 48.9285 44.5325 50.8065 43.8893 52.3783C43.5664 53.1672 43.2802 53.884 43.0748 54.4036C42.972 54.6634 42.8895 54.874 42.8325 55.0198C42.804 55.0926 42.782 55.1493 42.767 55.1878C42.7595 55.2071 42.7538 55.2218 42.75 55.2317C42.748 55.2367 42.7466 55.2404 42.7456 55.243C42.7451 55.2443 42.7447 55.2452 42.7445 55.2459C42.7443 55.2462 42.7443 55.2465 42.7442 55.2466C42.7442 55.2467 42.7441 55.2468 42.7441 55.2468C42.7441 55.2469 42.7441 55.2469 43.2141 55.4288C43.6842 55.6106 43.6842 55.6106 43.6842 55.6106C43.6842 55.6105 43.6842 55.6105 43.6842 55.6104C43.6843 55.6103 43.6844 55.6101 43.6845 55.6098C43.6847 55.6092 43.6851 55.6083 43.6855 55.6071C43.6865 55.6046 43.6879 55.601 43.6898 55.5961C43.6935 55.5865 43.6991 55.572 43.7065 55.553C43.7213 55.515 43.7431 55.4589 43.7714 55.3866C43.8279 55.242 43.91 55.0326 44.0122 54.7742C44.2165 54.2573 44.5012 53.5443 44.8221 52.7601C45.4666 51.1856 46.2493 49.3441 46.823 48.2186L45.925 47.7608ZM42.7226 55.3174C42.5961 55.8758 42.1762 56.7414 41.6658 57.4776C41.4135 57.8415 41.1548 58.1506 40.9213 58.3626C40.8047 58.4686 40.7047 58.5406 40.6248 58.5841C40.542 58.6291 40.5068 58.6292 40.5109 58.6292V59.6372C40.9314 59.6372 41.3149 59.3668 41.5989 59.1089C41.9083 58.828 42.2162 58.4529 42.4942 58.052C43.0443 57.2585 43.5399 56.2719 43.7057 55.5401L42.7226 55.3174ZM40.5109 58.6292C40.5749 58.6292 40.5833 58.6873 40.5429 58.6057C40.4872 58.4934 40.4251 58.2512 40.4154 57.8012C40.3963 56.9135 40.582 55.4282 41.1118 53.1066L40.1291 52.8823C39.595 55.2227 39.3857 56.8068 39.4077 57.8229C39.4185 58.3248 39.486 58.7432 39.6398 59.0534C39.8088 59.3945 40.1066 59.6372 40.5109 59.6372V58.6292ZM40.6205 52.9944C41.1082 53.1212 41.1083 53.1212 41.1083 53.1212C41.1083 53.1212 41.1083 53.1211 41.1083 53.121C41.1083 53.1209 41.1084 53.1207 41.1085 53.1204C41.1086 53.1199 41.1088 53.119 41.1091 53.1179C41.1097 53.1156 41.1106 53.1121 41.1118 53.1076C41.1142 53.0985 41.1177 53.0849 41.1223 53.0672C41.1316 53.0317 41.1453 52.9794 41.1628 52.9126C41.1979 52.7789 41.2485 52.587 41.3105 52.3542C41.4344 51.8884 41.6036 51.2596 41.7848 50.6067C41.9661 49.9531 42.1587 49.2782 42.3296 48.7192C42.5059 48.1423 42.6456 47.7351 42.7208 47.5828L41.817 47.1366C41.6981 47.3774 41.5347 47.8712 41.3656 48.4245C41.191 48.9957 40.9957 49.6803 40.8135 50.3372C40.6311 50.9946 40.4609 51.6271 40.3364 52.095C40.2741 52.329 40.2232 52.522 40.1879 52.6566C40.1702 52.7238 40.1564 52.7765 40.1471 52.8124C40.1424 52.8304 40.1388 52.8441 40.1364 52.8534C40.1352 52.8581 40.1342 52.8616 40.1336 52.864C40.1333 52.8652 40.1331 52.8661 40.1329 52.8667C40.1328 52.867 40.1328 52.8672 40.1327 52.8674C40.1327 52.8675 40.1327 52.8675 40.1327 52.8676C40.1327 52.8676 40.1327 52.8676 40.6205 52.9944ZM42.72 47.5845C42.9315 47.1602 42.793 46.6665 42.5718 46.3376C42.3333 45.983 41.9118 45.6764 41.3602 45.6764V46.6844C41.5118 46.6844 41.6451 46.7658 41.7354 46.9001C41.7802 46.9668 41.8046 47.0337 41.813 47.0854C41.8217 47.1398 41.8095 47.1516 41.8178 47.1349L42.72 47.5845ZM41.3602 45.6764C40.84 45.6764 40.3158 45.9488 39.8225 46.4819C39.3299 47.0141 38.8316 47.8421 38.3444 49.0571L39.28 49.4322C39.7426 48.2785 40.1849 47.5743 40.5623 47.1665C40.9388 46.7597 41.2138 46.6844 41.3602 46.6844V45.6764ZM38.3442 49.0577C37.3718 51.4913 36.7044 53.1448 36.2801 54.1896C36.068 54.712 35.9167 55.0822 35.8185 55.3216C35.7693 55.4413 35.7335 55.5283 35.71 55.5853C35.6982 55.6138 35.6896 55.6348 35.6838 55.6487C35.681 55.6556 35.6789 55.6607 35.6775 55.6641C35.6768 55.6657 35.6762 55.667 35.6759 55.6678C35.6757 55.6682 35.6756 55.6685 35.6755 55.6687C35.6755 55.6688 35.6755 55.6689 35.6755 55.6689C35.6754 55.6689 35.6754 55.6689 35.6754 55.669C35.6754 55.669 35.6754 55.669 36.1409 55.8622C36.6064 56.0554 36.6064 56.0554 36.6064 56.0554C36.6064 56.0554 36.6064 56.0554 36.6064 56.0553C36.6065 56.0553 36.6065 56.0552 36.6066 56.0551C36.6067 56.0548 36.6068 56.0545 36.607 56.054C36.6074 56.0531 36.6079 56.0518 36.6086 56.05C36.6101 56.0465 36.6123 56.0412 36.6152 56.0341C36.6211 56.0199 36.6299 55.9986 36.6418 55.9698C36.6656 55.9121 36.7017 55.8245 36.751 55.7041C36.8498 55.4635 37.0015 55.0922 37.2141 54.5688C37.6391 53.522 38.3073 51.8667 39.2802 49.4317L38.3442 49.0577ZM35.6773 55.6644C35.4765 56.1351 35.1504 56.6581 34.8073 57.0568C34.6359 57.2561 34.4722 57.4104 34.3307 57.5107C34.2606 57.5604 34.2036 57.5914 34.1607 57.6091C34.1172 57.6269 34.0999 57.6262 34.1043 57.6262V58.6342C34.4138 58.6342 34.6956 58.4877 34.9138 58.3329C35.1432 58.1702 35.3667 57.9522 35.5715 57.7142C35.9807 57.2385 36.3624 56.6275 36.6045 56.06L35.6773 55.6644ZM34.1043 57.6262C34.1168 57.6262 34.1434 57.6318 34.1656 57.6483C34.1824 57.6607 34.1687 57.659 34.1441 57.6031C34.0894 57.4792 34.0349 57.2131 34.0482 56.7213C34.0745 55.7519 34.355 54.1233 35.0693 51.5571L34.0983 51.2868C33.3788 53.8715 33.0703 55.5971 33.0406 56.694C33.0259 57.2355 33.0767 57.6806 33.2217 58.0096C33.2969 58.1803 33.4066 58.3404 33.5655 58.4582C33.7298 58.5799 33.9172 58.6342 34.1043 58.6342V57.6262ZM35.0693 51.5572C37.1374 44.1349 38.822 38.2444 39.0594 37.4131L38.0901 37.1363C37.8526 37.9681 36.1673 43.8611 34.0983 51.2867L35.0693 51.5572ZM39.0627 37.401C39.075 37.3535 39.1021 37.2599 39.1197 37.1691L38.1302 36.977C38.1205 37.0273 38.1111 37.0547 38.0868 37.1484L39.0627 37.401ZM39.1158 37.1875C39.2361 36.6713 39.8244 34.1862 40.604 31.8351C40.9948 30.6564 41.4265 29.5339 41.8626 28.7141C42.0817 28.3022 42.2892 27.9912 42.4768 27.7901C42.676 27.5766 42.7807 27.5626 42.794 27.5626V26.5546C42.3576 26.5546 42.0022 26.8211 41.7397 27.1025C41.4657 27.3963 41.2099 27.7948 40.9727 28.2407C40.4962 29.1363 40.0435 30.3228 39.6472 31.5179C38.8525 33.9145 38.2558 36.4366 38.1341 36.9587L39.1158 37.1875ZM42.794 27.5626C42.7978 27.5626 42.8064 27.5626 42.8259 27.5731C42.8485 27.5852 42.8899 27.6142 42.9463 27.6797L43.7103 27.0221C43.4736 26.7472 43.167 26.5546 42.794 26.5546V27.5626ZM42.9455 27.6788C43.8167 28.6956 44.0629 29.9719 43.9438 31.6129C43.8234 33.2722 43.3399 35.2006 42.8361 37.4836L43.8204 37.7008C44.3121 35.473 44.8218 33.4399 44.9491 31.6859C45.0778 29.9136 44.8262 28.3246 43.711 27.023L42.9455 27.6788ZM42.836 37.4843C42.6487 38.3391 42.5846 38.9648 42.6433 39.3991C42.6729 39.6177 42.7404 39.8437 42.8918 40.0223C43.0608 40.2218 43.2887 40.3088 43.5155 40.3088V39.3008C43.5551 39.3008 43.6198 39.3222 43.6608 39.3706C43.6841 39.3982 43.6589 39.3876 43.6422 39.2641C43.6085 39.0143 43.638 38.5337 43.8206 37.7001L42.836 37.4843ZM43.5155 40.3088C43.7082 40.3088 43.885 40.2479 44.0269 40.1798C44.173 40.1097 44.3137 40.0166 44.443 39.9176L43.8301 39.1173C43.7356 39.1897 43.6549 39.2403 43.5908 39.271C43.5228 39.3037 43.5008 39.3008 43.5155 39.3008V40.3088ZM44.4388 39.9207C45.2772 39.2922 45.8244 38.3336 46.0697 37.306L45.0892 37.072C44.887 37.9192 44.4479 38.6541 43.8342 39.1142L44.4388 39.9207ZM46.0696 37.3066C46.3953 35.9489 46.9845 33.5989 47.644 31.5101C47.9743 30.4641 48.318 29.497 48.6507 28.7566C48.8174 28.3858 48.9756 28.0847 49.1213 27.8633C49.2766 27.6274 49.3812 27.5389 49.4202 27.518L48.9444 26.6294C48.6751 26.7736 48.4564 27.04 48.2792 27.3093C48.0925 27.5931 47.9092 27.9476 47.7313 28.3434C47.375 29.1364 47.0175 30.1465 46.6828 31.2066C46.0124 33.3299 45.4166 35.7075 45.0894 37.0714L46.0696 37.3066ZM49.4258 27.515C49.4594 27.4964 49.4828 27.4875 49.4958 27.4836C49.509 27.4796 49.5073 27.482 49.4928 27.482V26.474C49.2939 26.474 49.1043 26.5411 48.9388 26.6325L49.4258 27.515ZM49.4928 24.71C49.065 24.71 48.6459 24.827 48.2452 25.0421L48.7221 25.9302C48.9972 25.7824 49.2539 25.718 49.4928 25.718V24.71ZM48.2473 25.041C47.9611 25.193 47.5756 25.407 47.11 26.0668C46.6645 26.6983 46.1484 27.7322 45.5325 29.5093L46.4849 29.8394C47.0882 28.0986 47.5675 27.1669 47.9337 26.648C48.2798 26.1575 48.5222 26.0363 48.72 25.9312L48.2473 25.041ZM46.5091 29.6144C46.3436 28.2337 45.8573 26.952 44.8705 25.8029L44.1058 26.4596C44.9455 27.4374 45.3633 28.5245 45.5083 29.7343L46.5091 29.6144ZM44.8714 25.804C44.1627 24.974 43.3601 24.7805 42.794 24.7805V25.7885C43.1139 25.7885 43.6172 25.8874 44.1048 26.4585L44.8714 25.804ZM42.794 24.7805C41.7764 24.7805 40.9395 25.328 40.21 26.3391C39.4914 27.3351 38.8305 28.8398 38.1466 30.9017L39.1034 31.219C39.7802 29.1783 40.4025 27.7951 41.0275 26.9289C41.6416 26.0777 42.2089 25.7885 42.794 25.7885V24.7805ZM38.1466 30.9017C37.3217 33.389 36.7011 36.013 36.586 36.511L37.5681 36.738C37.6813 36.2482 38.2935 33.6608 39.1034 31.219L38.1466 30.9017ZM36.5891 36.4982C36.5845 36.5159 36.58 36.5335 36.5754 36.5511C36.5708 36.5688 36.5663 36.5864 36.5617 36.6041L37.5375 36.8567C37.5421 36.839 37.5467 36.8214 37.5512 36.8037C37.5558 36.7861 37.5604 36.7685 37.5649 36.7508L36.5891 36.4982ZM36.5653 36.5909C36.2543 37.6711 34.6101 43.4382 32.5686 50.7574L33.5396 51.0282C35.5804 43.7112 37.2239 37.9468 37.5339 36.8698L36.5653 36.5909ZM32.5685 50.7577C31.8349 53.3945 31.4983 55.195 31.4421 56.4841C31.3853 57.7873 31.6134 58.6088 32.0419 59.2476L32.879 58.6861C32.6043 58.2766 32.3986 57.6868 32.4491 56.528C32.5003 55.3551 32.8121 53.6427 33.5396 51.0279L32.5685 50.7577ZM32.0421 59.2479C32.5202 59.9597 33.2693 60.3881 34.1043 60.3881V59.3801C33.6334 59.3801 33.1861 59.1433 32.8788 58.6858L32.0421 59.2479ZM34.1043 60.3881C35.1455 60.3881 36.0213 59.7165 36.6559 59.0041C37.3038 58.2769 37.7906 57.4076 38.0513 56.8025L37.1256 56.4037C36.8977 56.9325 36.4643 57.7038 35.9033 58.3336C35.329 58.9782 34.7071 59.3801 34.1043 59.3801V60.3881ZM38.0534 56.7975C38.0821 56.729 38.4484 55.8393 39.3432 53.6324L38.4091 53.2536C37.5138 55.4617 37.1496 56.3461 37.1234 56.4086L38.0534 56.7975ZM38.383 53.3389C37.5081 57.4833 37.6956 59.1874 38.4828 60.301L39.306 59.7192C38.7964 58.9983 38.4907 57.7086 39.3693 53.5471L38.383 53.3389ZM38.4819 60.2997C38.9618 60.9834 39.7045 61.3911 40.5109 61.3911V60.3831C40.057 60.3831 39.6124 60.1557 39.3069 59.7206L38.4819 60.2997ZM40.5109 61.3911C41.1496 61.3911 41.7372 61.1265 42.2453 60.7536C42.7542 60.3801 43.2134 59.8764 43.6081 59.3398C44.3945 58.2709 44.9801 56.9952 45.212 56.1403L44.2391 55.8764C44.0418 56.6041 43.5132 57.7677 42.7962 58.7425C42.4392 59.2278 42.0493 59.6471 41.6488 59.941C41.2475 60.2356 40.8653 60.3831 40.5109 60.3831V61.3911ZM45.1945 56.1931C45.286 55.9608 45.5231 55.357 45.8332 54.5767L44.8965 54.2044C44.5856 54.9865 44.3478 55.5922 44.2566 55.8236L45.1945 56.1931ZM44.8685 54.3032C44.5913 55.8789 44.4708 57.3409 44.6535 58.5584C44.8376 59.7851 45.3411 60.8241 46.36 61.4395L46.8811 60.5766C46.2059 60.1688 45.8076 59.4564 45.6504 58.4088C45.4918 57.3521 45.5905 56.0169 45.8612 54.4778L44.8685 54.3032ZM46.3577 61.4381C46.7351 61.6688 47.1597 61.7842 47.5886 61.7842V60.7762C47.3418 60.7762 47.0997 60.7102 46.8835 60.578L46.3577 61.4381ZM47.5886 61.7842C48.1039 61.7842 48.6095 61.6449 49.1098 61.2715C49.5949 60.9095 50.0537 60.3434 50.5228 59.5273C51.4581 57.9003 52.5118 55.1388 53.8842 50.5794L52.9189 50.2889C51.547 54.8468 50.5207 57.5084 49.6489 59.025C49.2144 59.7808 48.8379 60.2167 48.5069 60.4637C48.1911 60.6994 47.8999 60.7762 47.5886 60.7762V61.7842ZM53.8842 50.5793C55.29 45.9041 56.4478 41.1763 56.5306 40.8362L55.5512 40.5978C55.4696 40.9331 54.3168 45.6401 52.9189 50.289L53.8842 50.5793ZM56.5276 40.8477C56.6027 40.5682 57.3189 37.8163 57.8521 34.8333L56.8598 34.6559C56.3336 37.5999 55.6252 40.3214 55.5541 40.5863L56.5276 40.8477ZM57.852 34.8341C58.4141 31.719 58.5328 29.7052 58.3808 28.3458C58.2257 26.9583 57.7845 26.2243 57.2335 25.7118L56.547 26.4499C56.8955 26.774 57.2465 27.2723 57.3791 28.4578C57.5148 29.6713 57.4166 31.571 56.86 34.6551L57.852 34.8341ZM57.2323 25.7107C56.7559 25.2704 56.1708 25.0224 55.5432 25.0224V26.0304C55.8927 26.0304 56.2392 26.1655 56.5482 26.451L57.2323 25.7107ZM55.5432 25.0224C54.5018 25.0224 53.7248 25.6292 53.1188 26.5095C52.5197 27.3799 52.0324 28.5927 51.5674 29.9832L52.5233 30.3029C52.9853 28.9215 53.4364 27.826 53.9491 27.081C54.4551 26.346 54.9634 26.0304 55.5432 26.0304V25.0224ZM51.5676 29.9826C51.1696 31.1677 50.8099 32.4558 50.5295 33.5568L51.5063 33.8056C51.783 32.7192 52.1357 31.457 52.5231 30.3035L51.5676 29.9826ZM51.5167 33.7538C51.8695 31.3318 52.0831 29.6504 52.0961 28.4317C52.1092 27.2033 51.921 26.3594 51.3951 25.6734L50.5951 26.2867C50.9231 26.7145 51.1002 27.2919 51.0882 28.421C51.0761 29.5597 50.8742 31.1719 50.5192 33.6085L51.5167 33.7538ZM51.395 25.6732C50.928 25.0647 50.2549 24.71 49.5019 24.71V25.718C49.9179 25.718 50.3042 25.9076 50.5953 26.2869L51.395 25.6732ZM49.5019 24.71H49.4928V25.718H49.5019V24.71Z"
      fill="#FEFFF4" mask="url(#path-4-inside-1_1726_17522)" />
    <rect x="11.4375" y="10.7471" width="67" height="65" rx="11.5" stroke="#5B9F8F" />
  </g>
  <path fill="#FEFFF4" stroke="#FEFFF4" stroke-width="0" opacity="0.9725490196078431"
    d="M 47.197 47.481 C 47.395 47.545 47.583 47.672 47.699 47.85 C 47.83 48.048 47.939 48.401 47.9 48.652 C 47.861 48.903 47.715 49.085 47.465 49.355 C 47.079 49.771 46 50.454 45.558 50.861 C 45.255 51.14 45.234 51.337 44.922 51.563 C 44.502 51.868 43.735 52.221 43.116 52.433 C 42.508 52.642 41.692 52.911 41.242 52.834 C 40.915 52.779 40.678 52.547 40.54 52.333 C 40.409 52.13 40.348 51.836 40.406 51.597 C 40.444 51.442 40.523 51.277 40.647 51.124 C 40.629 51.122 40.611 51.12 40.595 51.117 C 40.242 51.051 39.986 50.862 39.826 50.548 C 39.616 50.137 39.614 49.249 39.692 48.675 C 39.765 48.141 40.161 47.706 40.227 47.203 C 40.293 46.702 40.008 46.231 40.094 45.664 C 40.196 44.983 40.773 44.219 40.963 43.389 C 41.169 42.491 40.886 41.338 41.231 40.445 C 41.581 39.54 42.529 38.448 43.071 38.002 C 43.425 37.712 43.735 37.827 44.041 37.601 C 44.399 37.337 44.899 36.796 45.045 36.43 C 45.157 36.148 44.982 35.889 45.045 35.627 C 45.11 35.353 45.392 35.143 45.446 34.824 C 45.511 34.449 45.215 33.869 45.313 33.486 C 45.403 33.131 45.772 32.774 45.948 32.583 C 46.064 32.458 46.186 32.471 46.249 32.348 C 46.329 32.195 46.221 31.9 46.316 31.679 C 46.428 31.42 46.809 31.04 46.952 30.91 C 47.026 30.842 47.083 30.901 47.119 30.809 C 47.201 30.6 46.891 29.817 47.052 29.27 C 47.252 28.596 48.068 27.506 48.491 27.096 C 48.759 26.835 48.94 26.718 49.227 26.694 C 49.561 26.667 50.16 26.755 50.398 27.062 C 50.68 27.427 50.574 28.268 50.599 28.936 C 50.626 29.665 50.62 30.445 50.532 31.278 C 50.434 32.196 49.876 33.746 49.996 34.222 C 50.056 34.459 50.3 34.364 50.398 34.556 C 50.544 34.844 50.641 35.396 50.599 35.962 C 50.543 36.707 49.84 38.169 49.863 38.705 C 49.875 38.992 50.079 39.004 50.13 39.24 C 50.2 39.559 50.254 39.981 50.13 40.512 C 49.949 41.287 49.305 42.681 48.792 43.523 C 48.342 44.261 47.532 45.131 47.287 45.363 C 47.196 45.448 47.186 45.362 47.119 45.463 C 46.963 45.7 46.779 46.701 46.489 47.472 C 46.77 47.385 46.993 47.416 47.197 47.481 Z"
    style="fill: rgb(254, 255, 244); fill-opacity: 1; fill-rule: nonzero; stroke: rgb(254, 255, 244); stroke-dasharray: none; stroke-dashoffset: 0px; stroke-linecap: butt; stroke-linejoin: miter; stroke-miterlimit: 4; stroke-opacity: 1; stroke-width: 0.504px; paint-order: normal; vector-effect: none; opacity: 1; mix-blend-mode: normal; isolation: auto;" />
</svg>