<svg width="89" height="87" viewBox="0 0 89 87" fill="none" xmlns="http://www.w3.org/2000/svg">
    <g filter="url(#filter0_d_1726_17482)">
        <rect x="10.9375" y="10.2471" width="68" height="66" rx="12" fill="#5B9F8F" />
        <path
            d="M54.2404 27.8533C56.5944 29.4241 57.9445 32.115 57.9375 34.9398C57.9233 40.1032 57.1387 51.5008 50.9886 57.5306C47.546 60.8978 43.7145 61.1725 40.4345 60.3694C34.447 58.8972 30.7923 52.8039 32.2626 46.8375C32.8211 44.5692 33.8956 42.0122 35.7972 39.3142C41.6504 31.0161 38.4551 29.8538 42.5552 27.177C46.217 24.782 50.9674 25.6625 54.2404 27.8533Z"
            fill="#FEFFF4" stroke="#5B9F8F" stroke-width="2" stroke-linecap="round"
            stroke-linejoin="round" />
        <rect x="11.4375" y="10.7471" width="67" height="65" rx="11.5" stroke="#5B9F8F" />
    </g>
    <defs>
        <filter id="filter0_d_1726_17482" x="0.9375" y="0.24707" width="88" height="86"
            filterUnits="userSpaceOnUse" color-interpolation-filters="sRGB">
            <feFlood flood-opacity="0" result="BackgroundImageFix" />
            <feColorMatrix in="SourceAlpha" type="matrix"
                values="0 0 0 0 0 0 0 0 0 0 0 0 0 0 0 0 0 0 127 0" result="hardAlpha" />
            <feMorphology radius="4" operator="dilate" in="SourceAlpha"
                result="effect1_dropShadow_1726_17482" />
            <feOffset />
            <feGaussianBlur stdDeviation="3" />
            <feComposite in2="hardAlpha" operator="out" />
            <feColorMatrix type="matrix"
                values="0 0 0 0 0.356863 0 0 0 0 0.623529 0 0 0 0 0.560784 0 0 0 0.5 0" />
            <feBlend mode="normal" in2="BackgroundImageFix" result="effect1_dropShadow_1726_17482" />
            <feBlend mode="normal" in="SourceGraphic" in2="effect1_dropShadow_1726_17482"
                result="shape" />
        </filter>
    </defs>
</svg>
    