<?xml version="1.0" encoding="utf-8"?>
<svg viewBox="0 0 69 67" width="69" height="67" fill="none" xmlns="http://www.w3.org/2000/svg">
  <mask id="path-3-inside-1_2389_17799" fill="white">
    <path d="M38.5644 16.746C39.6512 16.746 38.7516 21.2618 37.7927 28.0054C37.7927 28.0054 37.537 30.8832 38.295 30.8832C38.6923 30.8832 39.3727 30.0869 40.5142 27.6576C40.7974 27.0579 41.0211 26.4178 41.1718 25.7626C41.7243 23.3887 43.318 17.0534 44.6102 17.0534C44.7198 17.0534 44.8248 17.0988 44.9299 17.1946C46.5509 18.6965 43.5691 30.0113 43.5691 30.0113C43.5691 30.0113 38.8932 49.2843 36.6557 49.2843C36.5872 49.2843 36.5187 49.2641 36.4502 49.2238C34.3086 47.9335 37.6649 38.3475 37.6649 37.7023C37.6649 37.3092 37.2676 36.5532 36.6922 36.5532C36.3269 36.5532 35.8886 36.8556 35.4365 37.7427C34.2675 40.0359 32.2766 45.1817 32.2766 45.1817C31.9844 46.4719 30.4455 48.8861 29.5734 48.8861C28.893 48.8861 28.619 47.4094 29.683 42.7474C29.683 42.7474 30.9433 37.8989 31.3314 37.1127C31.5323 36.7095 31.1259 35.9333 30.4227 35.9333C29.756 35.9333 28.8245 36.6288 27.8747 38.9976C25.9295 43.8663 25.2034 45.6151 25.2034 45.6151C24.7605 46.6534 23.7879 47.8831 23.1668 47.8831C22.4682 47.8831 22.2125 46.3258 23.6463 41.1749C25.7148 33.751 27.3998 27.8592 27.6373 27.0276C27.6555 26.9571 27.6738 26.8966 27.6875 26.826C27.9295 25.7878 30.0574 16.8115 31.8565 16.8115C32.0392 16.8115 32.2173 16.9022 32.3908 17.1038C34.3771 19.4222 33.3862 22.8343 32.3908 27.3451C32.0209 29.0335 32.2036 29.5577 32.578 29.5577C32.7561 29.5577 32.9753 29.4418 33.199 29.2704C33.9251 28.7261 34.4182 27.8794 34.642 26.9419C35.295 24.2203 37.0119 17.4869 38.2448 16.8266C38.3635 16.7611 38.4685 16.7309 38.5553 16.7309M38.5553 14.9669C38.222 14.9669 37.884 15.0576 37.5461 15.239C37.0621 15.4961 36.2904 15.9094 35.0712 19.4273C34.9159 18.132 34.4639 16.9476 33.5506 15.8842C32.9524 15.1836 32.2995 15.0374 31.8565 15.0374C30.2537 15.0374 29.0482 16.7107 27.6875 20.8133C26.8701 23.2778 26.2537 25.8835 26.1395 26.3775C26.1304 26.4127 26.1212 26.448 26.1121 26.4833C25.8016 27.5619 24.1577 33.3276 22.1166 40.6457C20.6554 45.8974 20.8198 47.6715 21.523 48.7198C21.9157 49.3044 22.5139 49.6371 23.1668 49.6371C24.8107 49.6371 26.1623 47.49 26.6509 46.356C26.6783 46.2905 27.0436 45.4035 27.9386 43.1959C27.0619 47.3489 27.3085 48.8458 27.9569 49.7631C28.3496 50.3225 28.9432 50.64 29.5734 50.64C31.5597 50.64 33.3588 47.3439 33.7881 45.7613C33.8794 45.5295 34.1168 44.9247 34.4274 44.1435C33.8794 47.2582 33.989 49.7379 35.6831 50.761C35.9799 50.9424 36.3132 51.0331 36.6511 51.0331C38.3041 51.0331 39.7197 49.3044 42.4641 40.1871C43.8659 35.525 45.0212 30.8076 45.1034 30.4699C45.1764 30.1978 45.8888 27.4611 46.4185 24.4975C47.5372 18.2983 46.8523 16.6704 45.9527 15.8338C45.56 15.4709 45.0942 15.2794 44.6057 15.2794C42.9846 15.2794 42.0348 17.124 41.1079 19.896C40.7152 21.0653 40.359 22.3404 40.0804 23.4341C40.7882 18.5755 40.9115 16.8468 40.0576 15.733C39.6786 15.239 39.1489 14.9669 38.5644 14.9669H38.5553Z"/>
  </mask>
  <rect x="0.5" y="0.5" width="67" height="65" rx="11.5" fill="#5B9F8F"/>
  <path d="M29.1557 42.5902C28.6167 44.9655 28.4288 46.4588 28.4277 47.4297C28.4266 48.395 28.6102 48.8208 28.7965 49.0825L28.798 49.0847C28.997 49.3706 29.2742 49.5159 29.5775 49.5159C29.8613 49.5159 30.1849 49.3697 30.5322 49.0855C30.8757 48.8045 31.2161 48.4098 31.5284 47.9655C32.155 47.074 32.6372 46.0281 32.7946 45.4115L32.7984 45.3968L32.8039 45.3826C33.0212 44.8228 34.8344 40.1777 35.91 38.0669M29.1557 42.5902L40.0248 27.3618C40.2931 26.7955 40.4951 26.204 40.6359 25.6032L40.636 25.6028C41.7264 20.9194 42.6213 18.6088 43.3046 17.473C43.645 16.9072 43.9211 16.6531 44.1236 16.5359C44.3171 16.4239 44.4642 16.4233 44.6052 16.4233C44.835 16.4233 45.0633 16.5144 45.2697 16.704C45.4517 16.8734 45.6021 17.1435 45.7131 17.5205C45.8237 17.8957 45.8899 18.3583 45.9167 18.891C45.9704 19.9565 45.8653 21.2683 45.6725 22.65C45.287 25.4114 44.5571 28.4101 44.0876 30.1887L44.0877 30.1888C44.0827 30.2083 44.0702 30.2589 44.0508 30.3369C44.0146 30.4831 43.9544 30.7257 43.875 31.0415C43.741 31.5744 43.5481 32.3321 43.3106 33.2384C42.8356 35.0512 42.1823 37.4572 41.4643 39.8472C40.0447 44.5706 39.0274 47.1069 38.2545 48.4591C37.8682 49.1349 37.5535 49.4957 37.2966 49.688C37.0506 49.8722 36.8485 49.9091 36.6553 49.9091H36.5571C36.4327 49.8955 36.3126 49.8546 36.197 49.7844L36.1961 49.7838C35.7529 49.5173 35.4631 49.0468 35.3105 48.3729C35.1573 47.6965 35.1489 46.8408 35.2501 45.851C35.4525 43.8721 36.0846 41.4286 36.7747 38.9595C36.906 38.4896 37.0547 37.9517 37.1023 37.7364L37.1181 37.665L37.0931 37.5962C37.069 37.5296 37.0248 37.4536 36.9825 37.394C36.9602 37.3625 36.9338 37.3289 36.9047 37.2987C36.8806 37.2737 36.8348 37.2297 36.772 37.2031L36.4216 37.0543V37.3178M29.1557 42.5902C29.3704 41.7658 30.3448 38.0626 30.7885 36.9596L30.8535 36.798L30.7253 36.6801C30.6805 36.6388 30.5801 36.5581 30.4268 36.5581C30.2831 36.5581 30.1334 36.6198 29.9905 36.7155C29.8435 36.814 29.6835 36.9619 29.5143 37.1671C29.1762 37.5774 28.7855 38.2365 28.38 39.2518M29.1557 42.5902L28.38 39.2518M35.91 38.0669C35.9101 38.0668 35.9101 38.0667 35.9102 38.0666L36.1344 38.1808L35.9099 38.0671C35.91 38.0671 35.91 38.067 35.91 38.0669ZM35.91 38.0669C36.0797 37.7319 36.2261 37.5286 36.338 37.4037C36.3688 37.3693 36.3968 37.341 36.4216 37.3178M36.4216 37.3178V37.4351C36.4216 37.3413 36.4737 37.2814 36.4794 37.2749L36.4798 37.2744C36.4929 37.2588 36.5048 37.2487 36.5073 37.2465C36.5135 37.2413 36.5184 37.2377 36.5134 37.2415C36.5075 37.2458 36.4937 37.256 36.4764 37.27C36.4604 37.283 36.442 37.2987 36.4216 37.3178ZM28.38 39.2518C27.4167 41.6604 26.749 43.3131 26.3217 44.3654C26.108 44.8915 25.9544 45.2676 25.854 45.513L25.7422 45.7858L25.7144 45.8537L25.7069 45.8722L25.7045 45.8783C25.4826 46.3984 25.0927 47.0683 24.624 47.6043C24.1427 48.1547 23.6322 48.5029 23.1756 48.5029C22.8662 48.5029 22.5848 48.3505 22.3846 48.0548C22.2081 47.7922 22.027 47.3381 22.0768 46.2833C22.1268 45.2239 22.4087 43.5844 23.1352 40.9752C25.0757 34.0208 26.6828 28.3867 27.1302 26.8247L27.1302 26.8247L27.1311 26.8214L27.1517 26.7458L27.1722 26.6702L27.1724 26.6702L27.1746 26.6607C27.9885 23.1279 28.8069 20.4806 29.6202 18.7214C30.0272 17.841 30.4266 17.1972 30.8132 16.7771C31.2007 16.3561 31.5497 16.1864 31.8607 16.1864C32.0824 16.1864 32.4343 16.2606 32.7835 16.668L32.7836 16.668C33.7928 17.8443 34.1295 19.2217 34.0928 20.8395C34.0558 22.4678 33.6417 24.3133 33.1675 26.4119L28.38 39.2518ZM33.2791 45.5512C33.5224 44.925 35.306 40.3621 36.3593 38.2954L36.3595 38.2948C36.4136 38.1881 36.4639 38.0985 36.5096 38.0235L33.2791 45.5512ZM34.1196 26.7834C35.2896 21.8999 36.1879 19.305 36.8392 17.9082C37.1645 17.2104 37.4238 16.8214 37.6174 16.5973C37.8012 16.3846 37.9286 16.3166 38.0161 16.27L38.0199 16.268C38.02 16.2679 38.0201 16.2679 38.0201 16.2678L34.1196 26.7834Z" fill="#FEFFF4" stroke="#FEFFF4" stroke-width="0.504"/>
  <path d="M38.5644 16.746C39.6512 16.746 38.7516 21.2618 37.7927 28.0054C37.7927 28.0054 37.537 30.8832 38.295 30.8832C38.6923 30.8832 39.3727 30.0869 40.5142 27.6576C40.7974 27.0579 41.0211 26.4178 41.1718 25.7626C41.7243 23.3887 43.318 17.0534 44.6102 17.0534C44.7198 17.0534 44.8248 17.0988 44.9299 17.1946C46.5509 18.6965 43.5691 30.0113 43.5691 30.0113C43.5691 30.0113 38.8932 49.2843 36.6557 49.2843C36.5872 49.2843 36.5187 49.2641 36.4502 49.2238C34.3086 47.9335 37.6649 38.3475 37.6649 37.7023C37.6649 37.3092 37.2676 36.5532 36.6922 36.5532C36.3269 36.5532 35.8886 36.8556 35.4365 37.7427C34.2675 40.0359 32.2766 45.1817 32.2766 45.1817C31.9844 46.4719 30.4455 48.8861 29.5734 48.8861C28.893 48.8861 28.619 47.4094 29.683 42.7474C29.683 42.7474 30.9433 37.8989 31.3314 37.1127C31.5323 36.7095 31.1259 35.9333 30.4227 35.9333C29.756 35.9333 28.8245 36.6288 27.8747 38.9976C25.9295 43.8663 25.2034 45.6151 25.2034 45.6151C24.7605 46.6534 23.7879 47.8831 23.1668 47.8831C22.4682 47.8831 22.2125 46.3258 23.6463 41.1749C25.7148 33.751 27.3998 27.8592 27.6373 27.0276C27.6555 26.9571 27.6738 26.8966 27.6875 26.826C27.9295 25.7878 30.0574 16.8115 31.8565 16.8115C32.0392 16.8115 32.2173 16.9022 32.3908 17.1038C34.3771 19.4222 33.3862 22.8343 32.3908 27.3451C32.0209 29.0335 32.2036 29.5577 32.578 29.5577C32.7561 29.5577 32.9753 29.4418 33.199 29.2704C33.9251 28.7261 34.4182 27.8794 34.642 26.9419C35.295 24.2203 37.0119 17.4869 38.2448 16.8266C38.3635 16.7611 38.4685 16.7309 38.5553 16.7309M38.5553 14.9669C38.222 14.9669 37.884 15.0576 37.5461 15.239C37.0621 15.4961 36.2904 15.9094 35.0712 19.4273C34.9159 18.132 34.4639 16.9476 33.5506 15.8842C32.9524 15.1836 32.2995 15.0374 31.8565 15.0374C30.2537 15.0374 29.0482 16.7107 27.6875 20.8133C26.8701 23.2778 26.2537 25.8835 26.1395 26.3775C26.1304 26.4127 26.1212 26.448 26.1121 26.4833C25.8016 27.5619 24.1577 33.3276 22.1166 40.6457C20.6554 45.8974 20.8198 47.6715 21.523 48.7198C21.9157 49.3044 22.5139 49.6371 23.1668 49.6371C24.8107 49.6371 26.1623 47.49 26.6509 46.356C26.6783 46.2905 27.0436 45.4035 27.9386 43.1959C27.0619 47.3489 27.3085 48.8458 27.9569 49.7631C28.3496 50.3225 28.9432 50.64 29.5734 50.64C31.5597 50.64 33.3588 47.3439 33.7881 45.7613C33.8794 45.5295 34.1168 44.9247 34.4274 44.1435C33.8794 47.2582 33.989 49.7379 35.6831 50.761C35.9799 50.9424 36.3132 51.0331 36.6511 51.0331C38.3041 51.0331 39.7197 49.3044 42.4641 40.1871C43.8659 35.525 45.0212 30.8076 45.1034 30.4699C45.1764 30.1978 45.8888 27.4611 46.4185 24.4975C47.5372 18.2983 46.8523 16.6704 45.9527 15.8338C45.56 15.4709 45.0942 15.2794 44.6057 15.2794C42.9846 15.2794 42.0348 17.124 41.1079 19.896C40.7152 21.0653 40.359 22.3404 40.0804 23.4341C40.7882 18.5755 40.9115 16.8468 40.0576 15.733C39.6786 15.239 39.1489 14.9669 38.5644 14.9669H38.5553Z" fill="#FEFFF4"/>
  <path d="M37.7927 28.0054L37.2937 27.9344L37.2919 27.9475L37.2907 27.9608L37.7927 28.0054ZM40.5142 27.6576L40.0585 27.4425L40.0581 27.4433L40.5142 27.6576ZM41.1718 25.7626L40.6809 25.6483L40.6806 25.6496L41.1718 25.7626ZM44.9299 17.1946L45.2724 16.8249L45.2694 16.8221L44.9299 17.1946ZM43.5691 30.0113L43.0816 29.8828L43.0793 29.8925L43.5691 30.0113ZM36.4502 49.2238L36.1901 49.6555L36.1946 49.6581L36.4502 49.2238ZM35.4365 37.7427L35.8855 37.9715L35.8856 37.9715L35.4365 37.7427ZM32.2766 45.1817L31.8066 44.9998L31.7932 45.0343L31.7851 45.0704L32.2766 45.1817ZM29.683 42.7474L29.1952 42.6206L29.1933 42.6279L29.1916 42.6352L29.683 42.7474ZM31.3314 37.1127L30.8803 36.8879L30.8795 36.8895L31.3314 37.1127ZM27.8747 38.9976L27.4069 38.81L27.4067 38.8106L27.8747 38.9976ZM25.2034 45.6151L25.667 45.8129L25.6689 45.8084L25.2034 45.6151ZM23.6463 41.1749L23.1608 41.0396L23.1608 41.0397L23.6463 41.1749ZM27.6373 27.0276L28.122 27.166L28.1252 27.1539L27.6373 27.0276ZM27.6875 26.826L27.1966 26.7116L27.1945 26.7207L27.1927 26.73L27.6875 26.826ZM32.3908 17.1038L32.7735 16.7759L32.7728 16.7751L32.3908 17.1038ZM32.3908 27.3451L31.8986 27.2365L31.8985 27.2373L32.3908 27.3451ZM33.199 29.2704L32.8967 28.8671L32.8926 28.8703L33.199 29.2704ZM34.642 26.9419L34.1519 26.8243L34.1517 26.8249L34.642 26.9419ZM38.2448 16.8266L38.4827 17.271L38.4883 17.2679L38.2448 16.8266ZM37.5461 15.239L37.7825 15.6842L37.7846 15.6831L37.5461 15.239ZM35.0712 19.4273L34.5708 19.4873L35.5474 19.5923L35.0712 19.4273ZM33.5506 15.8842L33.1673 16.2114L33.1683 16.2125L33.5506 15.8842ZM27.6875 20.8133L27.2091 20.6546L27.2091 20.6546L27.6875 20.8133ZM26.1395 26.3775L26.6276 26.5038L26.6306 26.4909L26.1395 26.3775ZM26.1121 26.4833L26.5966 26.6228L26.6 26.6096L26.1121 26.4833ZM22.1166 40.6457L21.6311 40.5103L21.631 40.5106L22.1166 40.6457ZM21.523 48.7198L21.1044 49.0005L21.1046 49.0008L21.523 48.7198ZM26.6509 46.356L27.1138 46.5555L27.1159 46.5504L26.6509 46.356ZM27.9386 43.1959L28.4318 43.3L27.4716 43.0066L27.9386 43.1959ZM27.9569 49.7631L28.3694 49.4735L28.3685 49.4721L27.9569 49.7631ZM33.7881 45.7613L33.3191 45.5766L33.3089 45.6025L33.3016 45.6294L33.7881 45.7613ZM34.4274 44.1435L34.9237 44.2308L33.959 43.9573L34.4274 44.1435ZM35.6831 50.761L35.946 50.3309L35.9436 50.3295L35.6831 50.761ZM42.4641 40.1871L42.9467 40.3323L42.9467 40.3322L42.4641 40.1871ZM45.1034 30.4699L44.6165 30.3392L44.6137 30.3507L45.1034 30.4699ZM46.4185 24.4975L45.9225 24.408L45.9223 24.4089L46.4185 24.4975ZM45.9527 15.8338L46.296 15.4647L46.2948 15.4636L45.9527 15.8338ZM41.1079 19.896L41.5856 20.0565L41.5858 20.0558L41.1079 19.896ZM40.0804 23.4341L39.5817 23.3614L40.5688 23.5585L40.0804 23.4341ZM40.0576 15.733L40.4576 15.4263L40.4575 15.4262L40.0576 15.733ZM38.5644 17.25C38.4791 17.25 38.4347 17.1851 38.4443 17.2019C38.4699 17.2471 38.5113 17.3664 38.5357 17.6077C38.5835 18.0799 38.5488 18.8096 38.4445 19.7938C38.2368 21.7542 37.7759 24.5435 37.2937 27.9344L38.2917 28.0763C38.7684 24.7237 39.2368 21.8833 39.4469 19.9C39.5516 18.9122 39.5979 18.0915 39.5386 17.5062C39.5095 17.2188 39.4504 16.9327 39.321 16.7045C39.1755 16.448 38.9215 16.242 38.5644 16.242V17.25ZM37.7927 28.0054C37.2907 27.9608 37.2907 27.9608 37.2907 27.9609C37.2907 27.961 37.2907 27.9611 37.2907 27.9612C37.2906 27.9613 37.2906 27.9615 37.2906 27.9618C37.2906 27.9623 37.2905 27.963 37.2904 27.9639C37.2903 27.9656 37.2901 27.968 37.2898 27.9711C37.2893 27.9773 37.2885 27.9861 37.2876 27.9975C37.2858 28.0201 37.2833 28.0527 37.2804 28.0938C37.2747 28.176 37.2674 28.2927 37.2611 28.4324C37.2486 28.7104 37.2398 29.0861 37.2561 29.4659C37.272 29.837 37.313 30.2485 37.4148 30.5811C37.4653 30.7458 37.542 30.9302 37.6686 31.0821C37.8052 31.2462 38.016 31.3872 38.295 31.3872V30.3792C38.3845 30.3792 38.4375 30.4303 38.443 30.437C38.4433 30.4372 38.4411 30.4346 38.437 30.4281C38.433 30.4216 38.4276 30.412 38.4212 30.3989C38.4083 30.372 38.3936 30.3349 38.3787 30.286C38.3153 30.079 38.2781 29.7711 38.2632 29.4227C38.2486 29.083 38.2563 28.7392 38.2681 28.4777C38.2739 28.3476 38.2807 28.2394 38.286 28.1642C38.2886 28.1267 38.2909 28.0974 38.2924 28.0779C38.2932 28.0682 38.2938 28.0608 38.2942 28.0561C38.2944 28.0538 38.2946 28.0521 38.2947 28.051C38.2947 28.0505 38.2947 28.0502 38.2947 28.05C38.2947 28.0499 38.2948 28.0499 38.2948 28.0499C38.2948 28.0499 38.2948 28.0499 38.2948 28.0499C38.2947 28.0499 38.2947 28.05 37.7927 28.0054ZM38.295 31.3872C38.5615 31.3872 38.7898 31.2568 38.9682 31.1107C39.1529 30.9595 39.3401 30.7455 39.5343 30.4761C39.9239 29.9358 40.3949 29.0965 40.9704 27.872L40.0581 27.4433C39.492 28.648 39.052 29.4215 38.7167 29.8866C38.5485 30.12 38.4198 30.2569 38.3295 30.3309C38.2329 30.4101 38.2271 30.3792 38.295 30.3792V31.3872ZM40.97 27.8728C41.2683 27.2409 41.504 26.5666 41.663 25.8755L40.6806 25.6496C40.5382 26.2689 40.3264 26.8748 40.0585 27.4425L40.97 27.8728ZM41.6627 25.8768C41.938 24.6937 42.4703 22.5351 43.0916 20.6777C43.4033 19.7458 43.7301 18.9121 44.0493 18.3194C44.2098 18.0211 44.3557 17.8083 44.4802 17.6767C44.6154 17.5339 44.657 17.5574 44.6102 17.5574V16.5494C44.2403 16.5494 43.9495 16.771 43.7481 16.9839C43.5359 17.208 43.3409 17.5087 43.1617 17.8415C42.8013 18.5108 42.4529 19.4093 42.1356 20.3579C41.4989 22.2616 40.9581 24.4576 40.6809 25.6483L41.6627 25.8768ZM44.6102 17.5574C44.6025 17.5574 44.5943 17.5566 44.5863 17.5549C44.5783 17.5532 44.5725 17.551 44.5691 17.5496C44.5626 17.5467 44.5699 17.5484 44.5903 17.567L45.2694 16.8221C45.0964 16.6644 44.8754 16.5494 44.6102 16.5494V17.5574ZM44.5873 17.5643C44.6608 17.6324 44.7698 17.8291 44.8393 18.2573C44.9052 18.663 44.9227 19.1903 44.8975 19.8104C44.8473 21.0479 44.6314 22.5764 44.3613 24.0769C44.092 25.5736 43.772 27.0257 43.519 28.1048C43.3926 28.6441 43.283 29.0893 43.2052 29.3995C43.1663 29.5546 43.1353 29.6758 43.1141 29.7581C43.1035 29.7993 43.0954 29.8307 43.0899 29.8517C43.0872 29.8622 43.0851 29.8701 43.0837 29.8753C43.083 29.8779 43.0825 29.8799 43.0822 29.8811C43.082 29.8817 43.0819 29.8822 43.0818 29.8825C43.0818 29.8826 43.0818 29.8827 43.0818 29.8828C43.0817 29.8829 43.0817 29.8829 43.5691 30.0113C44.0565 30.1397 44.0565 30.1396 44.0565 30.1395C44.0565 30.1394 44.0566 30.1392 44.0566 30.139C44.0567 30.1387 44.0569 30.1381 44.0571 30.1373C44.0575 30.1359 44.058 30.1337 44.0588 30.1309C44.0603 30.1252 44.0625 30.1169 44.0653 30.1059C44.071 30.084 44.0794 30.0517 44.0903 30.0096C44.1119 29.9254 44.1434 29.8021 44.1829 29.6448C44.2618 29.3304 44.3726 28.8799 44.5004 28.3349C44.7558 27.2456 45.0799 25.7752 45.3534 24.2554C45.6262 22.7394 45.8517 21.1577 45.9047 19.8512C45.9311 19.1994 45.9156 18.5963 45.8343 18.0957C45.7566 17.6176 45.6042 17.1323 45.2724 16.8249L44.5873 17.5643ZM43.5691 30.0113C43.0793 29.8925 43.0793 29.8925 43.0793 29.8926C43.0792 29.8928 43.0792 29.893 43.0791 29.8932C43.079 29.8938 43.0788 29.8946 43.0785 29.8958C43.078 29.898 43.0771 29.9014 43.076 29.906C43.0738 29.9151 43.0705 29.9288 43.066 29.9469C43.0572 29.9831 43.044 30.0369 43.0267 30.1071C42.992 30.2476 42.9409 30.454 42.875 30.7168C42.7431 31.2423 42.5521 31.9935 42.316 32.895C41.8435 34.6985 41.1908 37.1013 40.4688 39.5027C39.7458 41.9074 38.9575 44.2966 38.2147 46.079C37.842 46.9731 37.4896 47.693 37.1724 48.1818C37.0131 48.4273 36.876 48.5934 36.7653 48.6929C36.6472 48.7989 36.6144 48.7803 36.6557 48.7803V49.7883C36.9767 49.7883 37.2426 49.619 37.4389 49.4428C37.6425 49.2598 37.8353 49.012 38.018 48.7305C38.3847 48.1653 38.7647 47.3795 39.1451 46.4667C39.9083 44.6354 40.7085 42.2064 41.4341 39.7929C42.1608 37.376 42.8169 34.9606 43.2911 33.1504C43.5282 32.2451 43.7201 31.4905 43.8527 30.9621C43.919 30.6979 43.9704 30.4901 44.0054 30.3484C44.0229 30.2775 44.0362 30.223 44.0452 30.1863C44.0497 30.1679 44.0531 30.1539 44.0554 30.1445C44.0565 30.1398 44.0574 30.1362 44.058 30.1338C44.0583 30.1326 44.0585 30.1317 44.0587 30.1311C44.0587 30.1308 44.0588 30.1305 44.0588 30.1304C44.0589 30.1302 44.0589 30.1301 43.5691 30.0113ZM36.6557 48.7803C36.6716 48.7803 36.6853 48.7827 36.6953 48.7856C36.7049 48.7885 36.7085 48.791 36.7059 48.7894L36.1946 49.6581C36.328 49.7366 36.4837 49.7883 36.6557 49.7883V48.7803ZM36.7103 48.7921C36.5923 48.721 36.4653 48.5648 36.3713 48.2432C36.2778 47.9237 36.2341 47.4965 36.2405 46.9762C36.2533 45.9374 36.4634 44.6376 36.747 43.3278C37.0294 42.0237 37.3787 40.7364 37.6594 39.7285C37.7989 39.2277 37.9232 38.7897 38.0116 38.4603C38.0559 38.2954 38.0929 38.1512 38.1192 38.0355C38.141 37.9392 38.1689 37.8087 38.1689 37.7023H37.1609C37.1609 37.6766 37.1625 37.6966 37.1362 37.8123C37.1144 37.9085 37.0814 38.0376 37.0381 38.1991C36.9513 38.5224 36.8301 38.9493 36.6884 39.4581C36.4067 40.4693 36.0508 41.7801 35.7619 43.1145C35.4741 44.4431 35.2467 45.822 35.2326 46.9637C35.2255 47.5336 35.2709 48.0721 35.4038 48.5263C35.5361 48.9784 35.7728 49.404 36.1901 49.6555L36.7103 48.7921ZM38.1689 37.7023C38.1689 37.374 38.0191 36.9859 37.8035 36.6861C37.588 36.3864 37.2125 36.0492 36.6922 36.0492V37.0572C36.7473 37.0572 36.8582 37.0981 36.9851 37.2746C37.112 37.4511 37.1609 37.6376 37.1609 37.7023H38.1689ZM36.6922 36.0492C36.0214 36.0492 35.4556 36.5952 34.9875 37.5138L35.8856 37.9715C36.3216 37.116 36.6325 37.0572 36.6922 37.0572V36.0492ZM34.9875 37.5138C34.3922 38.6815 33.595 40.5595 32.9518 42.1312C32.6289 42.9201 32.3427 43.6369 32.1373 44.1565C32.0345 44.4163 31.952 44.6269 31.895 44.7727C31.8665 44.8456 31.8445 44.9022 31.8295 44.9407C31.822 44.96 31.8163 44.9747 31.8125 44.9846C31.8105 44.9896 31.8091 44.9934 31.8081 44.9959C31.8076 44.9972 31.8072 44.9982 31.807 44.9988C31.8068 44.9991 31.8068 44.9994 31.8067 44.9996C31.8067 44.9996 31.8066 44.9997 31.8066 44.9998C31.8066 44.9998 31.8066 44.9998 32.2766 45.1817C32.7467 45.3636 32.7467 45.3635 32.7467 45.3635C32.7467 45.3635 32.7467 45.3634 32.7467 45.3634C32.7468 45.3632 32.7469 45.363 32.747 45.3627C32.7472 45.3621 32.7476 45.3612 32.748 45.36C32.749 45.3576 32.7504 45.3539 32.7523 45.3491C32.756 45.3394 32.7616 45.3249 32.769 45.3059C32.7838 45.2679 32.8056 45.2118 32.8339 45.1395C32.8904 44.9949 32.9725 44.7856 33.0747 44.5271C33.279 44.0102 33.5637 43.2973 33.8846 42.513C34.5291 40.9386 35.3118 39.097 35.8855 37.9715L34.9875 37.5138ZM31.7851 45.0704C31.6586 45.6288 31.2387 46.4944 30.7283 47.2306C30.476 47.5944 30.2173 47.9035 29.9838 48.1156C29.8672 48.2215 29.7672 48.2936 29.6873 48.337C29.6045 48.382 29.5693 48.3821 29.5734 48.3821V49.3901C29.9939 49.3901 30.3774 49.1197 30.6614 48.8619C30.9708 48.5809 31.2787 48.2059 31.5567 47.8049C32.1068 47.0115 32.6024 46.0249 32.7682 45.293L31.7851 45.0704ZM29.5734 48.3821C29.6374 48.3821 29.6458 48.4402 29.6054 48.3587C29.5497 48.2463 29.4876 48.0041 29.4779 47.5541C29.4588 46.6664 29.6445 45.1811 30.1743 42.8595L29.1916 42.6352C28.6575 44.9756 28.4482 46.5597 28.4702 47.5759C28.481 48.0777 28.5485 48.4962 28.7023 48.8064C28.8713 49.1474 29.1691 49.3901 29.5734 49.3901V48.3821ZM29.683 42.7474C30.1707 42.8742 30.1708 42.8742 30.1708 42.8741C30.1708 42.8741 30.1708 42.874 30.1708 42.874C30.1708 42.8738 30.1709 42.8736 30.171 42.8734C30.1711 42.8728 30.1713 42.8719 30.1716 42.8708C30.1722 42.8685 30.1731 42.8651 30.1743 42.8605C30.1767 42.8514 30.1802 42.8378 30.1848 42.8201C30.1941 42.7846 30.2078 42.7323 30.2253 42.6655C30.2604 42.5319 30.311 42.3399 30.373 42.1071C30.4969 41.6414 30.6661 41.0125 30.8473 40.3596C31.0286 39.7061 31.2212 39.0311 31.3921 38.4721C31.5684 37.8952 31.7081 37.488 31.7833 37.3358L30.8795 36.8895C30.7606 37.1304 30.5972 37.6241 30.4281 38.1774C30.2535 38.7487 30.0582 39.4332 29.876 40.0901C29.6936 40.7476 29.5234 41.38 29.3989 41.8479C29.3366 42.0819 29.2857 42.2749 29.2504 42.4095C29.2327 42.4768 29.2189 42.5295 29.2096 42.5654C29.2049 42.5833 29.2013 42.5971 29.1989 42.6064C29.1977 42.611 29.1967 42.6145 29.1961 42.6169C29.1958 42.6181 29.1956 42.619 29.1954 42.6196C29.1953 42.6199 29.1953 42.6202 29.1952 42.6203C29.1952 42.6204 29.1952 42.6205 29.1952 42.6205C29.1952 42.6205 29.1952 42.6206 29.683 42.7474ZM31.7825 37.3374C31.994 36.9131 31.8555 36.4195 31.6343 36.0905C31.3958 35.7359 30.9743 35.4293 30.4227 35.4293V36.4373C30.5743 36.4373 30.7076 36.5188 30.7979 36.653C30.8427 36.7197 30.8671 36.7867 30.8755 36.8384C30.8842 36.8927 30.872 36.9045 30.8803 36.8879L31.7825 37.3374ZM30.4227 35.4293C29.9025 35.4293 29.3783 35.7017 28.885 36.2348C28.3924 36.767 27.8941 37.595 27.4069 38.81L28.3425 39.1852C28.8051 38.0314 29.2474 37.3272 29.6248 36.9195C30.0013 36.5126 30.2763 36.4373 30.4227 36.4373V35.4293ZM27.4067 38.8106C26.4343 41.2442 25.7669 42.8977 25.3426 43.9425C25.1305 44.4649 24.9792 44.8351 24.881 45.0745C24.8318 45.1942 24.796 45.2813 24.7725 45.3383C24.7607 45.3668 24.7521 45.3878 24.7463 45.4016C24.7435 45.4085 24.7414 45.4136 24.74 45.417C24.7393 45.4187 24.7387 45.4199 24.7384 45.4207C24.7382 45.4211 24.7381 45.4214 24.738 45.4216C24.738 45.4217 24.738 45.4218 24.738 45.4218C24.7379 45.4219 24.7379 45.4219 24.7379 45.4219C24.7379 45.4219 24.7379 45.4219 25.2034 45.6151C25.6689 45.8084 25.6689 45.8084 25.6689 45.8083C25.6689 45.8083 25.6689 45.8083 25.6689 45.8083C25.669 45.8082 25.669 45.8081 25.6691 45.808C25.6692 45.8078 25.6693 45.8074 25.6695 45.807C25.6699 45.8061 25.6704 45.8047 25.6711 45.8029C25.6726 45.7994 25.6748 45.7941 25.6777 45.787C25.6836 45.7728 25.6924 45.7515 25.7043 45.7227C25.7281 45.665 25.7642 45.5774 25.8135 45.4571C25.9123 45.2164 26.064 44.8451 26.2766 44.3217C26.7016 43.2749 27.3698 41.6197 28.3427 39.1846L27.4067 38.8106ZM24.7398 45.4174C24.539 45.8881 24.2129 46.411 23.8698 46.8098C23.6984 47.009 23.5347 47.1633 23.3932 47.2637C23.3231 47.3134 23.2661 47.3444 23.2232 47.362C23.1797 47.3798 23.1624 47.3791 23.1668 47.3791V48.3871C23.4763 48.3871 23.7581 48.2406 23.9763 48.0859C24.2057 47.9232 24.4292 47.7052 24.634 47.4672C25.0432 46.9915 25.4249 46.3804 25.667 45.8129L24.7398 45.4174ZM23.1668 47.3791C23.1793 47.3791 23.2059 47.3848 23.2281 47.4012C23.2449 47.4136 23.2312 47.4119 23.2066 47.3561C23.1519 47.2321 23.0974 46.966 23.1107 46.4742C23.137 45.5048 23.4175 43.8762 24.1318 41.31L23.1608 41.0397C22.4413 43.6244 22.1328 45.35 22.1031 46.447C22.0884 46.9884 22.1392 47.4336 22.2842 47.7626C22.3594 47.9332 22.4691 48.0934 22.628 48.2111C22.7923 48.3328 22.9797 48.3871 23.1668 48.3871V47.3791ZM24.1318 41.3102C26.1999 33.8879 27.8845 27.9974 28.1219 27.166L27.1526 26.8892C26.9151 27.7211 25.2298 33.6141 23.1608 41.0396L24.1318 41.3102ZM28.1252 27.1539C28.1375 27.1065 28.1646 27.0129 28.1822 26.9221L27.1927 26.73C27.183 26.7803 27.1736 26.8076 27.1493 26.9013L28.1252 27.1539ZM28.1783 26.9404C28.2986 26.4243 28.8869 23.9391 29.6665 21.5881C30.0573 20.4093 30.489 19.2868 30.9251 18.467C31.1442 18.0551 31.3517 17.7442 31.5393 17.543C31.7385 17.3295 31.8432 17.3155 31.8565 17.3155V16.3075C31.4201 16.3075 31.0647 16.574 30.8022 16.8555C30.5282 17.1493 30.2724 17.5477 30.0352 17.9936C29.5587 18.8892 29.106 20.0757 28.7097 21.2708C27.915 23.6674 27.3183 26.1895 27.1966 26.7116L28.1783 26.9404ZM31.8565 17.3155C31.8603 17.3155 31.8689 17.3155 31.8884 17.326C31.911 17.3382 31.9524 17.3671 32.0088 17.4326L32.7728 16.7751C32.5361 16.5001 32.2295 16.3075 31.8565 16.3075V17.3155ZM32.008 17.4318C32.8792 18.4486 33.1254 19.7248 33.0063 21.3659C32.8859 23.0251 32.4024 24.9536 31.8986 27.2365L32.8829 27.4537C33.3746 25.2259 33.8843 23.1929 34.0116 21.4388C34.1403 19.6665 33.8887 18.0775 32.7735 16.7759L32.008 17.4318ZM31.8985 27.2373C31.7112 28.092 31.6471 28.7177 31.7058 29.1521C31.7354 29.3707 31.8029 29.5967 31.9543 29.7753C32.1233 29.9747 32.3512 30.0617 32.578 30.0617V29.0537C32.6176 29.0537 32.6823 29.0752 32.7233 29.1236C32.7466 29.1511 32.7214 29.1406 32.7047 29.0171C32.671 28.7672 32.7005 28.2866 32.8831 27.453L31.8985 27.2373ZM32.578 30.0617C32.7707 30.0617 32.9475 30.0008 33.0894 29.9327C33.2355 29.8626 33.3762 29.7695 33.5055 29.6705L32.8926 28.8703C32.7981 28.9427 32.7174 28.9932 32.6533 29.0239C32.5853 29.0566 32.5633 29.0537 32.578 29.0537V30.0617ZM33.5013 29.6737C34.3397 29.0452 34.8869 28.0866 35.1322 27.0589L34.1517 26.8249C33.9495 27.6722 33.5104 28.407 32.8967 28.8672L33.5013 29.6737ZM35.1321 27.0595C35.4578 25.7019 36.047 23.3519 36.7065 21.263C37.0368 20.2171 37.3805 19.2499 37.7132 18.5096C37.8799 18.1388 38.0381 17.8377 38.1838 17.6163C38.3391 17.3803 38.4437 17.2918 38.4827 17.271L38.0069 16.3823C37.7376 16.5265 37.5189 16.7929 37.3417 17.0622C37.155 17.346 36.9717 17.7006 36.7938 18.0964C36.4375 18.8893 36.08 19.8994 35.7453 20.9595C35.0749 23.0829 34.4791 25.4604 34.1519 26.8243L35.1321 27.0595ZM38.4883 17.2679C38.5219 17.2494 38.5453 17.2404 38.5583 17.2365C38.5715 17.2325 38.5698 17.2349 38.5553 17.2349V16.2269C38.3564 16.2269 38.1668 16.294 38.0013 16.3854L38.4883 17.2679ZM38.5553 14.4629C38.1275 14.4629 37.7084 14.5799 37.3077 14.795L37.7846 15.6831C38.0597 15.5353 38.3164 15.4709 38.5553 15.4709V14.4629ZM37.3098 14.7939C37.0236 14.9459 36.6381 15.1599 36.1725 15.8198C35.727 16.4512 35.2109 17.4851 34.595 19.2622L35.5474 19.5923C36.1507 17.8515 36.63 16.9198 36.9962 16.4009C37.3423 15.9104 37.5847 15.7892 37.7825 15.6842L37.3098 14.7939ZM35.5716 19.3673C35.4061 17.9866 34.9198 16.7049 33.933 15.5558L33.1683 16.2125C34.008 17.1903 34.4258 18.2774 34.5708 19.4873L35.5716 19.3673ZM33.9339 15.5569C33.2252 14.7269 32.4226 14.5334 31.8565 14.5334V15.5414C32.1764 15.5414 32.6797 15.6403 33.1673 16.2114L33.9339 15.5569ZM31.8565 14.5334C30.8389 14.5334 30.002 15.0809 29.2725 16.092C28.5539 17.0881 27.893 18.5927 27.2091 20.6546L28.1659 20.972C28.8427 18.9313 29.465 17.548 30.09 16.6818C30.7041 15.8306 31.2714 15.5414 31.8565 15.5414V14.5334ZM27.2091 20.6546C26.3842 23.142 25.7636 25.766 25.6485 26.264L26.6306 26.4909C26.7438 26.0011 27.356 23.4137 28.1659 20.9719L27.2091 20.6546ZM25.6516 26.2511C25.647 26.2688 25.6425 26.2864 25.6379 26.3041C25.6333 26.3217 25.6288 26.3393 25.6242 26.357L26.6 26.6096C26.6046 26.592 26.6092 26.5743 26.6137 26.5567C26.6183 26.539 26.6229 26.5214 26.6274 26.5038L25.6516 26.2511ZM25.6278 26.3439C25.3168 27.424 23.6726 33.1911 21.6311 40.5103L22.6021 40.7811C24.6429 33.4641 26.2864 27.6997 26.5964 26.6227L25.6278 26.3439ZM21.631 40.5106C20.8974 43.1474 20.5608 44.9479 20.5046 46.237C20.4478 47.5402 20.6759 48.3617 21.1044 49.0005L21.9415 48.439C21.6668 48.0295 21.4611 47.4398 21.5116 46.2809C21.5628 45.108 21.8746 43.3956 22.6021 40.7808L21.631 40.5106ZM21.1046 49.0008C21.5827 49.7126 22.3318 50.1411 23.1668 50.1411V49.1331C22.6959 49.1331 22.2486 48.8962 21.9413 48.4387L21.1046 49.0008ZM23.1668 50.1411C24.208 50.1411 25.0838 49.4694 25.7184 48.757C26.3663 48.0298 26.8531 47.1606 27.1138 46.5554L26.1881 46.1566C25.9602 46.6854 25.5268 47.4567 24.9658 48.0865C24.3915 48.7311 23.7696 49.1331 23.1668 49.1331V50.1411ZM27.1159 46.5504C27.1446 46.4819 27.5109 45.5923 28.4057 43.3853L27.4716 43.0066C26.5763 45.2146 26.2121 46.099 26.1859 46.1616L27.1159 46.5504ZM27.4455 43.0918C26.5706 47.2362 26.7581 48.9403 27.5453 50.054L28.3685 49.4721C27.8589 48.7513 27.5532 47.4616 28.4318 43.3L27.4455 43.0918ZM27.5444 50.0526C28.0243 50.7363 28.767 51.144 29.5734 51.144V50.136C29.1195 50.136 28.6749 49.9087 28.3694 49.4735L27.5444 50.0526ZM29.5734 51.144C30.2121 51.144 30.7997 50.8795 31.3078 50.5066C31.8167 50.133 32.2759 49.6293 32.6706 49.0928C33.457 48.0238 34.0426 46.7481 34.2745 45.8932L33.3016 45.6294C33.1043 46.357 32.5757 47.5207 31.8587 48.4955C31.5017 48.9807 31.1118 49.4 30.7113 49.694C30.31 49.9885 29.9278 50.136 29.5734 50.136V51.144ZM34.257 45.946C34.3485 45.7137 34.5856 45.1099 34.8957 44.3296L33.959 43.9573C33.6481 44.7394 33.4103 45.3452 33.3191 45.5766L34.257 45.946ZM33.931 44.0561C33.6538 45.6318 33.5333 47.0938 33.716 48.3114C33.9001 49.5381 34.4036 50.5771 35.4225 51.1924L35.9436 50.3295C35.2684 49.9218 34.8701 49.2094 34.7129 48.1618C34.5543 47.105 34.653 45.7698 34.9237 44.2308L33.931 44.0561ZM35.4202 51.191C35.7976 51.4217 36.2222 51.5371 36.6511 51.5371V50.5291C36.4043 50.5291 36.1622 50.4631 35.946 50.331L35.4202 51.191ZM36.6511 51.5371C37.1664 51.5371 37.672 51.3979 38.1723 51.0245C38.6574 50.6624 39.1162 50.0963 39.5853 49.2803C40.5206 47.6532 41.5743 44.8917 42.9467 40.3323L41.9814 40.0418C40.6095 44.5997 39.5832 47.2613 38.7114 48.7779C38.2769 49.5338 37.9004 49.9696 37.5694 50.2166C37.2536 50.4523 36.9624 50.5291 36.6511 50.5291V51.5371ZM42.9467 40.3322C44.3525 35.6571 45.5103 30.9292 45.5931 30.5891L44.6137 30.3507C44.5321 30.686 43.3793 35.393 41.9814 40.0419L42.9467 40.3322ZM45.5901 30.6006C45.6652 30.3212 46.3814 27.5693 46.9146 24.5862L45.9223 24.4089C45.3961 27.3528 44.6877 30.0744 44.6166 30.3393L45.5901 30.6006ZM46.9145 24.587C47.4766 21.4719 47.5953 19.4581 47.4433 18.0987C47.2882 16.7112 46.847 15.9772 46.296 15.4647L45.6095 16.2028C45.958 16.5269 46.309 17.0252 46.4416 18.2107C46.5773 19.4242 46.4791 21.3239 45.9225 24.408L46.9145 24.587ZM46.2948 15.4636C45.8184 15.0234 45.2333 14.7754 44.6057 14.7754V15.7834C44.9552 15.7834 45.3017 15.9184 45.6107 16.2039L46.2948 15.4636ZM44.6057 14.7754C43.5643 14.7754 42.7873 15.3821 42.1813 16.2624C41.5822 17.1328 41.0949 18.3456 40.6299 19.7362L41.5858 20.0558C42.0478 18.6744 42.4989 17.5789 43.0116 16.834C43.5176 16.0989 44.0259 15.7834 44.6057 15.7834V14.7754ZM40.6301 19.7355C40.2321 20.9206 39.8724 22.2087 39.592 23.3097L40.5688 23.5585C40.8455 22.4721 41.1982 21.2099 41.5856 20.0565L40.6301 19.7355ZM40.5792 23.5067C40.932 21.0848 41.1456 19.4034 41.1586 18.1846C41.1717 16.9562 40.9835 16.1124 40.4576 15.4263L39.6576 16.0396C39.9856 16.4674 40.1627 17.0448 40.1507 18.1739C40.1386 19.3126 39.9367 20.9249 39.5817 23.3614L40.5792 23.5067ZM40.4575 15.4262C39.9905 14.8176 39.3174 14.4629 38.5644 14.4629V15.4709C38.9804 15.4709 39.3667 15.6605 39.6578 16.0398L40.4575 15.4262ZM38.5644 14.4629H38.5553V15.4709H38.5644V14.4629Z" fill="#FEFFF4" mask="url(#path-3-inside-1_2389_17799)"/>
  <rect x="0.5" y="0.5" width="67" height="65" rx="11.5" stroke="#5B9F8F"/>
  <path fill="rgb(255,255,255)" stroke="rgb(255,255,255)" stroke-width="0" opacity="0.984313725490196" d="M 37.485 16.413 C 37.736 16.378 38.383 16.303 38.698 16.413 C 38.964 16.506 39.169 16.652 39.304 16.926 C 39.488 17.297 39.506 17.874 39.491 18.606 C 39.469 19.672 39.021 21.545 38.931 22.898 C 38.848 24.146 39.057 25.547 38.931 26.443 C 38.841 27.09 38.533 27.384 38.465 27.936 C 38.388 28.553 38.698 29.401 38.558 29.989 C 38.432 30.517 37.92 31.131 37.765 31.342 C 37.697 31.435 37.704 31.407 37.625 31.482 C 37.458 31.639 37.065 31.868 36.692 32.322 C 36.08 33.067 34.514 35.39 34.359 35.961 C 34.3 36.178 34.473 36.185 34.452 36.334 C 34.424 36.537 33.979 36.938 34.079 37.081 C 34.2 37.253 35.078 36.993 35.432 37.127 C 35.737 37.242 35.982 37.45 36.132 37.734 C 36.305 38.061 36.432 38.627 36.319 39.04 C 36.196 39.486 35.763 39.99 35.339 40.3 C 34.899 40.62 33.99 40.708 33.706 40.906 C 33.548 41.016 33.673 41.103 33.473 41.233 C 32.962 41.564 30.324 42.693 29.554 42.632 C 29.118 42.598 28.9 42.246 28.761 42.026 C 28.65 41.851 28.622 41.666 28.667 41.466 C 28.723 41.221 28.94 40.866 29.18 40.673 C 29.431 40.471 30.015 40.557 30.16 40.3 C 30.322 40.013 29.944 39.34 29.974 38.947 C 29.999 38.609 30.373 38.287 30.254 38.06 C 30.113 37.793 29.19 37.899 28.947 37.547 C 28.674 37.152 28.68 36.415 28.854 35.681 C 29.092 34.677 30.567 32.931 30.72 32.042 C 30.818 31.474 30.245 31.405 30.44 30.736 C 30.866 29.272 34.954 25.304 35.852 22.991 C 36.541 21.216 35.997 19.27 36.319 18.139 C 36.537 17.37 36.978 16.726 37.205 16.506 C 37.314 16.401 37.342 16.433 37.485 16.413 Z M 33.986 37.127 L 33.986 37.221 Z M 33.799 37.221 L 33.799 37.314 Z M 33.519 37.314 C 33.49 37.331 33.49 37.483 33.519 37.5 C 33.55 37.519 33.706 37.438 33.706 37.407 C 33.706 37.376 33.55 37.296 33.519 37.314 Z M 33.519 37.5 L 33.519 37.594 Z" style="fill: rgb(254, 255, 244); fill-opacity: 1; fill-rule: nonzero; stroke: rgb(254, 255, 244); stroke-dasharray: none; stroke-dashoffset: 0px; stroke-linecap: butt; stroke-linejoin: miter; stroke-miterlimit: 4; stroke-opacity: 1; stroke-width: 0.504px; paint-order: normal; vector-effect: none; opacity: 1; mix-blend-mode: normal; isolation: auto;"/>
</svg>