<svg width="69" height="67" viewBox="0 0 69 67" fill="none" xmlns="http://www.w3.org/2000/svg">
    <rect x="1.9375" y="1.24707" width="66" height="64" rx="11" fill="#FEFFF4" />
    <path
        d="M29.9836 18.3686C27.8905 18.8027 23.4517 20.3644 21.903 25.9373C21.4235 27.6545 21.5337 29.5078 22.3372 31.0954C23.1342 32.6765 24.6117 33.9985 27.2166 32.2553C27.2166 32.2553 34.876 36.584 34.8306 27.7517C34.8306 26.689 35.6017 25.8206 36.658 25.6781C37.2801 25.5938 41.6022 24.9523 41.8096 23.3388C41.8096 23.3388 43.3324 18.8416 39.4444 19.3406C38.6279 19.4442 37.9929 18.537 37.7596 17.7465C37.2217 15.8802 35.7573 13.4308 31.9276 17.3058C31.3962 17.8437 30.7158 18.213 29.9771 18.3686H29.9836Z"
        fill="#5B9F8F" stroke="#5B9F8F" stroke-width="2.26801" stroke-linecap="round"
        stroke-linejoin="round" />
    <path
        d="M38.8027 33.7973C38.8027 33.7973 41.8483 26.76 46.0474 29.9093C50.2464 33.0586 47.4146 38.5213 46.0474 38.8388C44.6801 39.1564 48.8856 46.7186 42.6842 49.5504C37.2281 52.0452 30.3139 52.5895 31.6682 45.5262C32.0246 43.673 32.9254 41.9622 34.2149 40.582L35.647 39.0462C35.647 39.0462 33.8585 33.1623 38.7962 33.7973H38.8027Z"
        fill="#5B9F8F" stroke="#5B9F8F" stroke-width="2.26801" stroke-linecap="round"
        stroke-linejoin="round" />
    <rect x="1.9375" y="1.24707" width="66" height="64" rx="11" stroke="#5B9F8F" stroke-width="2" />
</svg>
    