<svg width="69" height="67" viewBox="0 0 69 67" fill="none" xmlns="http://www.w3.org/2000/svg">
    <rect x="1.9375" y="1.24707" width="66" height="64" rx="11" fill="#FEFFF4" />
    <path d="M48.5781 16.0067H53.5749L48.5781 22.7171H53.5749" stroke="#5B9F8F" stroke-width="2"
        stroke-linecap="round" stroke-linejoin="round" />
    <path d="M22.0762 30.7595C22.0762 30.7595 25.3666 39.5507 28.477 30.7595" stroke="#5B9F8F"
        stroke-width="2" stroke-miterlimit="10" stroke-linecap="round" />
    <path d="M34.041 30.7595C34.041 30.7595 37.3314 39.5507 40.4418 30.7595" stroke="#5B9F8F"
        stroke-width="2" stroke-miterlimit="10" stroke-linecap="round" />
    <path d="M27.5391 42.4308H34.9767" stroke="#5B9F8F" stroke-width="2" stroke-miterlimit="10"
        stroke-linecap="round" />
    <path
        d="M31.2624 50.4876C39.5254 50.4876 46.2239 43.789 46.2239 35.526C46.2239 27.2629 39.5254 20.5643 31.2624 20.5643C22.9993 20.5643 16.3008 27.2629 16.3008 35.526C16.3008 43.789 22.9993 50.4876 31.2624 50.4876Z"
        stroke="#5B9F8F" stroke-width="2" stroke-miterlimit="10" />
    <rect x="1.9375" y="1.24707" width="66" height="64" rx="11" stroke="#5B9F8F" stroke-width="2" />
</svg>
    