<svg width="69" height="67" viewBox="0 0 69 67" fill="none" xmlns="http://www.w3.org/2000/svg">
    <rect x="1.9375" y="1.24707" width="66" height="64" rx="11" fill="#FEFFF4" />
    <path d="M25.8945 29.557L31.3017 31.6018" stroke="#5B9F8F" stroke-width="2"
        stroke-linecap="round" stroke-linejoin="round" />
    <path d="M25.7441 33.6466L31.3025 31.6018" stroke="#5B9F8F" stroke-width="2"
        stroke-linecap="round" stroke-linejoin="round" />
    <path d="M42.5634 33.7978L37.1562 31.7458" stroke="#5B9F8F" stroke-width="2"
        stroke-linecap="round" stroke-linejoin="round" />
    <path d="M42.7074 29.701L37.1562 31.7458" stroke="#5B9F8F" stroke-width="2"
        stroke-linecap="round" stroke-linejoin="round" />
    <path
        d="M28.1621 44.4826C28.5149 41.3866 31.1861 39.0322 34.3037 39.0682C37.4141 39.1114 40.0205 41.5234 40.3013 44.6266"
        stroke="#5B9F8F" stroke-width="2" stroke-linecap="round" stroke-linejoin="round" />
    <path d="M16.1246 15.769L14.123 19.5418L18.0182 19.189L15.4838 23.9771" stroke="#5B9F8F"
        stroke-width="2" stroke-linecap="round" stroke-linejoin="round" />
    <path d="M53.859 15.769L51.8574 19.5418L55.7526 19.189L53.211 23.977" stroke="#5B9F8F"
        stroke-width="2" stroke-linecap="round" stroke-linejoin="round" />
    <path
        d="M34.2253 50.725C42.4883 50.725 49.1868 44.0265 49.1868 35.7634C49.1868 27.5003 42.4883 20.8018 34.2253 20.8018C25.9622 20.8018 19.2637 27.5003 19.2637 35.7634C19.2637 44.0265 25.9622 50.725 34.2253 50.725Z"
        stroke="#5B9F8F" stroke-width="2" stroke-miterlimit="10" />
    <rect x="1.9375" y="1.24707" width="66" height="64" rx="11" stroke="#5B9F8F" stroke-width="2" />
</svg>
    