<svg width="69" height="67" viewBox="0 0 69 67" fill="none" xmlns="http://www.w3.org/2000/svg">
    <rect x="1.9375" y="1.24707" width="66" height="64" rx="11" fill="#FEFFF4" />
    <path d="M20.4336 28.4123L24.9912 30.1331" stroke="#5B9F8F" stroke-width="2"
        stroke-linecap="round" stroke-linejoin="round" />
    <path d="M20.3105 31.8611L24.9905 30.1331" stroke="#5B9F8F" stroke-width="2"
        stroke-linecap="round" stroke-linejoin="round" />
    <path d="M34.4873 31.9835L29.9297 30.2555" stroke="#5B9F8F" stroke-width="2"
        stroke-linecap="round" stroke-linejoin="round" />
    <path d="M34.6169 28.5347L29.9297 30.2555" stroke="#5B9F8F" stroke-width="2"
        stroke-linecap="round" stroke-linejoin="round" />
    <path
        d="M20.002 35.6051C21.3484 36.1451 22.2628 37.3835 22.2988 38.7371C22.3492 40.4003 21.082 41.9555 19.2676 42.2867"
        stroke="#5B9F8F" stroke-width="2" stroke-linecap="round" stroke-linejoin="round" />
    <path
        d="M33.8979 42.2867C32.5515 41.7467 31.6371 40.5083 31.6011 39.1547C31.5507 37.4915 32.8179 35.9363 34.6323 35.6051"
        stroke="#5B9F8F" stroke-width="2" stroke-linecap="round" stroke-linejoin="round" />
    <path d="M22.3047 38.7371H31.5999" stroke="#5B9F8F" stroke-width="2" stroke-linecap="round"
        stroke-linejoin="round" />
    <path
        d="M51.617 30.1475C52.4043 30.1475 53.0426 29.5093 53.0426 28.7219C53.0426 27.9346 52.4043 27.2963 51.617 27.2963C50.8297 27.2963 50.1914 27.9346 50.1914 28.7219C50.1914 29.5093 50.8297 30.1475 51.617 30.1475Z"
        fill="#5B9F8F" stroke="#5B9F8F" stroke-width="2" stroke-linecap="round"
        stroke-linejoin="round" />
    <path
        d="M46.5049 23.0483C47.6143 23.0483 48.5137 22.1489 48.5137 21.0395C48.5137 19.9301 47.6143 19.0307 46.5049 19.0307C45.3955 19.0307 44.4961 19.9301 44.4961 21.0395C44.4961 22.1489 45.3955 23.0483 46.5049 23.0483Z"
        fill="#5B9F8F" stroke="#5B9F8F" stroke-width="2" stroke-linecap="round"
        stroke-linejoin="round" />
    <path
        d="M55.1362 20.7587C56.2934 20.7587 57.2314 19.8206 57.2314 18.6635C57.2314 17.5064 56.2934 16.5683 55.1362 16.5683C53.9791 16.5683 53.041 17.5064 53.041 18.6635C53.041 19.8206 53.9791 20.7587 55.1362 20.7587Z"
        fill="#5B9F8F" stroke="#5B9F8F" stroke-width="2" stroke-linecap="round"
        stroke-linejoin="round" />
    <path
        d="M27.6042 49.926C35.8672 49.926 42.5657 43.2274 42.5657 34.9643C42.5657 26.7013 35.8672 20.0027 27.6042 20.0027C19.3411 20.0027 12.6426 26.7013 12.6426 34.9643C12.6426 43.2274 19.3411 49.926 27.6042 49.926Z"
        stroke="#5B9F8F" stroke-width="2" stroke-miterlimit="10" />
    <rect x="1.9375" y="1.24707" width="66" height="64" rx="11" stroke="#5B9F8F" stroke-width="2" />
</svg>
    