<svg width="69" height="67" viewBox="0 0 69 67" fill="none" xmlns="http://www.w3.org/2000/svg">
<rect x="1.9375" y="1.24707" width="66" height="64" rx="11" fill="#5B9F8F"/>
<path d="M41.0664 16.2172C41.0664 16.2172 41.7144 18.872 47.7557 26.509C53.797 34.1459 43.1847 38.6333 43.1847 38.6333" stroke="#FEFFF4" stroke-width="2" stroke-linecap="round" stroke-linejoin="round"/>
<path d="M35.6384 33.4352C35.6384 33.4352 32.0987 49.4686 21.0195 36.2642" stroke="#FEFFF4" stroke-width="2" stroke-linecap="round" stroke-linejoin="round"/>
<path d="M46.6335 34.0623C47.7341 34.0623 48.6263 33.1701 48.6263 32.0695C48.6263 30.9689 47.7341 30.0766 46.6335 30.0766C45.5329 30.0766 44.6406 30.9689 44.6406 32.0695C44.6406 33.1701 45.5329 34.0623 46.6335 34.0623Z" stroke="#FEFFF4" stroke-width="2" stroke-linecap="round" stroke-linejoin="round"/>
<path d="M28.3288 37.4C29.4294 37.4 30.3216 36.5078 30.3216 35.4071C30.3216 34.3065 29.4294 33.4143 28.3288 33.4143C27.2282 33.4143 26.3359 34.3065 26.3359 35.4071C26.3359 36.5078 27.2282 37.4 28.3288 37.4Z" stroke="#FEFFF4" stroke-width="2" stroke-linecap="round" stroke-linejoin="round"/>
<path d="M17.0123 20.4677L15.4375 23.4361L18.5034 23.1574L16.5036 26.9201" stroke="#FEFFF4" stroke-width="2" stroke-linecap="round" stroke-linejoin="round"/>
<path d="M52.9459 16.2172L51.3711 19.1856L54.437 18.9069L52.4372 22.6696" stroke="#FEFFF4" stroke-width="2" stroke-linecap="round" stroke-linejoin="round"/>
<path d="M37.2204 43.8245L35.6387 46.7929L38.7046 46.5142L36.7117 50.2769" stroke="#FEFFF4" stroke-width="2" stroke-linecap="round" stroke-linejoin="round"/>
<rect x="1.9375" y="1.24707" width="66" height="64" rx="11" stroke="#5B9F8F" stroke-width="2"/>
</svg>