<svg width="88" height="87" viewBox="0 0 88 87" fill="none" xmlns="http://www.w3.org/2000/svg">
    <g filter="url(#filter0_d_1726_16205)">
        <rect x="10" y="10.4882" width="68" height="66" rx="12" fill="#5B9F8F" />
        <g clip-path="url(#clip0_1726_16205)">
            <path d="M38.3574 37.513L42.311 39.9378" stroke="#FEFFF4" stroke-width="1.68"
                stroke-miterlimit="10" stroke-linecap="round" />
            <path d="M49.9887 36.9474L46.2031 39.9378" stroke="#FEFFF4" stroke-width="1.68"
                stroke-miterlimit="10" stroke-linecap="round" />
            <path
                d="M40.0099 43.2362C40.4274 43.2362 40.7659 42.8977 40.7659 42.4802C40.7659 42.0627 40.4274 41.7242 40.0099 41.7242C39.5924 41.7242 39.2539 42.0627 39.2539 42.4802C39.2539 42.8977 39.5924 43.2362 40.0099 43.2362Z"
                fill="#5B9F8F" stroke="#FEFFF4" stroke-width="1.96" stroke-miterlimit="10"
                stroke-linecap="round" />
            <path
                d="M48.1349 43.2362C48.5524 43.2362 48.8909 42.8977 48.8909 42.4802C48.8909 42.0627 48.5524 41.7242 48.1349 41.7242C47.7174 41.7242 47.3789 42.0627 47.3789 42.4802C47.3789 42.8977 47.7174 43.2362 48.1349 43.2362Z"
                fill="#FEFFF4" stroke="#FEFFF4" stroke-width="1.96" stroke-miterlimit="10"
                stroke-linecap="round" />
            <path d="M40.3359 50.0626C40.3359 50.0626 44.2391 43.7458 48.1423 50.0626H40.3359Z"
                fill="#FEFFF4" />
            <path d="M40.3359 50.0626C40.3359 50.0626 44.2391 43.7458 48.1423 50.0626"
                stroke="#FEFFF4" stroke-width="1.96" stroke-miterlimit="10" stroke-linecap="round" />
            <path
                d="M43.9981 54.705C50.1929 54.705 55.2149 49.6831 55.2149 43.4882C55.2149 37.2934 50.1929 32.2714 43.9981 32.2714C37.8032 32.2714 32.7812 37.2934 32.7812 43.4882C32.7812 49.6831 37.8032 54.705 43.9981 54.705Z"
                stroke="#FEFFF4" stroke-width="1.96" stroke-miterlimit="10" />
            <path d="M29.4991 43.281H23.8711" stroke="#FEFFF4" stroke-width="1.96"
                stroke-miterlimit="10" stroke-linecap="round" />
            <path d="M44.0703 28.8666V23.3842" stroke="#FEFFF4" stroke-width="1.96"
                stroke-miterlimit="10" stroke-linecap="round" />
            <path d="M54.7051 33.3858L58.6475 29.4434" stroke="#FEFFF4" stroke-width="1.96"
                stroke-miterlimit="10" stroke-linecap="round" />
            <path d="M58.6465 43.281H64.1289" stroke="#FEFFF4" stroke-width="1.96"
                stroke-miterlimit="10" stroke-linecap="round" />
            <path d="M33.9798 33.7106L30.043 29.7682" stroke="#FEFFF4" stroke-width="1.96"
                stroke-miterlimit="10" stroke-linecap="round" />
            <path d="M44.0703 63.5922V58.1098" stroke="#FEFFF4" stroke-width="1.96"
                stroke-miterlimit="10" stroke-linecap="round" />
            <path d="M29.5 57.1242L33.4424 53.1818" stroke="#FEFFF4" stroke-width="1.96"
                stroke-miterlimit="10" stroke-linecap="round" />
            <path d="M58.6475 57.1242L54.7051 53.1818" stroke="#FEFFF4" stroke-width="1.96"
                stroke-miterlimit="10" stroke-linecap="round" />
        </g>
        <rect x="10.5" y="10.9882" width="67" height="65" rx="11.5" stroke="#5B9F8F" />
    </g>
    <defs>
        <filter id="filter0_d_1726_16205" x="0" y="0.488159" width="88" height="86"
            filterUnits="userSpaceOnUse" color-interpolation-filters="sRGB">
            <feFlood flood-opacity="0" result="BackgroundImageFix" />
            <feColorMatrix in="SourceAlpha" type="matrix"
                values="0 0 0 0 0 0 0 0 0 0 0 0 0 0 0 0 0 0 127 0" result="hardAlpha" />
            <feMorphology radius="4" operator="dilate" in="SourceAlpha"
                result="effect1_dropShadow_1726_16205" />
            <feOffset />
            <feGaussianBlur stdDeviation="3" />
            <feComposite in2="hardAlpha" operator="out" />
            <feColorMatrix type="matrix"
                values="0 0 0 0 0.356863 0 0 0 0 0.623529 0 0 0 0 0.560784 0 0 0 0.5 0" />
            <feBlend mode="normal" in2="BackgroundImageFix" result="effect1_dropShadow_1726_16205" />
            <feBlend mode="normal" in="SourceGraphic" in2="effect1_dropShadow_1726_16205"
                result="shape" />
        </filter>
        <clipPath id="clip0_1726_16205">
            <rect width="40.2585" height="40.208" fill="white"
                transform="translate(23.8711 23.3842)" />
        </clipPath>
    </defs>
</svg>
    