<svg width="68" height="66" viewBox="0 0 68 66" fill="none" xmlns="http://www.w3.org/2000/svg">
<rect x="1" y="1" width="66" height="64" rx="11" fill="#5B9F8F"/>
<path d="M28.3574 27.0248L32.311 29.4496" stroke="#FEFFF4" stroke-width="1.68" stroke-miterlimit="10" stroke-linecap="round"/>
<path d="M39.9887 26.4592L36.2031 29.4496" stroke="#FEFFF4" stroke-width="1.68" stroke-miterlimit="10" stroke-linecap="round"/>
<path d="M30.0099 32.748C30.4274 32.748 30.7659 32.4096 30.7659 31.992C30.7659 31.5745 30.4274 31.236 30.0099 31.236C29.5924 31.236 29.2539 31.5745 29.2539 31.992C29.2539 32.4096 29.5924 32.748 30.0099 32.748Z" fill="#FEFFF4" stroke="#FEFFF4" stroke-width="1.96" stroke-miterlimit="10" stroke-linecap="round"/>
<path d="M38.1349 32.748C38.5524 32.748 38.8909 32.4096 38.8909 31.992C38.8909 31.5745 38.5524 31.236 38.1349 31.236C37.7174 31.236 37.3789 31.5745 37.3789 31.992C37.3789 32.4096 37.7174 32.748 38.1349 32.748Z" fill="#FEFFF4" stroke="#FEFFF4" stroke-width="1.96" stroke-miterlimit="10" stroke-linecap="round"/>
<path d="M30.3359 39.5744C30.3359 39.5744 34.2391 33.2576 38.1423 39.5744" stroke="#FEFFF4" stroke-width="1.96" stroke-miterlimit="10" stroke-linecap="round"/>
<path d="M33.9981 44.2169C40.1929 44.2169 45.2149 39.1949 45.2149 33.0001C45.2149 26.8052 40.1929 21.7833 33.9981 21.7833C27.8032 21.7833 22.7812 26.8052 22.7812 33.0001C22.7812 39.1949 27.8032 44.2169 33.9981 44.2169Z" stroke="#FEFFF4" stroke-width="1.96" stroke-miterlimit="10"/>
<path d="M19.4991 32.7928H13.8711" stroke="#FEFFF4" stroke-width="1.96" stroke-miterlimit="10" stroke-linecap="round"/>
<path d="M34.0703 18.3784V12.896" stroke="#FEFFF4" stroke-width="1.96" stroke-miterlimit="10" stroke-linecap="round"/>
<path d="M44.7051 22.8977L48.6475 18.9553" stroke="#FEFFF4" stroke-width="1.96" stroke-miterlimit="10" stroke-linecap="round"/>
<path d="M48.6465 32.7928H54.1289" stroke="#FEFFF4" stroke-width="1.96" stroke-miterlimit="10" stroke-linecap="round"/>
<path d="M23.9798 23.2224L20.043 19.28" stroke="#FEFFF4" stroke-width="1.96" stroke-miterlimit="10" stroke-linecap="round"/>
<path d="M34.0703 53.104V47.6216" stroke="#FEFFF4" stroke-width="1.96" stroke-miterlimit="10" stroke-linecap="round"/>
<path d="M19.5 46.636L23.4424 42.6936" stroke="#FEFFF4" stroke-width="1.96" stroke-miterlimit="10" stroke-linecap="round"/>
<path d="M48.6475 46.636L44.7051 42.6936" stroke="#FEFFF4" stroke-width="1.96" stroke-miterlimit="10" stroke-linecap="round"/>
<rect x="1" y="1" width="66" height="64" rx="11" stroke="#5B9F8F" stroke-width="2"/>
</svg>
