<svg width="69" height="67" viewBox="0 0 69 67" fill="none" xmlns="http://www.w3.org/2000/svg">
    <rect x="1.9375" y="1.48816" width="66" height="64" rx="11" fill="#FEFFF4" />
    <path d="M29.2949 27.513L33.2485 29.9378" stroke="#5B9F8F" stroke-width="1.68"
        stroke-miterlimit="10" stroke-linecap="round" />
    <path d="M40.9262 26.9474L37.1406 29.9378" stroke="#5B9F8F" stroke-width="1.68"
        stroke-miterlimit="10" stroke-linecap="round" />
    <path
        d="M30.9474 33.2362C31.3649 33.2362 31.7034 32.8977 31.7034 32.4802C31.7034 32.0627 31.3649 31.7242 30.9474 31.7242C30.5299 31.7242 30.1914 32.0627 30.1914 32.4802C30.1914 32.8977 30.5299 33.2362 30.9474 33.2362Z"
        fill="#5B9F8F" stroke="#5B9F8F" stroke-width="1.96" stroke-miterlimit="10"
        stroke-linecap="round" />
    <path
        d="M39.0724 33.2362C39.4899 33.2362 39.8284 32.8977 39.8284 32.4802C39.8284 32.0627 39.4899 31.7242 39.0724 31.7242C38.6549 31.7242 38.3164 32.0627 38.3164 32.4802C38.3164 32.8977 38.6549 33.2362 39.0724 33.2362Z"
        fill="#5B9F8F" stroke="#5B9F8F" stroke-width="1.96" stroke-miterlimit="10"
        stroke-linecap="round" />
    <path d="M31.2734 40.0626C31.2734 40.0626 35.1766 33.7458 39.0798 40.0626" stroke="#5B9F8F"
        stroke-width="1.96" stroke-miterlimit="10" stroke-linecap="round" />
    <path
        d="M34.9356 44.705C41.1304 44.705 46.1524 39.6831 46.1524 33.4882C46.1524 27.2934 41.1304 22.2714 34.9356 22.2714C28.7407 22.2714 23.7188 27.2934 23.7188 33.4882C23.7188 39.6831 28.7407 44.705 34.9356 44.705Z"
        stroke="#5B9F8F" stroke-width="1.96" stroke-miterlimit="10" />
    <path d="M20.4366 33.281H14.8086" stroke="#5B9F8F" stroke-width="1.96" stroke-miterlimit="10"
        stroke-linecap="round" />
    <path d="M35.0078 18.8666V13.3842" stroke="#5B9F8F" stroke-width="1.96" stroke-miterlimit="10"
        stroke-linecap="round" />
    <path d="M45.6426 23.3858L49.585 19.4434" stroke="#5B9F8F" stroke-width="1.96"
        stroke-miterlimit="10" stroke-linecap="round" />
    <path d="M49.584 33.281H55.0664" stroke="#5B9F8F" stroke-width="1.96" stroke-miterlimit="10"
        stroke-linecap="round" />
    <path d="M24.9173 23.7106L20.9805 19.7682" stroke="#5B9F8F" stroke-width="1.96"
        stroke-miterlimit="10" stroke-linecap="round" />
    <path d="M35.0078 53.5922V48.1098" stroke="#5B9F8F" stroke-width="1.96" stroke-miterlimit="10"
        stroke-linecap="round" />
    <path d="M20.4375 47.1242L24.3799 43.1818" stroke="#5B9F8F" stroke-width="1.96"
        stroke-miterlimit="10" stroke-linecap="round" />
    <path d="M49.585 47.1242L45.6426 43.1818" stroke="#5B9F8F" stroke-width="1.96"
        stroke-miterlimit="10" stroke-linecap="round" />
    <rect x="1.9375" y="1.48816" width="66" height="64" rx="11" stroke="#5B9F8F" stroke-width="2" />
</svg>
    