<svg width="68" height="66" viewBox="0 0 68 66" fill="none" xmlns="http://www.w3.org/2000/svg">
<rect x="1" y="1" width="66" height="64" rx="11" fill="#5B9F8F"/>
<path d="M34.25 44.2168C40.4449 44.2168 45.4668 39.1949 45.4668 33C45.4668 26.8051 40.4449 21.7832 34.25 21.7832C28.0551 21.7832 23.0332 26.8051 23.0332 33C23.0332 39.1949 28.0551 44.2168 34.25 44.2168Z" stroke="#FEFFF4" stroke-width="1.96" stroke-miterlimit="10"/>
<path d="M27.5527 28.1112L31.4503 26.7504" stroke="#FEFFF4" stroke-width="1.68" stroke-miterlimit="10" stroke-linecap="round"/>
<path d="M36.625 26.756L40.5282 28.1056" stroke="#FEFFF4" stroke-width="1.68" stroke-miterlimit="10" stroke-linecap="round"/>
<path d="M29.7697 31.964C30.1872 31.964 30.5257 31.6256 30.5257 31.208C30.5257 30.7905 30.1872 30.452 29.7697 30.452C29.3521 30.452 29.0137 30.7905 29.0137 31.208C29.0137 31.6256 29.3521 31.964 29.7697 31.964Z" fill="#FEFFF4" stroke="#FEFFF4" stroke-width="1.96" stroke-miterlimit="10" stroke-linecap="round"/>
<path d="M37.9005 31.964C38.3181 31.964 38.6565 31.6256 38.6565 31.208C38.6565 30.7905 38.3181 30.452 37.9005 30.452C37.483 30.452 37.1445 30.7905 37.1445 31.208C37.1445 31.6256 37.483 31.964 37.9005 31.964Z" fill="#FEFFF4" stroke="#FEFFF4" stroke-width="1.96" stroke-miterlimit="10" stroke-linecap="round"/>
<path d="M28.8066 38.432C28.8066 38.432 32.3122 33.168 34.2498 38.6112C34.2498 38.6112 36.7418 32.216 38.5786 38.6112" stroke="#FEFFF4" stroke-width="1.96" stroke-linecap="round" stroke-linejoin="round"/>
<path d="M19.4991 32.7928H13.8711" stroke="#FEFFF4" stroke-width="1.96" stroke-miterlimit="10" stroke-linecap="round"/>
<path d="M34.0703 18.3784V12.896" stroke="#FEFFF4" stroke-width="1.96" stroke-miterlimit="10" stroke-linecap="round"/>
<path d="M44.7051 22.892L48.6475 18.9552" stroke="#FEFFF4" stroke-width="1.96" stroke-miterlimit="10" stroke-linecap="round"/>
<path d="M48.6465 32.7928H54.1289" stroke="#FEFFF4" stroke-width="1.96" stroke-miterlimit="10" stroke-linecap="round"/>
<path d="M24.169 22.3152L20.2266 18.3784" stroke="#FEFFF4" stroke-width="1.96" stroke-miterlimit="10" stroke-linecap="round"/>
<path d="M34.0703 53.104V47.6216" stroke="#FEFFF4" stroke-width="1.96" stroke-miterlimit="10" stroke-linecap="round"/>
<path d="M19.5 46.6304L23.4424 42.6936" stroke="#FEFFF4" stroke-width="1.96" stroke-miterlimit="10" stroke-linecap="round"/>
<path d="M48.6475 46.6304L44.7051 42.6936" stroke="#FEFFF4" stroke-width="1.96" stroke-miterlimit="10" stroke-linecap="round"/>
<rect x="1" y="1" width="66" height="64" rx="11" stroke="#5B9F8F" stroke-width="2"/>
</svg>
