<svg width="69" height="67" viewBox="0 0 69 67" fill="none" xmlns="http://www.w3.org/2000/svg">
<rect x="0.5" y="0.988159" width="67" height="65" rx="11.5" fill="#5B9F8F"/>
<path d="M34.25 44.705C40.4449 44.705 45.4668 39.683 45.4668 33.4882C45.4668 27.2933 40.4449 22.2714 34.25 22.2714C28.0551 22.2714 23.0332 27.2933 23.0332 33.4882C23.0332 39.683 28.0551 44.705 34.25 44.705Z" stroke="#FEFFF4" stroke-width="1.96" stroke-miterlimit="10"/>
<path d="M27.5527 28.5994L31.4503 27.2386" stroke="#FEFFF4" stroke-width="1.68" stroke-miterlimit="10" stroke-linecap="round"/>
<path d="M36.625 27.2441L40.5282 28.5937" stroke="#FEFFF4" stroke-width="1.68" stroke-miterlimit="10" stroke-linecap="round"/>
<path d="M29.7697 32.4522C30.1872 32.4522 30.5257 32.1137 30.5257 31.6962C30.5257 31.2787 30.1872 30.9402 29.7697 30.9402C29.3521 30.9402 29.0137 31.2787 29.0137 31.6962C29.0137 32.1137 29.3521 32.4522 29.7697 32.4522Z" fill="#FEFFF4" stroke="#FEFFF4" stroke-width="1.96" stroke-miterlimit="10" stroke-linecap="round"/>
<path d="M37.9005 32.4522C38.3181 32.4522 38.6565 32.1137 38.6565 31.6962C38.6565 31.2787 38.3181 30.9402 37.9005 30.9402C37.483 30.9402 37.1445 31.2787 37.1445 31.6962C37.1445 32.1137 37.483 32.4522 37.9005 32.4522Z" fill="#FEFFF4" stroke="#FEFFF4" stroke-width="1.96" stroke-miterlimit="10" stroke-linecap="round"/>
<path d="M28.8066 38.9201C28.8066 38.9201 32.3122 33.6561 34.2498 39.0993C34.2498 39.0993 36.7418 32.7041 38.5786 39.0993" stroke="#FEFFF4" stroke-width="1.96" stroke-linecap="round" stroke-linejoin="round"/>
<path d="M19.4991 33.2809H13.8711" stroke="#FEFFF4" stroke-width="1.96" stroke-miterlimit="10" stroke-linecap="round"/>
<path d="M34.0703 18.8666V13.3842" stroke="#FEFFF4" stroke-width="1.96" stroke-miterlimit="10" stroke-linecap="round"/>
<path d="M44.7051 23.3802L48.6475 19.4434" stroke="#FEFFF4" stroke-width="1.96" stroke-miterlimit="10" stroke-linecap="round"/>
<path d="M48.6465 33.2809H54.1289" stroke="#FEFFF4" stroke-width="1.96" stroke-miterlimit="10" stroke-linecap="round"/>
<path d="M24.169 22.8034L20.2266 18.8666" stroke="#FEFFF4" stroke-width="1.96" stroke-miterlimit="10" stroke-linecap="round"/>
<path d="M34.0703 53.5921V48.1097" stroke="#FEFFF4" stroke-width="1.96" stroke-miterlimit="10" stroke-linecap="round"/>
<path d="M19.5 47.1186L23.4424 43.1818" stroke="#FEFFF4" stroke-width="1.96" stroke-miterlimit="10" stroke-linecap="round"/>
<path d="M48.6475 47.1186L44.7051 43.1818" stroke="#FEFFF4" stroke-width="1.96" stroke-miterlimit="10" stroke-linecap="round"/>
<rect x="0.5" y="0.988159" width="67" height="65" rx="11.5" stroke="#5B9F8F"/>
</svg>