<svg width="69" height="67" viewBox="0 0 69 67" fill="none" xmlns="http://www.w3.org/2000/svg">
<rect x="1" y="1" width="66" height="64" rx="11" fill="#5B9F8F"/>
<path d="M33.9981 44.2169C40.1929 44.2169 45.2149 39.1949 45.2149 33.0001C45.2149 26.8052 40.1929 21.7833 33.9981 21.7833C27.8032 21.7833 22.7812 26.8052 22.7812 33.0001C22.7812 39.1949 27.8032 44.2169 33.9981 44.2169Z" stroke="#FEFFF4" stroke-width="1.96" stroke-miterlimit="10"/>
<path d="M19.4991 32.7928H13.8711" stroke="#FEFFF4" stroke-width="1.96" stroke-miterlimit="10" stroke-linecap="round"/>
<path d="M34.0703 18.3784V12.896" stroke="#FEFFF4" stroke-width="1.96" stroke-miterlimit="10" stroke-linecap="round"/>
<path d="M44.7051 22.8977L48.6475 18.9553" stroke="#FEFFF4" stroke-width="1.96" stroke-miterlimit="10" stroke-linecap="round"/>
<path d="M48.6465 32.7928H54.1289" stroke="#FEFFF4" stroke-width="1.96" stroke-miterlimit="10" stroke-linecap="round"/>
<path d="M23.9798 23.2224L20.043 19.28" stroke="#FEFFF4" stroke-width="1.96" stroke-miterlimit="10" stroke-linecap="round"/>
<path d="M34.0703 53.104V47.6216" stroke="#FEFFF4" stroke-width="1.96" stroke-miterlimit="10" stroke-linecap="round"/>
<path d="M19.5 46.636L23.4424 42.6936" stroke="#FEFFF4" stroke-width="1.96" stroke-miterlimit="10" stroke-linecap="round"/>
<path d="M48.6475 46.636L44.7051 42.6936" stroke="#FEFFF4" stroke-width="1.96" stroke-miterlimit="10" stroke-linecap="round"/>
<rect x="1" y="1" width="66" height="64" rx="11" stroke="#5B9F8F" stroke-width="2"/>
</svg>