<svg width="69" height="67" viewBox="0 0 69 67" fill="none" xmlns="http://www.w3.org/2000/svg">
    <rect x="1.9375" y="1.48816" width="66" height="64" rx="11" fill="#FEFFF4" />
    <path
        d="M34.9356 44.705C41.1304 44.705 46.1524 39.6831 46.1524 33.4882C46.1524 27.2934 41.1304 22.2714 34.9356 22.2714C28.7407 22.2714 23.7188 27.2934 23.7188 33.4882C23.7188 39.6831 28.7407 44.705 34.9356 44.705Z"
        stroke="#5B9F8F" stroke-width="1.96" stroke-miterlimit="10" />
    <path d="M20.4366 33.281H14.8086" stroke="#5B9F8F" stroke-width="1.96" stroke-miterlimit="10"
        stroke-linecap="round" />
    <path d="M35.0078 18.8666V13.3842" stroke="#5B9F8F" stroke-width="1.96" stroke-miterlimit="10"
        stroke-linecap="round" />
    <path d="M45.6426 23.3858L49.585 19.4434" stroke="#5B9F8F" stroke-width="1.96"
        stroke-miterlimit="10" stroke-linecap="round" />
    <path d="M49.584 33.281H55.0664" stroke="#5B9F8F" stroke-width="1.96" stroke-miterlimit="10"
        stroke-linecap="round" />
    <path d="M24.9173 23.7106L20.9805 19.7682" stroke="#5B9F8F" stroke-width="1.96"
        stroke-miterlimit="10" stroke-linecap="round" />
    <path d="M35.0078 53.5922V48.1098" stroke="#5B9F8F" stroke-width="1.96" stroke-miterlimit="10"
        stroke-linecap="round" />
    <path d="M20.4375 47.1242L24.3799 43.1818" stroke="#5B9F8F" stroke-width="1.96"
        stroke-miterlimit="10" stroke-linecap="round" />
    <path d="M49.585 47.1242L45.6426 43.1818" stroke="#5B9F8F" stroke-width="1.96"
        stroke-miterlimit="10" stroke-linecap="round" />
    <rect x="1.9375" y="1.48816" width="66" height="64" rx="11" stroke="#5B9F8F" stroke-width="2" />
</svg>
    