<svg width="69" height="67" viewBox="0 0 69 67" fill="none" xmlns="http://www.w3.org/2000/svg">
<rect x="1" y="1" width="66" height="64" rx="11" fill="#5B9F8F"/>
<path d="M27.1836 31.026C27.1836 31.026 29.6252 24.2668 31.938 31.026" stroke="#FEFFF4" stroke-width="1.96" stroke-miterlimit="10" stroke-linecap="round"/>
<path d="M35.6074 31.026C35.6074 31.026 38.049 24.2668 40.3618 31.026" stroke="#FEFFF4" stroke-width="1.96" stroke-miterlimit="10" stroke-linecap="round"/>
<path d="M28.5566 36.038H39.135C39.135 36.038 37.819 40.6076 33.8486 40.042C29.8782 39.4764 29.7494 37.662 28.5622 36.038H28.5566Z" stroke="#FEFFF4" stroke-width="1.96" stroke-linecap="round" stroke-linejoin="round"/>
<path d="M34 44.2196C40.1949 44.2196 45.2168 39.1977 45.2168 33.0028C45.2168 26.8079 40.1949 21.786 34 21.786C27.8051 21.786 22.7832 26.8079 22.7832 33.0028C22.7832 39.1977 27.8051 44.2196 34 44.2196Z" stroke="#FEFFF4" stroke-width="1.96" stroke-miterlimit="10"/>
<path d="M19.501 32.7956H13.873" stroke="#FEFFF4" stroke-width="1.96" stroke-miterlimit="10" stroke-linecap="round"/>
<path d="M34.0664 18.3756V12.8988" stroke="#FEFFF4" stroke-width="1.96" stroke-miterlimit="10" stroke-linecap="round"/>
<path d="M44.707 22.8948L48.6494 18.9524" stroke="#FEFFF4" stroke-width="1.96" stroke-miterlimit="10" stroke-linecap="round"/>
<path d="M48.6484 32.7956H54.1252" stroke="#FEFFF4" stroke-width="1.96" stroke-miterlimit="10" stroke-linecap="round"/>
<path d="M24.1653 22.318L20.2285 18.3756" stroke="#FEFFF4" stroke-width="1.96" stroke-miterlimit="10" stroke-linecap="round"/>
<path d="M34.0664 53.1012V47.6244" stroke="#FEFFF4" stroke-width="1.96" stroke-miterlimit="10" stroke-linecap="round"/>
<path d="M19.502 46.6332L23.4443 42.6908" stroke="#FEFFF4" stroke-width="1.96" stroke-miterlimit="10" stroke-linecap="round"/>
<path d="M48.6494 46.6332L44.707 42.6908" stroke="#FEFFF4" stroke-width="1.96" stroke-miterlimit="10" stroke-linecap="round"/>
<rect x="1" y="1" width="66" height="64" rx="11" stroke="#5B9F8F" stroke-width="2"/>
</svg>
