<svg width="88" height="87" viewBox="0 0 88 87" fill="none" xmlns="http://www.w3.org/2000/svg">
    <g filter="url(#filter0_d_1726_16143)">
        <rect x="10" y="10.4882" width="68" height="66" rx="12" fill="#5B9F8F" />
        <path
            d="M43.9981 54.705C50.1929 54.705 55.2149 49.683 55.2149 43.4882C55.2149 37.2933 50.1929 32.2714 43.9981 32.2714C37.8032 32.2714 32.7812 37.2933 32.7812 43.4882C32.7812 49.683 37.8032 54.705 43.9981 54.705Z"
            stroke="#FEFFF4" stroke-width="1.96" stroke-miterlimit="10" />
        <path d="M38.9023 47.4418C38.9023 47.4418 44.0096 53.5682 48.1536 47.4418" stroke="#FEFFF4"
            stroke-width="1.96" stroke-miterlimit="10" stroke-linecap="round" />
        <path
            d="M39.4611 42.4522C39.8786 42.4522 40.2171 42.1137 40.2171 41.6962C40.2171 41.2787 39.8786 40.9402 39.4611 40.9402C39.0436 40.9402 38.7051 41.2787 38.7051 41.6962C38.7051 42.1137 39.0436 42.4522 39.4611 42.4522Z"
            fill="#FEFFF4" stroke="#FEFFF4" stroke-width="1.96" stroke-miterlimit="10"
            stroke-linecap="round" />
        <path
            d="M47.5919 42.4522C48.0095 42.4522 48.3479 42.1137 48.3479 41.6962C48.3479 41.2787 48.0095 40.9402 47.5919 40.9402C47.1744 40.9402 46.8359 41.2787 46.8359 41.6962C46.8359 42.1137 47.1744 42.4522 47.5919 42.4522Z"
            fill="#FEFFF4" stroke="#FEFFF4" stroke-width="1.96" stroke-miterlimit="10"
            stroke-linecap="round" />
        <path d="M29.4991 43.2809H23.8711" stroke="#FEFFF4" stroke-width="1.96"
            stroke-miterlimit="10" stroke-linecap="round" />
        <path d="M44.0703 28.8666V23.3842" stroke="#FEFFF4" stroke-width="1.96"
            stroke-miterlimit="10" stroke-linecap="round" />
        <path d="M54.7051 33.3801L58.6475 29.4377" stroke="#FEFFF4" stroke-width="1.96"
            stroke-miterlimit="10" stroke-linecap="round" />
        <path d="M58.6465 43.2809H64.1289" stroke="#FEFFF4" stroke-width="1.96"
            stroke-miterlimit="10" stroke-linecap="round" />
        <path d="M34.169 32.8034L30.2266 28.8666" stroke="#FEFFF4" stroke-width="1.96"
            stroke-miterlimit="10" stroke-linecap="round" />
        <path d="M44.0703 63.5921V58.1097" stroke="#FEFFF4" stroke-width="1.96"
            stroke-miterlimit="10" stroke-linecap="round" />
        <path d="M29.5 57.1186L33.4424 53.1818" stroke="#FEFFF4" stroke-width="1.96"
            stroke-miterlimit="10" stroke-linecap="round" />
        <path d="M58.6475 57.1186L54.7051 53.1818" stroke="#FEFFF4" stroke-width="1.96"
            stroke-miterlimit="10" stroke-linecap="round" />
        <rect x="10.5" y="10.9882" width="67" height="65" rx="11.5" stroke="#5B9F8F" />
    </g>
    <defs>
        <filter id="filter0_d_1726_16143" x="0" y="0.488159" width="88" height="86"
            filterUnits="userSpaceOnUse" color-interpolation-filters="sRGB">
            <feFlood flood-opacity="0" result="BackgroundImageFix" />
            <feColorMatrix in="SourceAlpha" type="matrix"
                values="0 0 0 0 0 0 0 0 0 0 0 0 0 0 0 0 0 0 127 0" result="hardAlpha" />
            <feMorphology radius="4" operator="dilate" in="SourceAlpha"
                result="effect1_dropShadow_1726_16143" />
            <feOffset />
            <feGaussianBlur stdDeviation="3" />
            <feComposite in2="hardAlpha" operator="out" />
            <feColorMatrix type="matrix"
                values="0 0 0 0 0.356863 0 0 0 0 0.623529 0 0 0 0 0.560784 0 0 0 0.5 0" />
            <feBlend mode="normal" in2="BackgroundImageFix" result="effect1_dropShadow_1726_16143" />
            <feBlend mode="normal" in="SourceGraphic" in2="effect1_dropShadow_1726_16143"
                result="shape" />
        </filter>
    </defs>
</svg>
    