<svg width="69" height="67" viewBox="0 0 69 67" fill="none" xmlns="http://www.w3.org/2000/svg">
<rect x="1" y="1" width="66" height="64" rx="11" fill="#5B9F8F"/>
<path d="M33.9981 44.2168C40.1929 44.2168 45.2149 39.1949 45.2149 33C45.2149 26.8051 40.1929 21.7832 33.9981 21.7832C27.8032 21.7832 22.7812 26.8051 22.7812 33C22.7812 39.1949 27.8032 44.2168 33.9981 44.2168Z" stroke="#FEFFF4" stroke-width="1.96" stroke-miterlimit="10"/>
<path d="M28.9023 36.9536C28.9023 36.9536 34.0096 43.08 38.1536 36.9536" stroke="#FEFFF4" stroke-width="1.96" stroke-miterlimit="10" stroke-linecap="round"/>
<path d="M29.4611 31.964C29.8786 31.964 30.2171 31.6256 30.2171 31.208C30.2171 30.7905 29.8786 30.452 29.4611 30.452C29.0436 30.452 28.7051 30.7905 28.7051 31.208C28.7051 31.6256 29.0436 31.964 29.4611 31.964Z" fill="#FEFFF4" stroke="#FEFFF4" stroke-width="1.96" stroke-miterlimit="10" stroke-linecap="round"/>
<path d="M37.5919 31.964C38.0095 31.964 38.3479 31.6256 38.3479 31.208C38.3479 30.7905 38.0095 30.452 37.5919 30.452C37.1744 30.452 36.8359 30.7905 36.8359 31.208C36.8359 31.6256 37.1744 31.964 37.5919 31.964Z" fill="#FEFFF4" stroke="#FEFFF4" stroke-width="1.96" stroke-miterlimit="10" stroke-linecap="round"/>
<path d="M19.4991 32.7928H13.8711" stroke="#FEFFF4" stroke-width="1.96" stroke-miterlimit="10" stroke-linecap="round"/>
<path d="M34.0703 18.3784V12.896" stroke="#FEFFF4" stroke-width="1.96" stroke-miterlimit="10" stroke-linecap="round"/>
<path d="M44.7051 22.892L48.6475 18.9496" stroke="#FEFFF4" stroke-width="1.96" stroke-miterlimit="10" stroke-linecap="round"/>
<path d="M48.6465 32.7928H54.1289" stroke="#FEFFF4" stroke-width="1.96" stroke-miterlimit="10" stroke-linecap="round"/>
<path d="M24.169 22.3152L20.2266 18.3784" stroke="#FEFFF4" stroke-width="1.96" stroke-miterlimit="10" stroke-linecap="round"/>
<path d="M34.0703 53.104V47.6216" stroke="#FEFFF4" stroke-width="1.96" stroke-miterlimit="10" stroke-linecap="round"/>
<path d="M19.5 46.6304L23.4424 42.6936" stroke="#FEFFF4" stroke-width="1.96" stroke-miterlimit="10" stroke-linecap="round"/>
<path d="M48.6475 46.6304L44.7051 42.6936" stroke="#FEFFF4" stroke-width="1.96" stroke-miterlimit="10" stroke-linecap="round"/>
<rect x="1" y="1" width="66" height="64" rx="11" stroke="#5B9F8F" stroke-width="2"/>
</svg>
