<svg width="69" height="67" viewBox="0 0 69 67" fill="none" xmlns="http://www.w3.org/2000/svg">
<rect x="1" y="1" width="66" height="64" rx="11" fill="#5B9F8F"/>
<path d="M34.0703 44.0096C40.2652 44.0096 45.2871 38.9877 45.2871 32.7928C45.2871 26.5979 40.2652 21.576 34.0703 21.576C27.8754 21.576 22.8535 26.5979 22.8535 32.7928C22.8535 38.9877 27.8754 44.0096 34.0703 44.0096Z" stroke="#FEFFF4" stroke-width="1.96" stroke-miterlimit="10"/>
<path d="M26.9023 29.8528C26.9023 29.8528 29.4055 39.5408 31.7687 29.8528" stroke="#FEFFF4" stroke-width="1.96" stroke-miterlimit="10" stroke-linecap="round"/>
<path d="M36.002 29.8528C36.002 29.8528 38.5052 39.5408 40.8684 29.8528" stroke="#FEFFF4" stroke-width="1.96" stroke-miterlimit="10" stroke-linecap="round"/>
<path d="M30.3848 39.384C30.3848 39.384 33.7784 34.4168 36.9872 39.384" stroke="#FEFFF4" stroke-width="1.96" stroke-miterlimit="10" stroke-linecap="round"/>
<path d="M19.4991 32.7928H13.8711" stroke="#FEFFF4" stroke-width="1.96" stroke-miterlimit="10" stroke-linecap="round"/>
<path d="M34.0703 18.3784V12.896" stroke="#FEFFF4" stroke-width="1.96" stroke-miterlimit="10" stroke-linecap="round"/>
<path d="M44.7051 22.892L48.6475 18.9552" stroke="#FEFFF4" stroke-width="1.96" stroke-miterlimit="10" stroke-linecap="round"/>
<path d="M48.6465 32.7928H54.1289" stroke="#FEFFF4" stroke-width="1.96" stroke-miterlimit="10" stroke-linecap="round"/>
<path d="M24.169 22.3152L20.2266 18.3784" stroke="#FEFFF4" stroke-width="1.96" stroke-miterlimit="10" stroke-linecap="round"/>
<path d="M34.0703 53.104V47.6216" stroke="#FEFFF4" stroke-width="1.96" stroke-miterlimit="10" stroke-linecap="round"/>
<path d="M19.5 46.6304L23.4424 42.6936" stroke="#FEFFF4" stroke-width="1.96" stroke-miterlimit="10" stroke-linecap="round"/>
<path d="M48.6475 46.6304L44.7051 42.6936" stroke="#FEFFF4" stroke-width="1.96" stroke-miterlimit="10" stroke-linecap="round"/>
<rect x="1" y="1" width="66" height="64" rx="11" stroke="#5B9F8F" stroke-width="2"/>
</svg>
