<svg width="69" height="67" viewBox="0 0 69 67" fill="none" xmlns="http://www.w3.org/2000/svg">
    <rect x="1.9375" y="1.48816" width="66" height="64" rx="11" fill="#FEFFF4" />
    <path
        d="M35.0078 44.4977C41.2027 44.4977 46.2246 39.4758 46.2246 33.2809C46.2246 27.0861 41.2027 22.0641 35.0078 22.0641C28.8129 22.0641 23.791 27.0861 23.791 33.2809C23.791 39.4758 28.8129 44.4977 35.0078 44.4977Z"
        stroke="#5B9F8F" stroke-width="1.96" stroke-miterlimit="10" />
    <path d="M27.8398 30.3409C27.8398 30.3409 30.343 40.0289 32.7062 30.3409" stroke="#5B9F8F"
        stroke-width="1.96" stroke-miterlimit="10" stroke-linecap="round" />
    <path d="M36.9395 30.3409C36.9395 30.3409 39.4427 40.0289 41.8059 30.3409" stroke="#5B9F8F"
        stroke-width="1.96" stroke-miterlimit="10" stroke-linecap="round" />
    <path d="M31.3223 39.8721C31.3223 39.8721 34.7159 34.9049 37.9247 39.8721" stroke="#5B9F8F"
        stroke-width="1.96" stroke-miterlimit="10" stroke-linecap="round" />
    <path d="M20.4366 33.2809H14.8086" stroke="#5B9F8F" stroke-width="1.96" stroke-miterlimit="10"
        stroke-linecap="round" />
    <path d="M35.0078 18.8666V13.3842" stroke="#5B9F8F" stroke-width="1.96" stroke-miterlimit="10"
        stroke-linecap="round" />
    <path d="M45.6426 23.3802L49.585 19.4434" stroke="#5B9F8F" stroke-width="1.96"
        stroke-miterlimit="10" stroke-linecap="round" />
    <path d="M49.584 33.2809H55.0664" stroke="#5B9F8F" stroke-width="1.96" stroke-miterlimit="10"
        stroke-linecap="round" />
    <path d="M25.1065 22.8034L21.1641 18.8666" stroke="#5B9F8F" stroke-width="1.96"
        stroke-miterlimit="10" stroke-linecap="round" />
    <path d="M35.0078 53.5921V48.1097" stroke="#5B9F8F" stroke-width="1.96" stroke-miterlimit="10"
        stroke-linecap="round" />
    <path d="M20.4375 47.1186L24.3799 43.1818" stroke="#5B9F8F" stroke-width="1.96"
        stroke-miterlimit="10" stroke-linecap="round" />
    <path d="M49.585 47.1186L45.6426 43.1818" stroke="#5B9F8F" stroke-width="1.96"
        stroke-miterlimit="10" stroke-linecap="round" />
    <rect x="1.9375" y="1.48816" width="66" height="64" rx="11" stroke="#5B9F8F" stroke-width="2" />
</svg>
    