<svg width="69" height="67" viewBox="0 0 69 67" fill="none" xmlns="http://www.w3.org/2000/svg">
<rect x="1" y="1" width="66" height="64" rx="11" fill="#5B9F8F"/>
<path d="M27.6074 32.2917C27.6074 32.2917 29.8642 38.3229 31.9978 32.2917" stroke="#FEFFF4" stroke-width="1.6296" stroke-miterlimit="10" stroke-linecap="round"/>
<path d="M35.8164 32.2917C35.8164 32.2917 38.0732 38.3229 40.2068 32.2917" stroke="#FEFFF4" stroke-width="1.6296" stroke-miterlimit="10" stroke-linecap="round"/>
<path d="M32.8672 39.4317C32.8672 39.4317 33.9928 37.9477 36.6472 39.4317" stroke="#FEFFF4" stroke-width="1.96" stroke-miterlimit="10" stroke-linecap="round"/>
<path d="M26.9355 29.0045C26.9355 29.0045 28.6716 27.0109 31.5332 29.0045" stroke="#FEFFF4" stroke-width="1.68" stroke-miterlimit="10" stroke-linecap="round"/>
<path d="M34.7539 29.6205C34.7539 29.6205 36.9995 25.4317 39.7099 29.6205" stroke="#FEFFF4" stroke-width="1.68" stroke-miterlimit="10" stroke-linecap="round"/>
<path d="M34.0039 44.2141C40.1988 44.2141 45.2207 39.1922 45.2207 32.9973C45.2207 26.8024 40.1988 21.7805 34.0039 21.7805C27.8091 21.7805 22.7871 26.8024 22.7871 32.9973C22.7871 39.1922 27.8091 44.2141 34.0039 44.2141Z" stroke="#FEFFF4" stroke-width="1.96" stroke-miterlimit="10"/>
<path d="M19.5047 32.7901H13.8711" stroke="#FEFFF4" stroke-width="1.96" stroke-miterlimit="10" stroke-linecap="round"/>
<path d="M34.0703 18.3757V12.8989" stroke="#FEFFF4" stroke-width="1.96" stroke-miterlimit="10" stroke-linecap="round"/>
<path d="M44.7109 22.8949L48.6477 18.9525" stroke="#FEFFF4" stroke-width="1.96" stroke-miterlimit="10" stroke-linecap="round"/>
<path d="M48.6465 32.7901H54.1289" stroke="#FEFFF4" stroke-width="1.96" stroke-miterlimit="10" stroke-linecap="round"/>
<path d="M24.1692 22.3181L20.2324 18.3757" stroke="#FEFFF4" stroke-width="1.96" stroke-miterlimit="10" stroke-linecap="round"/>
<path d="M34.0703 53.1014V47.6246" stroke="#FEFFF4" stroke-width="1.96" stroke-miterlimit="10" stroke-linecap="round"/>
<path d="M19.5039 46.6333L23.4407 42.6909" stroke="#FEFFF4" stroke-width="1.96" stroke-miterlimit="10" stroke-linecap="round"/>
<path d="M48.6477 46.6333L44.7109 42.6909" stroke="#FEFFF4" stroke-width="1.96" stroke-miterlimit="10" stroke-linecap="round"/>
<rect x="1" y="1" width="66" height="64" rx="11" stroke="#5B9F8F" stroke-width="2"/>
</svg>
