<svg width="69" height="67" viewBox="0 0 69 67" fill="none" xmlns="http://www.w3.org/2000/svg">
    <rect x="1.9375" y="1.48816" width="66" height="64" rx="11" fill="#FEFFF4" />
    <path d="M28.5449 32.7799C28.5449 32.7799 30.8017 38.8111 32.9353 32.7799" stroke="#5B9F8F"
        stroke-width="1.6296" stroke-miterlimit="10" stroke-linecap="round" />
    <path d="M36.7539 32.7799C36.7539 32.7799 39.0107 38.8111 41.1443 32.7799" stroke="#5B9F8F"
        stroke-width="1.6296" stroke-miterlimit="10" stroke-linecap="round" />
    <path d="M33.8047 39.9199C33.8047 39.9199 34.9303 38.4359 37.5847 39.9199" stroke="#5B9F8F"
        stroke-width="1.96" stroke-miterlimit="10" stroke-linecap="round" />
    <path d="M27.873 29.4927C27.873 29.4927 29.6091 27.4991 32.4707 29.4927" stroke="#5B9F8F"
        stroke-width="1.68" stroke-miterlimit="10" stroke-linecap="round" />
    <path d="M35.6914 30.1087C35.6914 30.1087 37.937 25.9199 40.6474 30.1087" stroke="#5B9F8F"
        stroke-width="1.68" stroke-miterlimit="10" stroke-linecap="round" />
    <path
        d="M34.9414 44.7023C41.1363 44.7023 46.1582 39.6803 46.1582 33.4855C46.1582 27.2906 41.1363 22.2687 34.9414 22.2687C28.7466 22.2687 23.7246 27.2906 23.7246 33.4855C23.7246 39.6803 28.7466 44.7023 34.9414 44.7023Z"
        stroke="#5B9F8F" stroke-width="1.96" stroke-miterlimit="10" />
    <path d="M20.4422 33.2783H14.8086" stroke="#5B9F8F" stroke-width="1.96" stroke-miterlimit="10"
        stroke-linecap="round" />
    <path d="M35.0078 18.8639V13.3871" stroke="#5B9F8F" stroke-width="1.96" stroke-miterlimit="10"
        stroke-linecap="round" />
    <path d="M45.6484 23.3831L49.5852 19.4407" stroke="#5B9F8F" stroke-width="1.96"
        stroke-miterlimit="10" stroke-linecap="round" />
    <path d="M49.584 33.2783H55.0664" stroke="#5B9F8F" stroke-width="1.96" stroke-miterlimit="10"
        stroke-linecap="round" />
    <path d="M25.1067 22.8063L21.1699 18.8639" stroke="#5B9F8F" stroke-width="1.96"
        stroke-miterlimit="10" stroke-linecap="round" />
    <path d="M35.0078 53.5895V48.1127" stroke="#5B9F8F" stroke-width="1.96" stroke-miterlimit="10"
        stroke-linecap="round" />
    <path d="M20.4414 47.1215L24.3782 43.1791" stroke="#5B9F8F" stroke-width="1.96"
        stroke-miterlimit="10" stroke-linecap="round" />
    <path d="M49.5852 47.1215L45.6484 43.1791" stroke="#5B9F8F" stroke-width="1.96"
        stroke-miterlimit="10" stroke-linecap="round" />
    <rect x="1.9375" y="1.48816" width="66" height="64" rx="11" stroke="#5B9F8F" stroke-width="2" />
</svg>
    