<svg width="24" height="25" viewBox="0 0 24 25" fill="none" xmlns="http://www.w3.org/2000/svg">
    <mask id="mask0_1770_16747" style="mask-type:alpha" maskUnits="userSpaceOnUse" x="0" y="0"
        width="24" height="25">
        <rect y="0.775879" width="24" height="24" fill="#D9D9D9" />
    </mask>
    <g mask="url(#mask0_1770_16747)">
        <path
            d="M10.55 17.3426L17.6167 10.2759L16.3833 9.05921L10.55 14.8926L7.6 11.9426L6.38333 13.1592L10.55 17.3426ZM12 22.7759C10.6278 22.7759 9.33334 22.5134 8.11668 21.9884C6.90001 21.4634 5.83889 20.7481 4.93333 19.8426C4.02778 18.937 3.3125 17.8759 2.7875 16.6592C2.2625 15.4425 2 14.1481 2 12.7759C2 11.3925 2.2625 10.0925 2.7875 8.87588C3.3125 7.65921 4.02778 6.60088 4.93333 5.70088C5.83889 4.80088 6.90001 4.08838 8.11668 3.56338C9.33334 3.03838 10.6278 2.77588 12 2.77588C13.3833 2.77588 14.6833 3.03838 15.9 3.56338C17.1167 4.08838 18.175 4.80088 19.075 5.70088C19.975 6.60088 20.6875 7.65921 21.2125 8.87588C21.7375 10.0925 22 11.3925 22 12.7759C22 14.1481 21.7375 15.4425 21.2125 16.6592C20.6875 17.8759 19.975 18.937 19.075 19.8426C18.175 20.7481 17.1167 21.4634 15.9 21.9884C14.6833 22.5134 13.3833 22.7759 12 22.7759ZM12 21.1092C14.3222 21.1092 16.2917 20.2981 17.9084 18.6759C19.525 17.0537 20.3334 15.087 20.3334 12.7759C20.3334 10.4537 19.525 8.48421 17.9084 6.86753C16.2917 5.25086 14.3222 4.44253 12 4.44253C9.68888 4.44253 7.72222 5.25086 6.1 6.86753C4.47777 8.48421 3.66665 10.4537 3.66665 12.7759C3.66665 15.087 4.47777 17.0537 6.1 18.6759C7.72222 20.2981 9.68888 21.1092 12 21.1092Z"
            fill="#FEFFF4" />
    </g>
</svg>