<svg width="18" height="18" viewBox="0 0 18 18" fill="none" xmlns="http://www.w3.org/2000/svg">
<path d="M8.925 18C6.44167 18 4.33333 17.1208 2.6 15.3625C0.866667 13.6042 0 11.475 0 8.975H1.5C1.5 11.0583 2.21667 12.8333 3.65 14.3C5.08333 15.7667 6.84167 16.5 8.925 16.5C11.0417 16.5 12.8333 15.7583 14.3 14.275C15.7667 12.7917 16.5 10.9917 16.5 8.875C16.5 6.80833 15.7583 5.0625 14.275 3.6375C12.7917 2.2125 11.0083 1.5 8.925 1.5C7.79167 1.5 6.72917 1.75833 5.7375 2.275C4.74583 2.79167 3.88333 3.475 3.15 4.325H5.775V5.825H0.55V0.625H2.05V3.275C2.91667 2.25833 3.94583 1.45833 5.1375 0.875C6.32917 0.291667 7.59167 0 8.925 0C10.175 0 11.35 0.233333 12.45 0.7C13.55 1.16667 14.5125 1.80417 15.3375 2.6125C16.1625 3.42083 16.8125 4.36667 17.2875 5.45C17.7625 6.53333 18 7.7 18 8.95C18 10.2 17.7625 11.375 17.2875 12.475C16.8125 13.575 16.1625 14.5333 15.3375 15.35C14.5125 16.1667 13.55 16.8125 12.45 17.2875C11.35 17.7625 10.175 18 8.925 18ZM12.125 13.075L8.275 9.275V3.925H9.775V8.65L13.2 12L12.125 13.075Z" fill="#272727"/>
</svg>
