<svg width="19" height="19" viewBox="0 0 19 19" fill="none" xmlns="http://www.w3.org/2000/svg">
<path d="M17.7292 18.8489L10.8802 11.9999C10.3594 12.4513 9.75209 12.8029 9.05836 13.0546C8.36463 13.3063 7.62642 13.4322 6.84375 13.4322C4.96594 13.4322 3.37669 12.7812 2.07602 11.4791C0.775339 10.177 0.125 8.60582 0.125 6.76554C0.125 4.92527 0.776042 3.35409 2.07812 2.052C3.38021 0.749919 4.95573 0.098877 6.80469 0.098877C8.65365 0.098877 10.2248 0.749919 11.5182 2.052C12.8116 3.35409 13.4583 4.92657 13.4583 6.76945C13.4583 7.51337 13.3368 8.23256 13.0938 8.927C12.8507 9.62145 12.4861 10.2725 12 10.8801L18.875 17.703L17.7292 18.8489ZM6.81771 11.8697C8.2283 11.8697 9.4273 11.3706 10.4147 10.3723C11.4021 9.37405 11.8958 8.17179 11.8958 6.76554C11.8958 5.35929 11.4021 4.15704 10.4147 3.15877C9.4273 2.16051 8.2283 1.66138 6.81771 1.66138C5.39266 1.66138 4.18135 2.16051 3.1838 3.15877C2.18627 4.15704 1.6875 5.35929 1.6875 6.76554C1.6875 8.17179 2.18627 9.37405 3.1838 10.3723C4.18135 11.3706 5.39266 11.8697 6.81771 11.8697Z" fill="black"/>
</svg>
