<svg width="24" height="25" viewBox="0 0 24 25" fill="none" xmlns="http://www.w3.org/2000/svg">
    <mask id="mask0_2565_2363" style="mask-type:alpha" maskUnits="userSpaceOnUse" x="0" y="0"
        width="24" height="25">
        <rect y="0.856445" width="24" height="24" fill="#D9D9D9" />
    </mask>
    <g mask="url(#mask0_2565_2363)">
        <path
            d="M18 22.8564C17.1667 22.8564 16.4583 22.5648 15.875 21.9814C15.2917 21.3981 15 20.6898 15 19.8564C15 19.7398 15.0083 19.6188 15.025 19.4934C15.0417 19.3688 15.0667 19.2564 15.1 19.1564L8.05 15.0564C7.76667 15.3064 7.45 15.5021 7.1 15.6434C6.75 15.7854 6.38333 15.8564 6 15.8564C5.16667 15.8564 4.45833 15.5648 3.875 14.9814C3.29167 14.3981 3 13.6898 3 12.8564C3 12.0231 3.29167 11.3148 3.875 10.7314C4.45833 10.1481 5.16667 9.85645 6 9.85645C6.38333 9.85645 6.75 9.92711 7.1 10.0684C7.45 10.2104 7.76667 10.4064 8.05 10.6564L15.1 6.55645C15.0667 6.45645 15.0417 6.34411 15.025 6.21945C15.0083 6.09411 15 5.97311 15 5.85645C15 5.02311 15.2917 4.31478 15.875 3.73145C16.4583 3.14811 17.1667 2.85645 18 2.85645C18.8333 2.85645 19.5417 3.14811 20.125 3.73145C20.7083 4.31478 21 5.02311 21 5.85645C21 6.68978 20.7083 7.39811 20.125 7.98145C19.5417 8.56478 18.8333 8.85645 18 8.85645C17.6167 8.85645 17.25 8.78545 16.9 8.64345C16.55 8.50211 16.2333 8.30645 15.95 8.05645L8.9 12.1564C8.93333 12.2564 8.95833 12.3688 8.975 12.4934C8.99167 12.6188 9 12.7398 9 12.8564C9 12.9731 8.99167 13.0938 8.975 13.2184C8.95833 13.3438 8.93333 13.4564 8.9 13.5564L15.95 17.6564C16.2333 17.4064 16.55 17.2104 16.9 17.0684C17.25 16.9271 17.6167 16.8564 18 16.8564C18.8333 16.8564 19.5417 17.1481 20.125 17.7314C20.7083 18.3148 21 19.0231 21 19.8564C21 20.6898 20.7083 21.3981 20.125 21.9814C19.5417 22.5648 18.8333 22.8564 18 22.8564ZM18 6.85645C18.2833 6.85645 18.5207 6.76078 18.712 6.56945C18.904 6.37745 19 6.13978 19 5.85645C19 5.57311 18.904 5.33545 18.712 5.14345C18.5207 4.95211 18.2833 4.85645 18 4.85645C17.7167 4.85645 17.4793 4.95211 17.288 5.14345C17.096 5.33545 17 5.57311 17 5.85645C17 6.13978 17.096 6.37745 17.288 6.56945C17.4793 6.76078 17.7167 6.85645 18 6.85645ZM6 13.8564C6.28333 13.8564 6.521 13.7604 6.713 13.5684C6.90433 13.3771 7 13.1398 7 12.8564C7 12.5731 6.90433 12.3354 6.713 12.1434C6.521 11.9521 6.28333 11.8564 6 11.8564C5.71667 11.8564 5.479 11.9521 5.287 12.1434C5.09567 12.3354 5 12.5731 5 12.8564C5 13.1398 5.09567 13.3771 5.287 13.5684C5.479 13.7604 5.71667 13.8564 6 13.8564ZM18 20.8564C18.2833 20.8564 18.5207 20.7604 18.712 20.5684C18.904 20.3771 19 20.1398 19 19.8564C19 19.5731 18.904 19.3358 18.712 19.1444C18.5207 18.9524 18.2833 18.8564 18 18.8564C17.7167 18.8564 17.4793 18.9524 17.288 19.1444C17.096 19.3358 17 19.5731 17 19.8564C17 20.1398 17.096 20.3771 17.288 20.5684C17.4793 20.7604 17.7167 20.8564 18 20.8564Z"
            fill="#272727" />
    </g>
</svg>