<svg width="20" height="20" viewBox="0 0 20 20" fill="none" xmlns="http://www.w3.org/2000/svg">
<path d="M12.1667 19.452V17.7728C13.9181 17.2673 15.349 16.2968 16.4594 14.8614C17.5698 13.4259 18.125 11.7964 18.125 9.97282C18.125 8.14921 17.5743 6.51518 16.4729 5.07074C15.3715 3.62629 13.9361 2.66032 12.1667 2.17282V0.493652C14.4056 0.999208 16.2292 2.13219 17.6375 3.89261C19.0458 5.65303 19.75 7.67976 19.75 9.97282C19.75 12.2659 19.0458 14.2926 17.6375 16.053C16.2292 17.8134 14.4056 18.9464 12.1667 19.452ZM0.25 13.2499V6.7499H4.58333L10 1.33324V18.6666L4.58333 13.2499H0.25ZM11.625 14.5499V5.42282C12.6181 5.72976 13.408 6.30754 13.9948 7.15615C14.5816 8.00476 14.875 8.95268 14.875 9.9999C14.875 11.0291 14.5771 11.968 13.9812 12.8166C13.3854 13.6652 12.6 14.243 11.625 14.5499ZM8.375 5.4499L5.31458 8.3749H1.875V11.6249H5.31458L8.375 14.577V5.4499Z" fill="#272727"/>
</svg>
