<svg width="22" height="13" viewBox="0 0 22 13" fill="none" xmlns="http://www.w3.org/2000/svg">
<path d="M2 12.9131C1.45 12.9131 0.979167 12.7173 0.5875 12.3256C0.195833 11.9339 0 11.4631 0 10.9131C0 10.3631 0.195833 9.89225 0.5875 9.50059C0.979167 9.10892 1.45 8.91309 2 8.91309H2.2625C2.3375 8.91309 2.41667 8.92975 2.5 8.96309L7.05 4.41309C7.01667 4.32975 7 4.25059 7 4.17559V3.91309C7 3.36309 7.19583 2.89225 7.5875 2.50059C7.97917 2.10892 8.45 1.91309 9 1.91309C9.55 1.91309 10.0208 2.10892 10.4125 2.50059C10.8042 2.89225 11 3.36309 11 3.91309C11 3.94642 10.9833 4.11309 10.95 4.41309L13.5 6.96309C13.5833 6.92975 13.6625 6.91309 13.7375 6.91309H14.2625C14.3375 6.91309 14.4167 6.92975 14.5 6.96309L18.05 3.41309C18.0167 3.32975 18 3.25059 18 3.17559V2.91309C18 2.36309 18.1958 1.89225 18.5875 1.50059C18.9792 1.10892 19.45 0.913086 20 0.913086C20.55 0.913086 21.0208 1.10892 21.4125 1.50059C21.8042 1.89225 22 2.36309 22 2.91309C22 3.46309 21.8042 3.93392 21.4125 4.32559C21.0208 4.71725 20.55 4.91309 20 4.91309H19.7375C19.6625 4.91309 19.5833 4.89642 19.5 4.86309L15.95 8.41309C15.9833 8.49642 16 8.57559 16 8.65059V8.91309C16 9.46309 15.8042 9.93392 15.4125 10.3256C15.0208 10.7173 14.55 10.9131 14 10.9131C13.45 10.9131 12.9792 10.7173 12.5875 10.3256C12.1958 9.93392 12 9.46309 12 8.91309V8.65059C12 8.57559 12.0167 8.49642 12.05 8.41309L9.5 5.86309C9.41667 5.89642 9.3375 5.91309 9.2625 5.91309H9C8.96667 5.91309 8.8 5.89642 8.5 5.86309L3.95 10.4131C3.98333 10.4964 4 10.5756 4 10.6506V10.9131C4 11.4631 3.80417 11.9339 3.4125 12.3256C3.02083 12.7173 2.55 12.9131 2 12.9131Z" fill="#FEFFF4"/>
</svg>
